TelexDeva HT-Bold.ufo
<glyph name="parenleft" format="1">
  <advance width="293"/>
  <unicode hex="0028"/>
  <outline>
    <contour>
      <point x="199" y="797" type="line"/>
      <point x="77" y="606"/>
      <point x="32" y="458"/>
      <point x="32" y="283" type="curve" smooth="yes"/>
      <point x="32" y="105"/>
      <point x="78" y="-41"/>
      <point x="199" y="-227" type="curve"/>
      <point x="286" y="-177" type="line"/>
      <point x="188" y="-4"/>
      <point x="150" y="124"/>
      <point x="150" y="285" type="curve" smooth="yes"/>
      <point x="150" y="450"/>
      <point x="188" y="578"/>
      <point x="286" y="747" type="curve"/>
    </contour>
  </outline>
</glyph>
<glyph name="hyphen" format="1">
  <advance width="501"/>
  <unicode hex="002D"/>
  <outline>
    <contour>
      <point x="436" y="374" type="line"/>
      <point x="65" y="374" type="line"/>
      <point x="65" y="268" type="line"/>
      <point x="436" y="268" type="line"/>
    </contour>
  </outline>
</glyph>
<glyph name="four" format="1">
  <advance width="612"/>
  <unicode hex="0034"/>
  <outline>
    <contour>
      <point x="580" y="151" type="line"/>
      <point x="594" y="255" type="line"/>
      <point x="510" y="255" type="line"/>
      <point x="510" y="709" type="line"/>
      <point x="299" y="709" type="line"/>
      <point x="14" y="233" type="line"/>
      <point x="27" y="151" type="line"/>
      <point x="376" y="151" type="line"/>
      <point x="376" y="0" type="line"/>
      <point x="510" y="0" type="line"/>
      <point x="510" y="151" type="line"/>
    </contour>
    <contour>
      <point x="376" y="255" type="line"/>
      <point x="170" y="255" type="line"/>
      <point x="376" y="608" type="line"/>
    </contour>
  </outline>
</glyph>
<glyph name="greater" format="1">
  <advance width="616"/>
  <unicode hex="003E"/>
  <outline>
    <contour>
      <point x="583" y="351" type="line"/>
      <point x="62" y="547" type="line"/>
      <point x="62" y="435" type="line"/>
      <point x="423" y="302" type="line"/>
      <point x="62" y="170" type="line"/>
      <point x="62" y="57" type="line"/>
      <point x="583" y="254" type="line"/>
    </contour>
  </outline>
</glyph>
<glyph name="at" format="1">
  <advance width="998"/>
  <unicode hex="0040"/>
  <outline>
    <contour>
      <point x="32" y="-51"/>
      <point x="219" y="-228"/>
      <point x="499" y="-228" type="curve" smooth="yes"/>
      <point x="565" y="-228"/>
      <point x="649" y="-213"/>
      <point x="707" y="-192" type="curve"/>
      <point x="676" y="-90" type="line"/>
      <point x="630" y="-108"/>
      <point x="563" y="-119"/>
      <point x="508" y="-119" type="curve" smooth="yes"/>
      <point x="297" y="-119"/>
      <point x="157" y="14"/>
      <point x="157" y="214" type="curve" smooth="yes"/>
      <point x="157" y="449"/>
      <point x="307" y="605"/>
      <point x="532" y="605" type="curve" smooth="yes"/>
      <point x="718" y="605"/>
      <point x="842" y="490"/>
      <point x="842" y="317" type="curve" smooth="yes"/>
      <point x="842" y="205"/>
      <point x="802" y="130"/>
      <point x="743" y="130" type="curve" smooth="yes"/>
      <point x="699" y="130"/>
      <point x="669" y="171"/>
      <point x="669" y="232" type="curve" smooth="yes"/>
      <point x="669" y="247"/>
      <point x="671" y="266"/>
      <point x="673" y="278" type="curve"/>
      <point x="693" y="437" type="line"/>
      <point x="652" y="453"/>
      <point x="596" y="465"/>
      <point x="555" y="465" type="curve" smooth="yes"/>
      <point x="394" y="465"/>
      <point x="286" y="358"/>
      <point x="286" y="198" type="curve" smooth="yes"/>
      <point x="286" y="96"/>
      <point x="352" y="28"/>
      <point x="450" y="28" type="curve" smooth="yes"/>
      <point x="511" y="28"/>
      <point x="571" y="62"/>
      <point x="601" y="114" type="curve"/>
      <point x="621" y="61"/>
      <point x="678" y="26"/>
      <point x="744" y="26" type="curve" smooth="yes"/>
      <point x="877" y="26"/>
      <point x="966" y="143"/>
      <point x="966" y="320" type="curve" smooth="yes"/>
      <point x="966" y="558"/>
      <point x="793" y="717"/>
      <point x="532" y="717" type="curve" smooth="yes"/>
      <point x="232" y="717"/>
      <point x="32" y="516"/>
      <point x="32" y="214" type="curve" smooth="yes"/>
    </contour>
    <contour>
      <point x="565" y="246" type="line" smooth="yes"/>
      <point x="556" y="176"/>
      <point x="518" y="130"/>
      <point x="470" y="130" type="curve" smooth="yes"/>
      <point x="431" y="130"/>
      <point x="405" y="166"/>
      <point x="405" y="219" type="curve" smooth="yes"/>
      <point x="405" y="310"/>
      <point x="457" y="371"/>
      <point x="536" y="371" type="curve" smooth="yes"/>
      <point x="550" y="371"/>
      <point x="568" y="368"/>
      <point x="582" y="364" type="curve"/>
    </contour>
  </outline>
</glyph>
<glyph name="D" format="1">
  <advance width="724"/>
  <unicode hex="0044"/>
  <outline>
    <contour>
      <point x="81" y="709" type="line"/>
      <point x="81" y="0" type="line"/>
      <point x="319" y="0" type="line" smooth="yes"/>
      <point x="561" y="0"/>
      <point x="687" y="123"/>
      <point x="687" y="358" type="curve" smooth="yes"/>
      <point x="687" y="590"/>
      <point x="563" y="709"/>
      <point x="319" y="709" type="curve" smooth="yes"/>
    </contour>
    <contour>
      <point x="232" y="114" type="line"/>
      <point x="232" y="594" type="line"/>
      <point x="329" y="594" type="line" smooth="yes"/>
      <point x="462" y="594"/>
      <point x="530" y="514"/>
      <point x="530" y="356" type="curve" smooth="yes"/>
      <point x="530" y="196"/>
      <point x="461" y="114"/>
      <point x="329" y="114" type="curve" smooth="yes"/>
    </contour>
  </outline>
</glyph>
<glyph name="I" format="1">
  <advance width="314"/>
  <unicode hex="0049"/>
  <outline>
    <contour>
      <point x="234" y="709" type="line"/>
      <point x="81" y="709" type="line"/>
      <point x="81" y="0" type="line"/>
      <point x="234" y="0" type="line"/>
    </contour>
  </outline>
</glyph>
<glyph name="N" format="1">
  <advance width="752"/>
  <unicode hex="004E"/>
  <outline>
    <contour>
      <point x="672" y="709" type="line"/>
      <point x="532" y="709" type="line"/>
      <point x="532" y="221" type="line"/>
      <point x="496" y="281"/>
      <point x="456" y="347"/>
      <point x="418" y="401" type="curve" smooth="yes"/>
      <point x="202" y="709" type="line"/>
      <point x="81" y="709" type="line"/>
      <point x="81" y="0" type="line"/>
      <point x="220" y="0" type="line"/>
      <point x="220" y="491" type="line"/>
      <point x="255" y="432"/>
      <point x="294" y="366"/>
      <point x="330" y="314" type="curve" smooth="yes"/>
      <point x="550" y="0" type="line"/>
      <point x="672" y="0" type="line"/>
    </contour>
  </outline>
</glyph>
<glyph name="bracketright" format="1">
  <advance width="338"/>
  <unicode hex="005D"/>
  <outline>
    <contour>
      <point x="144" y="-92" type="line"/>
      <point x="12" y="-92" type="line"/>
      <point x="12" y="-193" type="line"/>
      <point x="259" y="-193" type="line"/>
      <point x="259" y="774" type="line"/>
      <point x="12" y="774" type="line"/>
      <point x="12" y="673" type="line"/>
      <point x="144" y="673" type="line"/>
    </contour>
  </outline>
</glyph>
<glyph name="e" format="1">
  <advance width="562"/>
  <unicode hex="0065"/>
  <outline>
    <contour>
      <point x="531" y="234" type="line"/>
      <point x="531" y="268" type="line" smooth="yes"/>
      <point x="531" y="446"/>
      <point x="453" y="534"/>
      <point x="296" y="534" type="curve" smooth="yes"/>
      <point x="130" y="534"/>
      <point x="32" y="434"/>
      <point x="32" y="263" type="curve" smooth="yes"/>
      <point x="32" y="93"/>
      <point x="132" y="-10"/>
      <point x="298" y="-10" type="curve" smooth="yes"/>
      <point x="367" y="-10"/>
      <point x="438" y="8"/>
      <point x="518" y="45" type="curve"/>
      <point x="482" y="138" type="line"/>
      <point x="417" y="111"/>
      <point x="367" y="100"/>
      <point x="316" y="100" type="curve" smooth="yes"/>
      <point x="231" y="100"/>
      <point x="186" y="145"/>
      <point x="178" y="234" type="curve"/>
    </contour>
    <contour>
      <point x="181" y="321" type="line"/>
      <point x="193" y="395"/>
      <point x="231" y="430"/>
      <point x="297" y="430" type="curve" smooth="yes"/>
      <point x="356" y="430"/>
      <point x="389" y="396"/>
      <point x="393" y="321" type="curve"/>
    </contour>
  </outline>
</glyph>
<glyph name="f" format="1">
  <advance width="370"/>
  <unicode hex="0066"/>
  <outline>
    <contour>
      <point x="9" y="419" type="line"/>
      <point x="95" y="419" type="line"/>
      <point x="95" y="-153" type="line"/>
      <point x="190" y="-153" type="line"/>
      <point x="224" y="-91"/>
      <point x="242" y="-27"/>
      <point x="242" y="45" type="curve" smooth="yes"/>
      <point x="242" y="419" type="line"/>
      <point x="368" y="419" type="line"/>
      <point x="368" y="524" type="line"/>
      <point x="242" y="524" type="line"/>
      <point x="242" y="581" type="line" smooth="yes"/>
      <point x="242" y="632"/>
      <point x="270" y="657"/>
      <point x="314" y="657" type="curve" smooth="yes"/>
      <point x="336" y="657"/>
      <point x="359" y="652"/>
      <point x="389" y="642" type="curve"/>
      <point x="426" y="727" type="line"/>
      <point x="369" y="751"/>
      <point x="329" y="760"/>
      <point x="280" y="760" type="curve" smooth="yes"/>
      <point x="166" y="760"/>
      <point x="95" y="691"/>
      <point x="95" y="580" type="curve" smooth="yes"/>
      <point x="95" y="524" type="line"/>
      <point x="9" y="524" type="line"/>
    </contour>
  </outline>
</glyph>
<glyph name="braceleft" format="1">
  <advance width="344"/>
  <unicode hex="007B"/>
  <outline>
    <contour>
      <point x="89" y="6" type="line" smooth="yes"/>
      <point x="89" y="-137"/>
      <point x="143" y="-193"/>
      <point x="282" y="-193" type="curve" smooth="yes"/>
      <point x="333" y="-193" type="line"/>
      <point x="333" y="-96" type="line"/>
      <point x="287" y="-96" type="line" smooth="yes"/>
      <point x="229" y="-96"/>
      <point x="205" y="-70"/>
      <point x="205" y="-7" type="curve" smooth="yes"/>
      <point x="205" y="150" type="line" smooth="yes"/>
      <point x="205" y="203"/>
      <point x="178" y="247"/>
      <point x="124" y="289" type="curve"/>
      <point x="124" y="299" type="line"/>
      <point x="178" y="338"/>
      <point x="205" y="384"/>
      <point x="205" y="440" type="curve" smooth="yes"/>
      <point x="205" y="589" type="line" smooth="yes"/>
      <point x="205" y="651"/>
      <point x="229" y="677"/>
      <point x="287" y="677" type="curve" smooth="yes"/>
      <point x="333" y="677" type="line"/>
      <point x="333" y="774" type="line"/>
      <point x="284" y="774" type="line" smooth="yes"/>
      <point x="147" y="774"/>
      <point x="89" y="714"/>
      <point x="89" y="575" type="curve" smooth="yes"/>
      <point x="89" y="470" type="line" smooth="yes"/>
      <point x="89" y="398"/>
      <point x="61" y="353"/>
      <point x="7" y="334" type="curve"/>
      <point x="7" y="259" type="line"/>
      <point x="57" y="243"/>
      <point x="89" y="188"/>
      <point x="89" y="119" type="curve" smooth="yes"/>
    </contour>
  </outline>
</glyph>
<glyph name="asciitilde" format="1">
  <advance width="667"/>
  <unicode hex="007E"/>
  <outline>
    <contour>
      <point x="301" y="368"/>
      <point x="327" y="258"/>
      <point x="438" y="258" type="curve" smooth="yes"/>
      <point x="537" y="258"/>
      <point x="602" y="332"/>
      <point x="602" y="447" type="curve"/>
      <point x="495" y="447" type="line"/>
      <point x="495" y="392"/>
      <point x="472" y="358"/>
      <point x="433" y="358" type="curve" smooth="yes"/>
      <point x="358" y="358"/>
      <point x="349" y="468"/>
      <point x="229" y="468" type="curve" smooth="yes"/>
      <point x="129" y="468"/>
      <point x="65" y="396"/>
      <point x="65" y="279" type="curve"/>
      <point x="172" y="279" type="line"/>
      <point x="172" y="335"/>
      <point x="197" y="368"/>
      <point x="239" y="368" type="curve" smooth="yes"/>
    </contour>
  </outline>
</glyph>
<glyph name="currency" format="1">
  <advance width="584"/>
  <unicode hex="00A4"/>
  <outline>
    <contour>
      <point x="488" y="362"/>
      <point x="477" y="400"/>
      <point x="457" y="430" type="curve"/>
      <point x="570" y="542" type="line"/>
      <point x="514" y="598" type="line"/>
      <point x="401" y="485" type="line"/>
      <point x="370" y="504"/>
      <point x="333" y="514"/>
      <point x="291" y="514" type="curve" smooth="yes"/>
      <point x="250" y="514"/>
      <point x="213" y="504"/>
      <point x="183" y="485" type="curve"/>
      <point x="70" y="598" type="line"/>
      <point x="14" y="542" type="line"/>
      <point x="126" y="430" type="line"/>
      <point x="106" y="400"/>
      <point x="95" y="362"/>
      <point x="95" y="320" type="curve" smooth="yes"/>
      <point x="95" y="278"/>
      <point x="106" y="240"/>
      <point x="125" y="210" type="curve"/>
      <point x="14" y="99" type="line"/>
      <point x="70" y="43" type="line"/>
      <point x="182" y="154" type="line"/>
      <point x="212" y="136"/>
      <point x="249" y="126"/>
      <point x="291" y="126" type="curve" smooth="yes"/>
      <point x="333" y="126"/>
      <point x="371" y="136"/>
      <point x="401" y="155" type="curve"/>
      <point x="514" y="43" type="line"/>
      <point x="570" y="99" type="line"/>
      <point x="458" y="210" type="line"/>
      <point x="477" y="241"/>
      <point x="488" y="278"/>
      <point x="488" y="320" type="curve" smooth="yes"/>
    </contour>
    <contour>
      <point x="241" y="226"/>
      <point x="205" y="266"/>
      <point x="205" y="320" type="curve" smooth="yes"/>
      <point x="205" y="374"/>
      <point x="241" y="414"/>
      <point x="291" y="414" type="curve" smooth="yes"/>
      <point x="342" y="414"/>
      <point x="378" y="374"/>
      <point x="378" y="320" type="curve" smooth="yes"/>
      <point x="378" y="266"/>
      <point x="342" y="226"/>
      <point x="291" y="226" type="curve" smooth="yes"/>
    </contour>
  </outline>
</glyph>
<glyph name="logicalnot" format="1">
  <advance width="646"/>
  <unicode hex="00AC"/>
  <outline>
    <contour>
      <point x="48" y="344" type="line"/>
      <point x="443" y="344" type="line"/>
      <point x="443" y="156" type="line"/>
      <point x="547" y="156" type="line"/>
      <point x="547" y="445" type="line"/>
      <point x="48" y="445" type="line"/>
    </contour>
  </outline>
</glyph>
<glyph name="periodcentered" format="1">
  <advance width="287"/>
  <unicode hex="00B7"/>
  <outline>
    <contour>
      <point x="221" y="385" type="line"/>
      <point x="67" y="385" type="line"/>
      <point x="67" y="236" type="line"/>
      <point x="221" y="236" type="line"/>
    </contour>
  </outline>
</glyph>
<glyph name="onesuperior" format="1">
  <advance width="272"/>
  <unicode hex="00B9"/>
  <outline>
    <contour>
      <point x="19" y="751" type="line"/>
      <point x="119" y="775" type="line"/>
      <point x="119" y="421" type="line"/>
      <point x="230" y="421" type="line"/>
      <point x="230" y="860" type="line"/>
      <point x="163" y="870" type="line"/>
      <point x="3" y="810" type="line"/>
    </contour>
  </outline>
</glyph>
<glyph name="threequarters" format="1">
  <advance width="911"/>
  <unicode hex="00BE"/>
  <outline>
    <contour>
      <point x="609" y="748" type="line"/>
      <point x="177" y="-1" type="line"/>
      <point x="254" y="-46" type="line"/>
      <point x="687" y="704" type="line"/>
    </contour>
    <contour>
      <point x="14" y="274" type="line"/>
      <point x="49" y="261"/>
      <point x="96" y="254"/>
      <point x="137" y="254" type="curve" smooth="yes"/>
      <point x="256" y="254"/>
      <point x="322" y="300"/>
      <point x="322" y="380" type="curve" smooth="yes"/>
      <point x="322" y="437"/>
      <point x="286" y="475"/>
      <point x="222" y="488" type="curve"/>
      <point x="280" y="501"/>
      <point x="312" y="536"/>
      <point x="312" y="589" type="curve" smooth="yes"/>
      <point x="312" y="662"/>
      <point x="246" y="706"/>
      <point x="151" y="706" type="curve" smooth="yes"/>
      <point x="105" y="706"/>
      <point x="58" y="698"/>
      <point x="14" y="683" type="curve"/>
      <point x="30" y="607" type="line"/>
      <point x="65" y="620"/>
      <point x="102" y="627"/>
      <point x="129" y="627" type="curve" smooth="yes"/>
      <point x="172" y="627"/>
      <point x="198" y="611"/>
      <point x="198" y="579" type="curve" smooth="yes"/>
      <point x="198" y="542"/>
      <point x="168" y="521"/>
      <point x="114" y="521" type="curve" smooth="yes"/>
      <point x="81" y="521" type="line"/>
      <point x="81" y="446" type="line"/>
      <point x="119" y="446" type="line" smooth="yes"/>
      <point x="178" y="446"/>
      <point x="209" y="427"/>
      <point x="209" y="387" type="curve" smooth="yes"/>
      <point x="209" y="352"/>
      <point x="179" y="332"/>
      <point x="124" y="332" type="curve" smooth="yes"/>
      <point x="98" y="332"/>
      <point x="60" y="338"/>
      <point x="27" y="348" type="curve"/>
    </contour>
    <contour>
      <point x="849" y="165" type="line"/>
      <point x="849" y="445" type="line"/>
      <point x="697" y="445" type="line"/>
      <point x="528" y="148" type="line"/>
      <point x="537" y="91" type="line"/>
      <point x="753" y="91" type="line"/>
      <point x="753" y="0" type="line"/>
      <point x="849" y="0" type="line"/>
      <point x="849" y="91" type="line"/>
      <point x="891" y="91" type="line"/>
      <point x="902" y="165" type="line"/>
    </contour>
    <contour>
      <point x="637" y="165" type="line"/>
      <point x="753" y="373" type="line"/>
      <point x="753" y="165" type="line"/>
    </contour>
  </outline>
</glyph>
<glyph name="Acircumflex" format="1">
  <advance width="681"/>
  <unicode hex="00C2"/>
  <outline>
    <contour>
      <point x="511" y="801" type="line"/>
      <point x="355" y="942" type="line"/>
      <point x="324" y="942" type="line"/>
      <point x="168" y="801" type="line"/>
      <point x="209" y="751" type="line"/>
      <point x="339" y="838" type="line"/>
      <point x="470" y="751" type="line"/>
    </contour>
    <contour>
      <point x="675" y="0" type="line"/>
      <point x="439" y="709" type="line"/>
      <point x="237" y="709" type="line"/>
      <point x="7" y="0" type="line"/>
      <point x="157" y="0" type="line"/>
      <point x="215" y="182" type="line"/>
      <point x="467" y="182" type="line"/>
      <point x="527" y="0" type="line"/>
    </contour>
    <contour>
      <point x="249" y="295" type="line"/>
      <point x="336" y="578" type="line"/>
      <point x="343" y="578" type="line"/>
      <point x="432" y="295" type="line"/>
    </contour>
  </outline>
</glyph>
<glyph name="Eacute" format="1">
  <advance width="587"/>
  <unicode hex="00C9"/>
  <outline>
    <contour>
      <point x="406" y="965" type="line"/>
      <point x="250" y="804" type="line"/>
      <point x="291" y="754" type="line"/>
      <point x="471" y="879" type="line"/>
    </contour>
    <contour>
      <point x="543" y="709" type="line"/>
      <point x="81" y="709" type="line"/>
      <point x="81" y="0" type="line"/>
      <point x="553" y="0" type="line"/>
      <point x="553" y="113" type="line"/>
      <point x="234" y="113" type="line"/>
      <point x="234" y="310" type="line"/>
      <point x="513" y="310" type="line"/>
      <point x="513" y="421" type="line"/>
      <point x="234" y="421" type="line"/>
      <point x="234" y="596" type="line"/>
      <point x="543" y="596" type="line"/>
    </contour>
  </outline>
</glyph>
<glyph name="Igrave" format="1">
  <advance width="314"/>
  <unicode hex="00CC"/>
  <outline>
    <contour>
      <point x="202" y="804" type="line"/>
      <point x="46" y="965" type="line"/>
      <point x="-19" y="879" type="line"/>
      <point x="161" y="754" type="line"/>
    </contour>
    <contour>
      <point x="234" y="709" type="line"/>
      <point x="81" y="709" type="line"/>
      <point x="81" y="0" type="line"/>
      <point x="234" y="0" type="line"/>
    </contour>
  </outline>
</glyph>
<glyph name="Icircumflex" format="1">
  <advance width="314"/>
  <unicode hex="00CE"/>
  <outline>
    <contour>
      <point x="330" y="801" type="line"/>
      <point x="174" y="942" type="line"/>
      <point x="143" y="942" type="line"/>
      <point x="-13" y="801" type="line"/>
      <point x="28" y="751" type="line"/>
      <point x="158" y="838" type="line"/>
      <point x="289" y="751" type="line"/>
    </contour>
    <contour>
      <point x="234" y="709" type="line"/>
      <point x="81" y="709" type="line"/>
      <point x="81" y="0" type="line"/>
      <point x="234" y="0" type="line"/>
    </contour>
  </outline>
</glyph>
<glyph name="multiply" format="1">
  <advance width="554"/>
  <unicode hex="00D7"/>
  <outline>
    <contour>
      <point x="202" y="293" type="line"/>
      <point x="42" y="133" type="line"/>
      <point x="117" y="58" type="line"/>
      <point x="277" y="218" type="line"/>
      <point x="438" y="58" type="line"/>
      <point x="513" y="133" type="line"/>
      <point x="352" y="293" type="line"/>
      <point x="513" y="454" type="line"/>
      <point x="438" y="529" type="line"/>
      <point x="277" y="368" type="line"/>
      <point x="117" y="529" type="line"/>
      <point x="42" y="454" type="line"/>
    </contour>
  </outline>
</glyph>
<glyph name="Ucircumflex" format="1">
  <advance width="724"/>
  <unicode hex="00DB"/>
  <outline>
    <contour>
      <point x="534" y="801" type="line"/>
      <point x="378" y="942" type="line"/>
      <point x="347" y="942" type="line"/>
      <point x="191" y="801" type="line"/>
      <point x="232" y="751" type="line"/>
      <point x="362" y="838" type="line"/>
      <point x="493" y="751" type="line"/>
    </contour>
    <contour>
      <point x="658" y="709" type="line"/>
      <point x="505" y="709" type="line"/>
      <point x="505" y="240" type="line" smooth="yes"/>
      <point x="505" y="154"/>
      <point x="456" y="111"/>
      <point x="362" y="111" type="curve" smooth="yes"/>
      <point x="266" y="111"/>
      <point x="219" y="154"/>
      <point x="219" y="240" type="curve" smooth="yes"/>
      <point x="219" y="709" type="line"/>
      <point x="66" y="709" type="line"/>
      <point x="66" y="242" type="line" smooth="yes"/>
      <point x="66" y="76"/>
      <point x="168" y="-10"/>
      <point x="362" y="-10" type="curve" smooth="yes"/>
      <point x="553" y="-10"/>
      <point x="658" y="78"/>
      <point x="658" y="242" type="curve" smooth="yes"/>
    </contour>
  </outline>
</glyph>
<glyph name="agrave" format="1">
  <advance width="556"/>
  <unicode hex="00E0"/>
  <outline>
    <contour>
      <point x="321" y="620" type="line"/>
      <point x="165" y="781" type="line"/>
      <point x="100" y="695" type="line"/>
      <point x="280" y="570" type="line"/>
    </contour>
    <contour>
      <point x="203" y="534"/>
      <point x="124" y="518"/>
      <point x="54" y="490" type="curve"/>
      <point x="86" y="389" type="line"/>
      <point x="134" y="410"/>
      <point x="201" y="425"/>
      <point x="246" y="425" type="curve" smooth="yes"/>
      <point x="312" y="425"/>
      <point x="347" y="395"/>
      <point x="349" y="334" type="curve" smooth="yes"/>
      <point x="349" y="321" type="line"/>
      <point x="285" y="321" type="line" smooth="yes"/>
      <point x="119" y="321"/>
      <point x="23" y="256"/>
      <point x="23" y="147" type="curve" smooth="yes"/>
      <point x="23" y="52"/>
      <point x="91" y="-8"/>
      <point x="199" y="-8" type="curve" smooth="yes"/>
      <point x="260" y="-8"/>
      <point x="316" y="17"/>
      <point x="358" y="62" type="curve"/>
      <point x="375" y="0" type="line"/>
      <point x="499" y="0" type="line"/>
      <point x="499" y="321" type="line" smooth="yes"/>
      <point x="499" y="460"/>
      <point x="418" y="534"/>
      <point x="270" y="534" type="curve" smooth="yes"/>
    </contour>
    <contour>
      <point x="349" y="239" type="line"/>
      <point x="349" y="142" type="line"/>
      <point x="323" y="111"/>
      <point x="281" y="90"/>
      <point x="238" y="90" type="curve" smooth="yes"/>
      <point x="190" y="90"/>
      <point x="163" y="113"/>
      <point x="163" y="156" type="curve" smooth="yes"/>
      <point x="163" y="208"/>
      <point x="213" y="239"/>
      <point x="298" y="239" type="curve" smooth="yes"/>
    </contour>
  </outline>
</glyph>
<glyph name="igrave" format="1">
  <advance width="295"/>
  <unicode hex="00EC"/>
  <outline>
    <contour>
      <point x="193" y="620" type="line"/>
      <point x="37" y="781" type="line"/>
      <point x="-28" y="695" type="line"/>
      <point x="152" y="570" type="line"/>
    </contour>
    <contour>
      <point x="222" y="517" type="line"/>
      <point x="73" y="517" type="line"/>
      <point x="73" y="0" type="line"/>
      <point x="222" y="0" type="line"/>
    </contour>
  </outline>
</glyph>
<glyph name="ntilde" format="1">
  <advance width="625"/>
  <unicode hex="00F1"/>
  <outline>
    <contour>
      <point x="172" y="743"/>
      <point x="123" y="689"/>
      <point x="123" y="601" type="curve"/>
      <point x="208" y="601" type="line"/>
      <point x="208" y="637"/>
      <point x="226" y="658"/>
      <point x="254" y="658" type="curve" smooth="yes"/>
      <point x="300" y="658"/>
      <point x="320" y="590"/>
      <point x="397" y="590" type="curve" smooth="yes"/>
      <point x="472" y="590"/>
      <point x="521" y="646"/>
      <point x="521" y="732" type="curve"/>
      <point x="437" y="732" type="line"/>
      <point x="437" y="698"/>
      <point x="421" y="676"/>
      <point x="396" y="676" type="curve" smooth="yes"/>
      <point x="340" y="676"/>
      <point x="332" y="743"/>
      <point x="250" y="743" type="curve" smooth="yes"/>
    </contour>
    <contour>
      <point x="196" y="524" type="line"/>
      <point x="71" y="524" type="line"/>
      <point x="71" y="0" type="line"/>
      <point x="221" y="0" type="line"/>
      <point x="221" y="366" type="line"/>
      <point x="246" y="404"/>
      <point x="291" y="427"/>
      <point x="339" y="427" type="curve" smooth="yes"/>
      <point x="392" y="427"/>
      <point x="415" y="401"/>
      <point x="415" y="340" type="curve" smooth="yes"/>
      <point x="415" y="0" type="line"/>
      <point x="565" y="0" type="line"/>
      <point x="565" y="348" type="line" smooth="yes"/>
      <point x="565" y="466"/>
      <point x="503" y="532"/>
      <point x="394" y="532" type="curve" smooth="yes"/>
      <point x="319" y="532"/>
      <point x="258" y="505"/>
      <point x="212" y="451" type="curve"/>
    </contour>
  </outline>
</glyph>
<glyph name="ocircumflex" format="1">
  <advance width="598"/>
  <unicode hex="00F4"/>
  <outline>
    <contour>
      <point x="471" y="617" type="line"/>
      <point x="315" y="758" type="line"/>
      <point x="284" y="758" type="line"/>
      <point x="128" y="617" type="line"/>
      <point x="169" y="567" type="line"/>
      <point x="299" y="654" type="line"/>
      <point x="430" y="567" type="line"/>
    </contour>
    <contour>
      <point x="127" y="536"/>
      <point x="32" y="439"/>
      <point x="32" y="263" type="curve" smooth="yes"/>
      <point x="32" y="87"/>
      <point x="128" y="-11"/>
      <point x="299" y="-11" type="curve" smooth="yes"/>
      <point x="470" y="-11"/>
      <point x="566" y="86"/>
      <point x="566" y="263" type="curve" smooth="yes"/>
      <point x="566" y="439"/>
      <point x="471" y="536"/>
      <point x="299" y="536" type="curve" smooth="yes"/>
    </contour>
    <contour>
      <point x="376" y="424"/>
      <point x="415" y="370"/>
      <point x="415" y="263" type="curve" smooth="yes"/>
      <point x="415" y="155"/>
      <point x="376" y="102"/>
      <point x="299" y="102" type="curve" smooth="yes"/>
      <point x="222" y="102"/>
      <point x="183" y="155"/>
      <point x="183" y="263" type="curve" smooth="yes"/>
      <point x="183" y="370"/>
      <point x="222" y="424"/>
      <point x="299" y="424" type="curve" smooth="yes"/>
    </contour>
  </outline>
</glyph>
<glyph name="Abreve" format="1">
  <advance width="681"/>
  <unicode hex="0102"/>
  <outline>
    <contour>
      <point x="413" y="902" type="line"/>
      <point x="413" y="863"/>
      <point x="384" y="836"/>
      <point x="340" y="836" type="curve" smooth="yes"/>
      <point x="295" y="836"/>
      <point x="268" y="861"/>
      <point x="268" y="902" type="curve"/>
      <point x="183" y="902" type="line"/>
      <point x="183" y="814"/>
      <point x="244" y="757"/>
      <point x="340" y="757" type="curve" smooth="yes"/>
      <point x="436" y="757"/>
      <point x="498" y="814"/>
      <point x="498" y="902" type="curve"/>
    </contour>
    <contour>
      <point x="675" y="0" type="line"/>
      <point x="439" y="709" type="line"/>
      <point x="237" y="709" type="line"/>
      <point x="7" y="0" type="line"/>
      <point x="157" y="0" type="line"/>
      <point x="215" y="182" type="line"/>
      <point x="467" y="182" type="line"/>
      <point x="527" y="0" type="line"/>
    </contour>
    <contour>
      <point x="249" y="295" type="line"/>
      <point x="336" y="578" type="line"/>
      <point x="343" y="578" type="line"/>
      <point x="432" y="295" type="line"/>
    </contour>
  </outline>
</glyph>
<glyph name="abreve" format="1">
  <advance width="556"/>
  <unicode hex="0103"/>
  <outline>
    <contour>
      <point x="351" y="718" type="line"/>
      <point x="351" y="679"/>
      <point x="322" y="652"/>
      <point x="278" y="652" type="curve" smooth="yes"/>
      <point x="233" y="652"/>
      <point x="206" y="677"/>
      <point x="206" y="718" type="curve"/>
      <point x="121" y="718" type="line"/>
      <point x="121" y="630"/>
      <point x="182" y="573"/>
      <point x="278" y="573" type="curve" smooth="yes"/>
      <point x="374" y="573"/>
      <point x="436" y="630"/>
      <point x="436" y="718" type="curve"/>
    </contour>
    <contour>
      <point x="203" y="534"/>
      <point x="124" y="518"/>
      <point x="54" y="490" type="curve"/>
      <point x="86" y="389" type="line"/>
      <point x="134" y="410"/>
      <point x="201" y="425"/>
      <point x="246" y="425" type="curve" smooth="yes"/>
      <point x="312" y="425"/>
      <point x="347" y="395"/>
      <point x="349" y="334" type="curve" smooth="yes"/>
      <point x="349" y="321" type="line"/>
      <point x="285" y="321" type="line" smooth="yes"/>
      <point x="119" y="321"/>
      <point x="23" y="256"/>
      <point x="23" y="147" type="curve" smooth="yes"/>
      <point x="23" y="52"/>
      <point x="91" y="-8"/>
      <point x="199" y="-8" type="curve" smooth="yes"/>
      <point x="260" y="-8"/>
      <point x="316" y="17"/>
      <point x="358" y="62" type="curve"/>
      <point x="375" y="0" type="line"/>
      <point x="499" y="0" type="line"/>
      <point x="499" y="321" type="line" smooth="yes"/>
      <point x="499" y="460"/>
      <point x="418" y="534"/>
      <point x="270" y="534" type="curve" smooth="yes"/>
    </contour>
    <contour>
      <point x="349" y="239" type="line"/>
      <point x="349" y="142" type="line"/>
      <point x="323" y="111"/>
      <point x="281" y="90"/>
      <point x="238" y="90" type="curve" smooth="yes"/>
      <point x="190" y="90"/>
      <point x="163" y="113"/>
      <point x="163" y="156" type="curve" smooth="yes"/>
      <point x="163" y="208"/>
      <point x="213" y="239"/>
      <point x="298" y="239" type="curve" smooth="yes"/>
    </contour>
  </outline>
</glyph>
<glyph name="hcircumflex" format="1">
  <advance width="626"/>
  <unicode hex="0125"/>
  <outline>
    <contour>
      <point x="318" y="814" type="line"/>
      <point x="162" y="955" type="line"/>
      <point x="131" y="955" type="line"/>
      <point x="-25" y="814" type="line"/>
      <point x="16" y="764" type="line"/>
      <point x="146" y="851" type="line"/>
      <point x="277" y="764" type="line"/>
    </contour>
    <contour>
      <point x="222" y="754" type="line"/>
      <point x="72" y="754" type="line"/>
      <point x="72" y="0" type="line"/>
      <point x="222" y="0" type="line"/>
      <point x="222" y="366" type="line"/>
      <point x="247" y="404"/>
      <point x="292" y="427"/>
      <point x="340" y="427" type="curve" smooth="yes"/>
      <point x="393" y="427"/>
      <point x="416" y="401"/>
      <point x="416" y="340" type="curve" smooth="yes"/>
      <point x="416" y="0" type="line"/>
      <point x="566" y="0" type="line"/>
      <point x="566" y="348" type="line" smooth="yes"/>
      <point x="566" y="466"/>
      <point x="505" y="532"/>
      <point x="395" y="532" type="curve" smooth="yes"/>
      <point x="326" y="532"/>
      <point x="266" y="507"/>
      <point x="222" y="460" type="curve"/>
    </contour>
  </outline>
</glyph>
<glyph name="imacron" format="1">
  <advance width="295"/>
  <unicode hex="012B"/>
  <outline>
    <contour>
      <point x="314" y="702" type="line"/>
      <point x="-16" y="702" type="line"/>
      <point x="-16" y="609" type="line"/>
      <point x="314" y="609" type="line"/>
    </contour>
    <contour>
      <point x="222" y="517" type="line"/>
      <point x="73" y="517" type="line"/>
      <point x="73" y="0" type="line"/>
      <point x="222" y="0" type="line"/>
    </contour>
  </outline>
</glyph>
<glyph name="Idotaccent" format="1">
  <advance width="314"/>
  <unicode hex="0130"/>
  <outline>
    <contour>
      <point x="220" y="904" type="line"/>
      <point x="98" y="904" type="line"/>
      <point x="98" y="786" type="line"/>
      <point x="220" y="786" type="line"/>
    </contour>
    <contour>
      <point x="234" y="709" type="line"/>
      <point x="81" y="709" type="line"/>
      <point x="81" y="0" type="line"/>
      <point x="234" y="0" type="line"/>
    </contour>
  </outline>
</glyph>
<glyph name="lcaron" format="1">
  <advance width="402"/>
  <unicode hex="013E"/>
  <outline>
    <contour>
      <point x="421" y="771" type="line"/>
      <point x="314" y="787" type="line"/>
      <point x="311" y="581" type="line"/>
      <point x="375" y="574" type="line"/>
    </contour>
    <contour>
      <point x="224" y="752" type="line"/>
      <point x="74" y="752" type="line"/>
      <point x="74" y="0" type="line"/>
      <point x="224" y="0" type="line"/>
    </contour>
  </outline>
</glyph>
<glyph name="obreve" format="1">
  <advance width="598"/>
  <unicode hex="014F"/>
  <outline>
    <contour>
      <point x="373" y="718" type="line"/>
      <point x="373" y="679"/>
      <point x="344" y="652"/>
      <point x="300" y="652" type="curve" smooth="yes"/>
      <point x="255" y="652"/>
      <point x="228" y="677"/>
      <point x="228" y="718" type="curve"/>
      <point x="143" y="718" type="line"/>
      <point x="143" y="630"/>
      <point x="204" y="573"/>
      <point x="300" y="573" type="curve" smooth="yes"/>
      <point x="396" y="573"/>
      <point x="458" y="630"/>
      <point x="458" y="718" type="curve"/>
    </contour>
    <contour>
      <point x="127" y="536"/>
      <point x="32" y="439"/>
      <point x="32" y="263" type="curve" smooth="yes"/>
      <point x="32" y="87"/>
      <point x="128" y="-11"/>
      <point x="299" y="-11" type="curve" smooth="yes"/>
      <point x="470" y="-11"/>
      <point x="566" y="86"/>
      <point x="566" y="263" type="curve" smooth="yes"/>
      <point x="566" y="439"/>
      <point x="471" y="536"/>
      <point x="299" y="536" type="curve" smooth="yes"/>
    </contour>
    <contour>
      <point x="376" y="424"/>
      <point x="415" y="370"/>
      <point x="415" y="263" type="curve" smooth="yes"/>
      <point x="415" y="155"/>
      <point x="376" y="102"/>
      <point x="299" y="102" type="curve" smooth="yes"/>
      <point x="222" y="102"/>
      <point x="183" y="155"/>
      <point x="183" y="263" type="curve" smooth="yes"/>
      <point x="183" y="370"/>
      <point x="222" y="424"/>
      <point x="299" y="424" type="curve" smooth="yes"/>
    </contour>
  </outline>
</glyph>
<glyph name="Ohungarumlaut" format="1">
  <advance width="753"/>
  <unicode hex="0150"/>
  <outline>
    <contour>
      <point x="359" y="967" type="line"/>
      <point x="234" y="792" type="line"/>
      <point x="286" y="754" type="line"/>
      <point x="442" y="901" type="line"/>
    </contour>
    <contour>
      <point x="538" y="967" type="line"/>
      <point x="412" y="792" type="line"/>
      <point x="464" y="754" type="line"/>
      <point x="621" y="901" type="line"/>
    </contour>
    <contour>
      <point x="156" y="719"/>
      <point x="37" y="590"/>
      <point x="37" y="358" type="curve" smooth="yes"/>
      <point x="37" y="120"/>
      <point x="154" y="-9"/>
      <point x="377" y="-9" type="curve" smooth="yes"/>
      <point x="599" y="-9"/>
      <point x="717" y="121"/>
      <point x="717" y="358" type="curve" smooth="yes"/>
      <point x="717" y="589"/>
      <point x="597" y="719"/>
      <point x="377" y="719" type="curve" smooth="yes"/>
    </contour>
    <contour>
      <point x="498" y="599"/>
      <point x="559" y="514"/>
      <point x="559" y="358" type="curve" smooth="yes"/>
      <point x="559" y="198"/>
      <point x="498" y="111"/>
      <point x="377" y="111" type="curve" smooth="yes"/>
      <point x="256" y="111"/>
      <point x="195" y="197"/>
      <point x="195" y="358" type="curve" smooth="yes"/>
      <point x="195" y="515"/>
      <point x="255" y="599"/>
      <point x="377" y="599" type="curve" smooth="yes"/>
    </contour>
  </outline>
</glyph>
<glyph name="ohungarumlaut" format="1">
  <advance width="598"/>
  <unicode hex="0151"/>
  <outline>
    <contour>
      <point x="282" y="783" type="line"/>
      <point x="157" y="608" type="line"/>
      <point x="209" y="570" type="line"/>
      <point x="365" y="717" type="line"/>
    </contour>
    <contour>
      <point x="461" y="783" type="line"/>
      <point x="335" y="608" type="line"/>
      <point x="387" y="570" type="line"/>
      <point x="544" y="717" type="line"/>
    </contour>
    <contour>
      <point x="127" y="536"/>
      <point x="32" y="439"/>
      <point x="32" y="263" type="curve" smooth="yes"/>
      <point x="32" y="87"/>
      <point x="128" y="-11"/>
      <point x="299" y="-11" type="curve" smooth="yes"/>
      <point x="470" y="-11"/>
      <point x="566" y="86"/>
      <point x="566" y="263" type="curve" smooth="yes"/>
      <point x="566" y="439"/>
      <point x="471" y="536"/>
      <point x="299" y="536" type="curve" smooth="yes"/>
    </contour>
    <contour>
      <point x="376" y="424"/>
      <point x="415" y="370"/>
      <point x="415" y="263" type="curve" smooth="yes"/>
      <point x="415" y="155"/>
      <point x="376" y="102"/>
      <point x="299" y="102" type="curve" smooth="yes"/>
      <point x="222" y="102"/>
      <point x="183" y="155"/>
      <point x="183" y="263" type="curve" smooth="yes"/>
      <point x="183" y="370"/>
      <point x="222" y="424"/>
      <point x="299" y="424" type="curve" smooth="yes"/>
    </contour>
  </outline>
</glyph>
<glyph name="Scaron" format="1">
  <advance width="555"/>
  <unicode hex="0160"/>
  <outline>
    <contour>
      <point x="464" y="899" type="line"/>
      <point x="423" y="949" type="line"/>
      <point x="292" y="862" type="line"/>
      <point x="162" y="949" type="line"/>
      <point x="121" y="899" type="line"/>
      <point x="277" y="758" type="line"/>
      <point x="308" y="758" type="line"/>
    </contour>
    <contour>
      <point x="139" y="718"/>
      <point x="42" y="640"/>
      <point x="42" y="506" type="curve" smooth="yes"/>
      <point x="42" y="401"/>
      <point x="98" y="338"/>
      <point x="225" y="307" type="curve" smooth="yes"/>
      <point x="337" y="279"/>
      <point x="368" y="254"/>
      <point x="368" y="201" type="curve" smooth="yes"/>
      <point x="368" y="145"/>
      <point x="326" y="112"/>
      <point x="253" y="112" type="curve" smooth="yes"/>
      <point x="202" y="112"/>
      <point x="151" y="124"/>
      <point x="63" y="155" type="curve"/>
      <point x="27" y="41" type="line"/>
      <point x="110" y="8"/>
      <point x="181" y="-7"/>
      <point x="254" y="-7" type="curve" smooth="yes"/>
      <point x="428" y="-7"/>
      <point x="524" y="70"/>
      <point x="524" y="208" type="curve" smooth="yes"/>
      <point x="524" y="322"/>
      <point x="470" y="382"/>
      <point x="325" y="420" type="curve" smooth="yes"/>
      <point x="226" y="446"/>
      <point x="197" y="472"/>
      <point x="197" y="522" type="curve" smooth="yes"/>
      <point x="197" y="569"/>
      <point x="239" y="598"/>
      <point x="308" y="598" type="curve" smooth="yes"/>
      <point x="349" y="598"/>
      <point x="409" y="585"/>
      <point x="474" y="562" type="curve"/>
      <point x="505" y="679" type="line"/>
      <point x="429" y="706"/>
      <point x="368" y="718"/>
      <point x="307" y="718" type="curve" smooth="yes"/>
    </contour>
  </outline>
</glyph>
<glyph name="zcaron" format="1">
  <advance width="473"/>
  <unicode hex="017E"/>
  <outline>
    <contour>
      <point x="419" y="715" type="line"/>
      <point x="378" y="765" type="line"/>
      <point x="247" y="678" type="line"/>
      <point x="117" y="765" type="line"/>
      <point x="76" y="715" type="line"/>
      <point x="232" y="574" type="line"/>
      <point x="263" y="574" type="line"/>
    </contour>
    <contour>
      <point x="271" y="413" type="line"/>
      <point x="28" y="93" type="line"/>
      <point x="28" y="0" type="line"/>
      <point x="447" y="0" type="line"/>
      <point x="447" y="111" type="line"/>
      <point x="195" y="111" type="line"/>
      <point x="438" y="434" type="line"/>
      <point x="438" y="524" type="line"/>
      <point x="39" y="524" type="line"/>
      <point x="39" y="413" type="line"/>
    </contour>
  </outline>
</glyph>
<glyph name="Aringacute" format="1">
  <advance width="681"/>
  <unicode hex="01FA"/>
  <outline>
    <contour>
      <point x="416" y="752"/>
      <point x="479" y="813"/>
      <point x="479" y="886" type="curve" smooth="yes"/>
      <point x="479" y="943"/>
      <point x="439" y="993"/>
      <point x="386" y="1012" type="curve"/>
      <point x="444" y="1052" type="line"/>
      <point x="382" y="1119" type="line"/>
      <point x="263" y="996" type="line"/>
      <point x="226" y="971"/>
      <point x="202" y="931"/>
      <point x="202" y="886" type="curve" smooth="yes"/>
      <point x="202" y="813"/>
      <point x="265" y="752"/>
      <point x="341" y="752" type="curve" smooth="yes"/>
    </contour>
    <contour>
      <point x="307" y="827"/>
      <point x="282" y="854"/>
      <point x="282" y="885" type="curve" smooth="yes"/>
      <point x="282" y="918"/>
      <point x="306" y="943"/>
      <point x="341" y="943" type="curve" smooth="yes"/>
      <point x="375" y="943"/>
      <point x="398" y="918"/>
      <point x="398" y="885" type="curve" smooth="yes"/>
      <point x="398" y="854"/>
      <point x="374" y="827"/>
      <point x="341" y="827" type="curve" smooth="yes"/>
    </contour>
    <contour>
      <point x="675" y="0" type="line"/>
      <point x="439" y="709" type="line"/>
      <point x="237" y="709" type="line"/>
      <point x="7" y="0" type="line"/>
      <point x="157" y="0" type="line"/>
      <point x="215" y="182" type="line"/>
      <point x="467" y="182" type="line"/>
      <point x="527" y="0" type="line"/>
    </contour>
    <contour>
      <point x="432" y="295" type="line"/>
      <point x="249" y="295" type="line"/>
      <point x="336" y="578" type="line"/>
      <point x="343" y="578" type="line"/>
    </contour>
  </outline>
</glyph>
<glyph name="aringacute" format="1">
  <advance width="556"/>
  <unicode hex="01FB"/>
  <outline>
    <contour>
      <point x="354" y="568"/>
      <point x="417" y="629"/>
      <point x="417" y="702" type="curve" smooth="yes"/>
      <point x="417" y="759"/>
      <point x="377" y="809"/>
      <point x="324" y="828" type="curve"/>
      <point x="382" y="868" type="line"/>
      <point x="320" y="935" type="line"/>
      <point x="201" y="812" type="line"/>
      <point x="164" y="787"/>
      <point x="140" y="747"/>
      <point x="140" y="702" type="curve" smooth="yes"/>
      <point x="140" y="629"/>
      <point x="203" y="568"/>
      <point x="279" y="568" type="curve" smooth="yes"/>
    </contour>
    <contour>
      <point x="245" y="643"/>
      <point x="220" y="670"/>
      <point x="220" y="701" type="curve" smooth="yes"/>
      <point x="220" y="734"/>
      <point x="244" y="759"/>
      <point x="279" y="759" type="curve" smooth="yes"/>
      <point x="313" y="759"/>
      <point x="336" y="734"/>
      <point x="336" y="701" type="curve" smooth="yes"/>
      <point x="336" y="670"/>
      <point x="312" y="643"/>
      <point x="279" y="643" type="curve" smooth="yes"/>
    </contour>
    <contour>
      <point x="203" y="534"/>
      <point x="124" y="518"/>
      <point x="54" y="490" type="curve"/>
      <point x="86" y="389" type="line"/>
      <point x="134" y="410"/>
      <point x="201" y="425"/>
      <point x="246" y="425" type="curve" smooth="yes"/>
      <point x="312" y="425"/>
      <point x="347" y="395"/>
      <point x="349" y="334" type="curve" smooth="yes"/>
      <point x="349" y="321" type="line"/>
      <point x="285" y="321" type="line" smooth="yes"/>
      <point x="119" y="321"/>
      <point x="23" y="256"/>
      <point x="23" y="147" type="curve" smooth="yes"/>
      <point x="23" y="52"/>
      <point x="91" y="-8"/>
      <point x="199" y="-8" type="curve" smooth="yes"/>
      <point x="260" y="-8"/>
      <point x="316" y="17"/>
      <point x="358" y="62" type="curve"/>
      <point x="375" y="0" type="line"/>
      <point x="499" y="0" type="line"/>
      <point x="499" y="321" type="line" smooth="yes"/>
      <point x="499" y="460"/>
      <point x="418" y="534"/>
      <point x="270" y="534" type="curve" smooth="yes"/>
    </contour>
    <contour>
      <point x="349" y="239" type="line"/>
      <point x="349" y="142" type="line"/>
      <point x="323" y="111"/>
      <point x="281" y="90"/>
      <point x="238" y="90" type="curve" smooth="yes"/>
      <point x="190" y="90"/>
      <point x="163" y="113"/>
      <point x="163" y="156" type="curve" smooth="yes"/>
      <point x="163" y="208"/>
      <point x="213" y="239"/>
      <point x="298" y="239" type="curve" smooth="yes"/>
    </contour>
  </outline>
</glyph>
<glyph name="ogonek" format="1">
  <advance width="297"/>
  <unicode hex="02DB"/>
  <outline>
    <contour>
      <point x="135" y="0" type="line"/>
      <point x="81" y="-22"/>
      <point x="36" y="-77"/>
      <point x="36" y="-131" type="curve" smooth="yes"/>
      <point x="36" y="-195"/>
      <point x="84" y="-225"/>
      <point x="139" y="-225" type="curve" smooth="yes"/>
      <point x="184" y="-225"/>
      <point x="218" y="-214"/>
      <point x="260" y="-192" type="curve"/>
      <point x="241" y="-141" type="line"/>
      <point x="227" y="-148"/>
      <point x="209" y="-152"/>
      <point x="193" y="-152" type="curve" smooth="yes"/>
      <point x="171" y="-152"/>
      <point x="152" y="-139"/>
      <point x="152" y="-111" type="curve" smooth="yes"/>
      <point x="152" y="-66"/>
      <point x="191" y="-30"/>
      <point x="256" y="0" type="curve"/>
    </contour>
  </outline>
</glyph>
<glyph name="Omega" format="1">
  <advance width="781"/>
  <unicode hex="03A9"/>
  <outline>
    <contour>
      <point x="51" y="109" type="line"/>
      <point x="51" y="-2" type="line"/>
      <point x="350" y="-2" type="line"/>
      <point x="350" y="98" type="line"/>
      <point x="262" y="153"/>
      <point x="209" y="261"/>
      <point x="209" y="385" type="curve" smooth="yes"/>
      <point x="209" y="527"/>
      <point x="274" y="606"/>
      <point x="390" y="606" type="curve" smooth="yes"/>
      <point x="507" y="606"/>
      <point x="572" y="527"/>
      <point x="572" y="385" type="curve" smooth="yes"/>
      <point x="572" y="261"/>
      <point x="519" y="153"/>
      <point x="431" y="98" type="curve"/>
      <point x="431" y="-2" type="line"/>
      <point x="730" y="-2" type="line"/>
      <point x="730" y="109" type="line"/>
      <point x="559" y="102" type="line"/>
      <point x="661" y="157"/>
      <point x="722" y="265"/>
      <point x="722" y="398" type="curve" smooth="yes"/>
      <point x="722" y="596"/>
      <point x="596" y="718"/>
      <point x="390" y="718" type="curve" smooth="yes"/>
      <point x="185" y="718"/>
      <point x="59" y="596"/>
      <point x="59" y="398" type="curve" smooth="yes"/>
      <point x="59" y="261"/>
      <point x="119" y="151"/>
      <point x="221" y="97" type="curve"/>
    </contour>
  </outline>
</glyph>
<glyph name="uni0900" format="1">
  <advance width="453"/>
  <unicode hex="0900"/>
  <outline>
    <contour>
      <point x="383" y="976"/>
      <point x="328" y="1023"/>
      <point x="228" y="1023" type="curve" smooth="yes"/>
      <point x="126" y="1023"/>
      <point x="69" y="976"/>
      <point x="40" y="868" type="curve"/>
      <point x="129" y="841" type="line"/>
      <point x="149" y="900"/>
      <point x="181" y="925"/>
      <point x="228" y="925" type="curve" smooth="yes"/>
      <point x="275" y="925"/>
      <point x="307" y="900"/>
      <point x="327" y="841" type="curve"/>
      <point x="413" y="866" type="line"/>
    </contour>
    <contour>
      <point x="189" y="873"/>
      <point x="155" y="839"/>
      <point x="155" y="797" type="curve" smooth="yes"/>
      <point x="155" y="755"/>
      <point x="189" y="721"/>
      <point x="231" y="721" type="curve" smooth="yes"/>
      <point x="273" y="721"/>
      <point x="307" y="755"/>
      <point x="307" y="797" type="curve" smooth="yes"/>
      <point x="307" y="839"/>
      <point x="273" y="873"/>
      <point x="231" y="873" type="curve" smooth="yes"/>
    </contour>
    <contour>
      <point x="227" y="998" type="move" name="top"/>
    </contour>
    <contour>
      <point x="227" y="685" type="move" name="_top"/>
    </contour>
  </outline>
</glyph>
<glyph name="uni0904" format="1">
  <advance width="827"/>
  <unicode hex="0904"/>
  <outline>
    <component base="adeva"/>
    <component base="eshortvowelsigndeva" xOffset="282"/>
    <contour>
      <point x="668" y="685" type="move" name="top"/>
    </contour>
    <contour>
      <point x="668" y="0" type="move" name="bottom"/>
    </contour>
  </outline>
</glyph>
<glyph name="adeva" format="1">
  <advance width="837"/>
  <unicode hex="0905"/>
  <outline>
    <contour>
      <point x="253" y="344" type="line"/>
      <point x="310" y="325"/>
      <point x="357" y="280"/>
      <point x="357" y="223" type="curve" smooth="yes"/>
      <point x="357" y="173"/>
      <point x="319" y="142"/>
      <point x="269" y="142" type="curve" smooth="yes"/>
      <point x="207" y="142"/>
      <point x="154" y="173"/>
      <point x="111" y="231" type="curve"/>
      <point x="16" y="168" type="line"/>
      <point x="85" y="64"/>
      <point x="179" y="22"/>
      <point x="277" y="22" type="curve" smooth="yes"/>
      <point x="407" y="22"/>
      <point x="492" y="93"/>
      <point x="492" y="223" type="curve" smooth="yes"/>
      <point x="492" y="309"/>
      <point x="435" y="369"/>
      <point x="341" y="410" type="curve"/>
    </contour>
    <contour>
      <point x="180" y="685"/>
      <point x="125" y="675"/>
      <point x="75" y="649" type="curve"/>
      <point x="110" y="546" type="line"/>
      <point x="153" y="563"/>
      <point x="178" y="575"/>
      <point x="216" y="575" type="curve" smooth="yes"/>
      <point x="273" y="575"/>
      <point x="296" y="549"/>
      <point x="296" y="512" type="curve" smooth="yes"/>
      <point x="296" y="458"/>
      <point x="257" y="430"/>
      <point x="142" y="406" type="curve"/>
      <point x="172" y="298" type="line"/>
      <point x="376" y="330"/>
      <point x="431" y="419"/>
      <point x="431" y="513" type="curve" smooth="yes"/>
      <point x="431" y="593"/>
      <point x="375" y="685"/>
      <point x="232" y="685" type="curve" smooth="yes"/>
    </contour>
    <contour>
      <point x="293" y="342" type="line"/>
      <point x="342" y="304"/>
      <point x="416" y="281"/>
      <point x="489" y="281" type="curve" smooth="yes"/>
      <point x="550" y="281"/>
      <point x="615" y="292"/>
      <point x="661" y="312" type="curve"/>
      <point x="637" y="416" type="line"/>
      <point x="598" y="395"/>
      <point x="550" y="385"/>
      <point x="489" y="385" type="curve" smooth="yes"/>
      <point x="425" y="385"/>
      <point x="366" y="398"/>
      <point x="321" y="422" type="curve"/>
    </contour>
    <contour>
      <point x="597" y="608" type="line"/>
      <point x="597" y="0" type="line"/>
      <point x="732" y="0" type="line"/>
      <point x="732" y="608" type="line"/>
    </contour>
    <contour>
      <point x="472" y="685" type="line"/>
      <point x="472" y="575" type="line"/>
      <point x="857" y="575" type="line"/>
      <point x="857" y="685" type="line"/>
    </contour>
    <contour>
      <point x="731" y="685" type="move" name="imatra"/>
    </contour>
    <contour>
      <point x="665" y="0" type="move" name="bottom"/>
    </contour>
    <contour>
      <point x="665" y="685" type="move" name="top"/>
    </contour>
  </outline>
</glyph>
<glyph name="udeva" format="1">
  <advance width="539"/>
  <unicode hex="0909"/>
  <outline>
    <contour>
      <point x="253" y="344" type="line"/>
      <point x="310" y="325"/>
      <point x="357" y="280"/>
      <point x="357" y="223" type="curve" smooth="yes"/>
      <point x="357" y="173"/>
      <point x="319" y="142"/>
      <point x="269" y="142" type="curve" smooth="yes"/>
      <point x="207" y="142"/>
      <point x="154" y="173"/>
      <point x="111" y="231" type="curve"/>
      <point x="16" y="168" type="line"/>
      <point x="85" y="64"/>
      <point x="179" y="22"/>
      <point x="277" y="22" type="curve" smooth="yes"/>
      <point x="402" y="22"/>
      <point x="492" y="97"/>
      <point x="492" y="222" type="curve" smooth="yes"/>
      <point x="492" y="307"/>
      <point x="433" y="371"/>
      <point x="341" y="410" type="curve"/>
    </contour>
    <contour>
      <point x="245" y="596" type="line"/>
      <point x="271" y="578"/>
      <point x="296" y="545"/>
      <point x="296" y="512" type="curve" smooth="yes"/>
      <point x="296" y="458"/>
      <point x="257" y="430"/>
      <point x="142" y="406" type="curve"/>
      <point x="172" y="298" type="line"/>
      <point x="376" y="330"/>
      <point x="431" y="419"/>
      <point x="431" y="513" type="curve" smooth="yes"/>
      <point x="431" y="593"/>
      <point x="380" y="634"/>
      <point x="355" y="656" type="curve"/>
    </contour>
    <contour>
      <point x="-20" y="685" type="line"/>
      <point x="-20" y="575" type="line"/>
      <point x="559" y="575" type="line"/>
      <point x="559" y="685" type="line"/>
    </contour>
    <contour>
      <point x="299" y="685" type="move" name="top"/>
    </contour>
    <contour>
      <point x="299" y="0" type="move" name="bottom"/>
    </contour>
  </outline>
</glyph>
<glyph name="uu-deva" format="1">
  <advance width="827"/>
  <unicode hex="090A"/>
  <outline>
    <contour>
      <point x="527" y="454"/>
      <point x="449" y="418"/>
      <point x="396" y="345" type="curve"/>
      <point x="482" y="260" type="line"/>
      <point x="515" y="314"/>
      <point x="565" y="344"/>
      <point x="604" y="344" type="curve" smooth="yes"/>
      <point x="637" y="344"/>
      <point x="661" y="323"/>
      <point x="661" y="284" type="curve" smooth="yes"/>
      <point x="661" y="246"/>
      <point x="633" y="206"/>
      <point x="588" y="184" type="curve"/>
      <point x="667" y="93" type="line"/>
      <point x="753" y="135"/>
      <point x="796" y="217"/>
      <point x="796" y="284" type="curve" smooth="yes"/>
      <point x="796" y="392"/>
      <point x="704" y="454"/>
      <point x="602" y="454" type="curve" smooth="yes"/>
    </contour>
    <contour>
      <point x="455" y="685" type="line"/>
      <point x="455" y="575" type="line"/>
      <point x="857" y="575" type="line"/>
      <point x="857" y="685" type="line"/>
    </contour>
    <component base="u-deva"/>
    <contour>
      <point x="299" y="685" type="move" name="top"/>
    </contour>
    <contour>
      <point x="299" y="0" type="move" name="bottom"/>
    </contour>
  </outline>
</glyph>
<glyph name="rVocalic-deva" format="1">
  <advance width="926"/>
  <unicode hex="090B"/>
  <outline>
    <contour>
      <point x="674" y="522"/>
      <point x="628" y="460"/>
      <point x="628" y="376" type="curve"/>
      <point x="648" y="308"/>
      <point x="673" y="242"/>
      <point x="699" y="195" type="curve"/>
      <point x="833" y="190" type="line"/>
      <point x="814" y="238"/>
      <point x="772" y="322"/>
      <point x="768" y="371" type="curve"/>
      <point x="677" y="429" type="line"/>
      <point x="593" y="386"/>
      <point x="559" y="377"/>
      <point x="473" y="377" type="curve"/>
      <point x="431" y="377"/>
      <point x="407" y="410"/>
      <point x="375" y="442" type="curve" smooth="yes"/>
      <point x="344" y="470"/>
      <point x="305" y="497"/>
      <point x="234" y="497" type="curve"/>
      <point x="164" y="497"/>
      <point x="82" y="451"/>
      <point x="35" y="430" type="curve"/>
      <point x="79" y="330" type="line"/>
      <point x="164" y="374"/>
      <point x="198" y="387"/>
      <point x="234" y="387" type="curve"/>
      <point x="267" y="387"/>
      <point x="290" y="360"/>
      <point x="323" y="333" type="curve" smooth="yes"/>
      <point x="357" y="300"/>
      <point x="400" y="267"/>
      <point x="473" y="267" type="curve"/>
      <point x="652" y="267"/>
      <point x="828" y="355"/>
      <point x="828" y="449" type="curve"/>
      <point x="828" y="492"/>
      <point x="792" y="522"/>
      <point x="739" y="522" type="curve"/>
    </contour>
    <contour>
      <point x="47" y="140" type="line"/>
      <point x="104" y="32" type="line"/>
      <point x="493" y="251" type="line"/>
      <point x="436" y="356" type="line"/>
    </contour>
    <contour>
      <point x="388" y="609" type="line"/>
      <point x="388" y="0" type="line"/>
      <point x="523" y="0" type="line"/>
      <point x="523" y="609" type="line"/>
    </contour>
    <contour>
      <point x="-20" y="685" type="line"/>
      <point x="-20" y="575" type="line"/>
      <point x="946" y="575" type="line"/>
      <point x="946" y="685" type="line"/>
    </contour>
    <component base="rVocalicMatra-deva" xOffset="561" yOffset="259"/>
    <contour>
      <point x="463" y="685" type="move" name="top"/>
    </contour>
    <contour>
      <point x="463" y="0" type="move" name="bottom"/>
    </contour>
  </outline>
</glyph>
<glyph name="eCandra-deva" format="1">
  <advance width="606"/>
  <unicode hex="090D"/>
  <outline>
    <component base="e-deva"/>
    <component base="eCandraMatra-deva" xOffset="264"/>
    <contour>
      <point x="460" y="862" type="move" name="top"/>
    </contour>
    <contour>
      <point x="270" y="0" type="move" name="bottom"/>
    </contour>
  </outline>
</glyph>
<glyph name="edeva" format="1">
  <advance width="606"/>
  <unicode hex="090F"/>
  <outline>
    <contour>
      <point x="67" y="609" type="line"/>
      <point x="67" y="278" type="line" smooth="yes"/>
      <point x="67" y="219"/>
      <point x="96" y="168"/>
      <point x="139" y="144" type="curve" smooth="yes"/>
      <point x="325" y="40" type="line" smooth="yes"/>
      <point x="345" y="27"/>
      <point x="360" y="5"/>
      <point x="360" y="-18" type="curve" smooth="yes"/>
      <point x="360" y="-36"/>
      <point x="348" y="-57"/>
      <point x="325" y="-79" type="curve"/>
      <point x="416" y="-158" type="line"/>
      <point x="471" y="-112"/>
      <point x="500" y="-57"/>
      <point x="500" y="2" type="curve" smooth="yes"/>
      <point x="500" y="56"/>
      <point x="478" y="100"/>
      <point x="429" y="129" type="curve" smooth="yes"/>
      <point x="242" y="239" type="line" smooth="yes"/>
      <point x="215" y="255"/>
      <point x="202" y="280"/>
      <point x="202" y="318" type="curve" smooth="yes"/>
      <point x="202" y="609" type="line"/>
    </contour>
    <contour>
      <point x="410" y="609" type="line"/>
      <point x="410" y="391" type="line" smooth="yes"/>
      <point x="410" y="343"/>
      <point x="383" y="297"/>
      <point x="338" y="270" type="curve"/>
      <point x="423" y="186" type="line"/>
      <point x="506" y="228"/>
      <point x="545" y="287"/>
      <point x="545" y="372" type="curve" smooth="yes"/>
      <point x="545" y="609" type="line"/>
    </contour>
    <contour>
      <point x="-20" y="685" type="line"/>
      <point x="-20" y="575" type="line"/>
      <point x="626" y="575" type="line"/>
      <point x="626" y="685" type="line"/>
    </contour>
    <contour>
      <point x="475" y="685" type="move" name="top"/>
    </contour>
    <contour>
      <point x="330" y="0" type="move" name="bottom"/>
    </contour>
  </outline>
</glyph>
<glyph name="ocandradeva" format="1">
  <advance width="1182"/>
  <unicode hex="0911"/>
  <outline>
    <component base="aadeva"/>
    <component base="ecandravowelsigndeva" xOffset="800"/>
    <contour>
      <point x="1008" y="897" type="move" name="top"/>
    </contour>
    <contour>
      <point x="1008" y="0" type="move" name="bottom"/>
    </contour>
  </outline>
</glyph>
<glyph name="oshortdeva" format="1">
  <advance width="1182"/>
  <unicode hex="0912"/>
  <outline>
    <component base="aadeva"/>
    <component base="eshortvowelsigndeva" xOffset="626"/>
    <contour>
      <point x="1016" y="836" type="move" name="top"/>
    </contour>
    <contour>
      <point x="1016" y="0" type="move" name="bottom"/>
    </contour>
  </outline>
</glyph>
<glyph name="odeva" format="1">
  <advance width="1182"/>
  <unicode hex="0913"/>
  <outline>
    <component base="aadeva"/>
    <component base="evowelsigndeva" xOffset="774"/>
    <contour>
      <point x="1010" y="867" type="move" name="top"/>
    </contour>
    <contour>
      <point x="1010" y="0" type="move" name="bottom"/>
    </contour>
  </outline>
</glyph>
<glyph name="audeva" format="1">
  <advance width="1182"/>
  <unicode hex="0914"/>
  <outline>
    <component base="aadeva"/>
    <component base="aivowelsigndeva" xOffset="614"/>
    <contour>
      <point x="1008" y="685" type="move" name="top"/>
    </contour>
    <contour>
      <point x="1008" y="0" type="move" name="bottom"/>
    </contour>
  </outline>
</glyph>
<glyph name="ka-deva" format="1">
  <advance width="882"/>
  <unicode hex="0915"/>
  <outline>
    <contour>
      <point x="298" y="490"/>
      <point x="277" y="493"/>
      <point x="251" y="493" type="curve" smooth="yes"/>
      <point x="132" y="493"/>
      <point x="35" y="433"/>
      <point x="35" y="298" type="curve" smooth="yes"/>
      <point x="35" y="175"/>
      <point x="112" y="102"/>
      <point x="242" y="102" type="curve" smooth="yes"/>
      <point x="336" y="102"/>
      <point x="397" y="142"/>
      <point x="455" y="238" type="curve"/>
      <point x="381" y="317" type="line"/>
      <point x="350" y="250"/>
      <point x="312" y="212"/>
      <point x="252" y="212" type="curve" smooth="yes"/>
      <point x="200" y="212"/>
      <point x="170" y="244"/>
      <point x="170" y="298" type="curve" smooth="yes"/>
      <point x="170" y="354"/>
      <point x="208" y="383"/>
      <point x="261" y="383" type="curve" smooth="yes"/>
      <point x="281" y="383"/>
      <point x="303" y="380"/>
      <point x="326" y="374" type="curve"/>
      <point x="313" y="485" type="line"/>
    </contour>
    <contour>
      <point x="373" y="610" type="line"/>
      <point x="373" y="0" type="line"/>
      <point x="508" y="0" type="line"/>
      <point x="508" y="610" type="line"/>
    </contour>
    <contour>
      <point x="-30" y="685" type="line"/>
      <point x="-30" y="575" type="line"/>
      <point x="912" y="575" type="line"/>
      <point x="912" y="685" type="line"/>
    </contour>
    <contour>
      <point x="605" y="102"/>
      <point x="628" y="102" type="curve" smooth="yes"/>
      <point x="750" y="102"/>
      <point x="847" y="162"/>
      <point x="847" y="297" type="curve" smooth="yes"/>
      <point x="847" y="420"/>
      <point x="770" y="493"/>
      <point x="640" y="493" type="curve" smooth="yes"/>
      <point x="546" y="493"/>
      <point x="485" y="453"/>
      <point x="427" y="357" type="curve"/>
      <point x="501" y="278" type="line"/>
      <point x="532" y="345"/>
      <point x="570" y="383"/>
      <point x="630" y="383" type="curve" smooth="yes"/>
      <point x="682" y="383"/>
      <point x="712" y="351"/>
      <point x="712" y="297" type="curve" smooth="yes"/>
      <point x="712" y="241"/>
      <point x="674" y="212"/>
      <point x="621" y="212" type="curve" smooth="yes"/>
      <point x="601" y="212"/>
      <point x="579" y="216"/>
      <point x="556" y="221" type="curve"/>
      <point x="569" y="110" type="line"/>
      <point x="584" y="105"/>
    </contour>
    <contour>
      <point x="232" y="-10" type="move" name="nukta"/>
    </contour>
    <contour>
      <point x="441" y="0" type="move" name="bottom"/>
    </contour>
    <contour>
      <point x="441" y="685" type="move" name="top"/>
    </contour>
  </outline>
</glyph>
<glyph name="kadeva" format="1">
  <advance width="898"/>
  <unicode hex="0915"/>
  <outline>
    <contour>
      <point x="125" y="493"/>
      <point x="43" y="421"/>
      <point x="43" y="298" type="curve" smooth="yes"/>
      <point x="43" y="175"/>
      <point x="120" y="102"/>
      <point x="250" y="102" type="curve" smooth="yes"/>
      <point x="344" y="102"/>
      <point x="405" y="148"/>
      <point x="463" y="258" type="curve"/>
      <point x="389" y="317" type="line"/>
      <point x="358" y="250"/>
      <point x="320" y="212"/>
      <point x="260" y="212" type="curve" smooth="yes"/>
      <point x="208" y="212"/>
      <point x="178" y="244"/>
      <point x="178" y="298" type="curve" smooth="yes"/>
      <point x="178" y="351"/>
      <point x="213" y="383"/>
      <point x="271" y="383" type="curve" smooth="yes"/>
      <point x="279" y="383"/>
      <point x="288" y="382"/>
      <point x="297" y="381" type="curve"/>
      <point x="284" y="492" type="line"/>
      <point x="277" y="493"/>
      <point x="270" y="493"/>
      <point x="263" y="493" type="curve" smooth="yes"/>
    </contour>
    <contour>
      <point x="381" y="610" type="line"/>
      <point x="381" y="0" type="line"/>
      <point x="516" y="0" type="line"/>
      <point x="516" y="610" type="line"/>
    </contour>
    <contour>
      <point x="555" y="493"/>
      <point x="494" y="448"/>
      <point x="435" y="337" type="curve"/>
      <point x="509" y="278" type="line"/>
      <point x="543" y="351"/>
      <point x="582" y="383"/>
      <point x="638" y="383" type="curve" smooth="yes"/>
      <point x="690" y="383"/>
      <point x="720" y="351"/>
      <point x="720" y="297" type="curve" smooth="yes"/>
      <point x="720" y="244"/>
      <point x="685" y="212"/>
      <point x="627" y="212" type="curve" smooth="yes"/>
      <point x="619" y="212"/>
      <point x="609" y="213"/>
      <point x="599" y="215" type="curve"/>
      <point x="609" y="103" type="line"/>
      <point x="618" y="103"/>
      <point x="626" y="102"/>
      <point x="635" y="102" type="curve" smooth="yes"/>
      <point x="773" y="102"/>
      <point x="855" y="174"/>
      <point x="855" y="297" type="curve" smooth="yes"/>
      <point x="855" y="420"/>
      <point x="778" y="493"/>
      <point x="648" y="493" type="curve" smooth="yes"/>
    </contour>
    <contour>
      <point x="-20" y="685" type="line"/>
      <point x="-20" y="575" type="line"/>
      <point x="918" y="575" type="line"/>
      <point x="918" y="685" type="line"/>
    </contour>
    <contour>
      <point x="240" y="-10" type="move" name="nukta"/>
    </contour>
    <contour>
      <point x="449" y="0" type="move" name="bottom"/>
    </contour>
    <contour>
      <point x="449" y="685" type="move" name="top"/>
    </contour>
  </outline>
</glyph>
<glyph name="chadeva" format="1">
  <advance width="748"/>
  <unicode hex="091B"/>
  <outline>
    <contour>
      <point x="474" y="611" type="line"/>
      <point x="474" y="493" type="line"/>
      <point x="599" y="493" type="line"/>
      <point x="599" y="611" type="line"/>
    </contour>
    <component base="uni091B094D" xOffset="-1"/>
    <contour>
      <point x="534" y="685" type="move" name="top"/>
    </contour>
    <contour>
      <point x="372" y="0" type="move" name="bottom"/>
    </contour>
  </outline>
</glyph>
<glyph name="nya-deva" format="1">
  <advance width="829"/>
  <unicode hex="091E"/>
  <outline>
    <component base="ny-deva"/>
    <component base="aaMatra-deva" xOffset="484"/>
    <contour>
      <point x="209" y="-20" type="move" name="nukta"/>
    </contour>
    <contour>
      <point x="570" y="0" type="move" name="bottom"/>
    </contour>
    <contour>
      <point x="570" y="685" type="move" name="top"/>
    </contour>
  </outline>
</glyph>
<glyph name="nyadeva" format="1">
  <advance width="742"/>
  <unicode hex="091E"/>
  <outline>
    <component base="uni091E094D"/>
    <component base="uni093E" xOffset="397"/>
    <contour>
      <point x="209" y="-20" type="move" name="nukta"/>
    </contour>
    <contour>
      <point x="570" y="0" type="move" name="bottom"/>
    </contour>
    <contour>
      <point x="570" y="685" type="move" name="top"/>
    </contour>
  </outline>
</glyph>
<glyph name="ta-deva" format="1">
  <advance width="647"/>
  <unicode hex="0924"/>
  <outline>
    <component base="t-deva"/>
    <component base="aaMatra-deva" xOffset="302"/>
    <contour>
      <point x="483" y="685" type="move" name="top"/>
    </contour>
    <contour>
      <point x="483" y="0" type="move" name="bottom"/>
    </contour>
  </outline>
</glyph>
<glyph name="dha-deva" format="1">
  <advance width="825"/>
  <unicode hex="0927"/>
  <outline>
    <component base="dh-deva"/>
    <component base="aaMatra-deva" xOffset="480"/>
    <contour>
      <point x="534" y="685" type="move" name="top"/>
    </contour>
    <contour>
      <point x="534" y="0" type="move" name="bottom"/>
    </contour>
  </outline>
</glyph>
<glyph name="bha-deva" format="1">
  <advance width="798"/>
  <unicode hex="092D"/>
  <outline>
    <component base="bh-deva"/>
    <component base="aaMatra-deva" xOffset="453"/>
    <contour>
      <point x="510" y="685" type="move" name="top"/>
    </contour>
    <contour>
      <point x="510" y="0" type="move" name="bottom"/>
    </contour>
  </outline>
</glyph>
<glyph name="ma-deva" format="1">
  <advance width="684"/>
  <unicode hex="092E"/>
  <outline>
    <component base="m-deva"/>
    <component base="aaMatra-deva" xOffset="339"/>
    <contour>
      <point x="512" y="685" type="move" name="top"/>
    </contour>
    <contour>
      <point x="512" y="0" type="move" name="bottom"/>
    </contour>
  </outline>
</glyph>
<glyph name="uni092F" format="1">
  <advance width="695"/>
  <unicode hex="092F"/>
  <outline>
    <component base="uni092F094D"/>
    <component base="uni093E" xOffset="350"/>
    <contour>
      <point x="163" y="-7" type="move" name="nukta"/>
    </contour>
    <contour>
      <point x="523" y="0" type="move" name="bottom"/>
    </contour>
    <contour>
      <point x="523" y="685" type="move" name="top"/>
    </contour>
  </outline>
</glyph>
<glyph name="llladeva" format="1">
  <advance width="868"/>
  <unicode hex="0934"/>
  <outline>
    <component base="lladeva"/>
    <component base="nuktadeva" xOffset="307" yOffset="88"/>
    <contour>
      <point x="604" y="685" type="move" name="top"/>
    </contour>
    <contour>
      <point x="452" y="0" type="move" name="bottom"/>
    </contour>
  </outline>
</glyph>
<glyph name="va-deva" format="1">
  <advance width="650"/>
  <unicode hex="0935"/>
  <outline>
    <component base="v-deva"/>
    <component base="aaMatra-deva" xOffset="305"/>
    <contour>
      <point x="478" y="685" type="move" name="top"/>
    </contour>
    <contour>
      <point x="478" y="0" type="move" name="bottom"/>
    </contour>
  </outline>
</glyph>
<glyph name="hadeva" format="1">
  <advance width="560"/>
  <unicode hex="0939"/>
  <outline>
    <contour>
      <point x="165" y="310"/>
      <point x="76" y="235"/>
      <point x="76" y="122" type="curve" smooth="yes"/>
      <point x="76" y="-10"/>
      <point x="176" y="-90"/>
      <point x="373" y="-114" type="curve"/>
      <point x="386" y="-8" type="line"/>
      <point x="271" y="8"/>
      <point x="211" y="51"/>
      <point x="211" y="122" type="curve" smooth="yes"/>
      <point x="211" y="167"/>
      <point x="246" y="200"/>
      <point x="300" y="200" type="curve" smooth="yes"/>
      <point x="332" y="200"/>
      <point x="360" y="184"/>
      <point x="360" y="161" type="curve" smooth="yes"/>
      <point x="360" y="142"/>
      <point x="351" y="125"/>
      <point x="325" y="98" type="curve"/>
      <point x="394" y="22" type="line"/>
      <point x="466" y="61"/>
      <point x="495" y="109"/>
      <point x="495" y="169" type="curve" smooth="yes"/>
      <point x="495" y="254"/>
      <point x="418" y="310"/>
      <point x="300" y="310" type="curve" smooth="yes"/>
    </contour>
    <contour>
      <point x="187" y="493" type="line" smooth="yes"/>
      <point x="109" y="493"/>
      <point x="62" y="455"/>
      <point x="62" y="386" type="curve" smooth="yes"/>
      <point x="62" y="322"/>
      <point x="96" y="258"/>
      <point x="158" y="207" type="curve"/>
      <point x="272" y="258" type="line"/>
      <point x="242" y="281"/>
      <point x="206" y="315"/>
      <point x="206" y="349" type="curve" smooth="yes"/>
      <point x="206" y="370"/>
      <point x="218" y="383"/>
      <point x="242" y="383" type="curve" smooth="yes"/>
      <point x="489" y="383" type="line"/>
      <point x="385" y="493" type="line"/>
    </contour>
    <contour>
      <point x="-20" y="685" type="line"/>
      <point x="-20" y="575" type="line"/>
      <point x="580" y="575" type="line"/>
      <point x="580" y="685" type="line"/>
    </contour>
    <contour>
      <point x="354" y="599" type="line"/>
      <point x="354" y="415" type="line"/>
      <point x="489" y="383" type="line"/>
      <point x="489" y="599" type="line"/>
    </contour>
    <contour>
      <point x="429" y="685" type="move" name="top"/>
    </contour>
    <contour>
      <point x="280" y="-85" type="move" name="bottom"/>
    </contour>
  </outline>
</glyph>
<glyph name="ooeMatra-deva" format="1">
  <advance width="345"/>
  <unicode hex="093B"/>
  <outline>
    <contour>
      <point x="105" y="805" type="line"/>
      <point x="105" y="0" type="line"/>
      <point x="240" y="0" type="line"/>
      <point x="240" y="805" type="line"/>
    </contour>
    <contour>
      <point x="-20" y="685" type="line"/>
      <point x="-20" y="575" type="line"/>
      <point x="365" y="575" type="line"/>
      <point x="365" y="685" type="line"/>
    </contour>
    <contour>
      <point x="173" y="805" type="move" name="top"/>
    </contour>
    <contour>
      <point x="173" y="0" type="move" name="bottom"/>
    </contour>
  </outline>
</glyph>
<glyph name="uni093F" format="1">
  <advance width="323"/>
  <unicode hex="093F"/>
  <outline>
    <contour>
      <point x="161" y="972"/>
      <point x="69" y="901"/>
      <point x="69" y="791" type="curve" smooth="yes"/>
      <point x="69" y="748"/>
      <point x="81" y="699"/>
      <point x="105" y="648" type="curve"/>
      <point x="239" y="648" type="line"/>
      <point x="214" y="687"/>
      <point x="204" y="726"/>
      <point x="204" y="775" type="curve" smooth="yes"/>
      <point x="204" y="828"/>
      <point x="245" y="857"/>
      <point x="324" y="857" type="curve" smooth="yes"/>
      <point x="404" y="857"/>
      <point x="475" y="828"/>
      <point x="571" y="738" type="curve"/>
      <point x="671" y="802" type="line"/>
      <point x="545" y="923"/>
      <point x="448" y="972"/>
      <point x="316" y="972" type="curve" smooth="yes"/>
    </contour>
    <contour>
      <point x="94" y="608" type="line"/>
      <point x="94" y="0" type="line"/>
      <point x="229" y="0" type="line"/>
      <point x="229" y="608" type="line"/>
    </contour>
    <contour>
      <point x="-31" y="685" type="line"/>
      <point x="-31" y="575" type="line"/>
      <point x="354" y="575" type="line"/>
      <point x="354" y="685" type="line"/>
    </contour>
    <contour>
      <point x="671" y="802" type="move" name="imatra"/>
    </contour>
    <contour>
      <point x="161" y="0" type="move" name="bottom"/>
    </contour>
    <contour>
      <point x="671" y="852" type="move" name="top"/>
    </contour>
  </outline>
</glyph>
<glyph name="uni0940" format="1">
  <advance width="345"/>
  <unicode hex="0940"/>
  <outline>
    <contour>
      <point x="-272" y="972"/>
      <point x="-347" y="927"/>
      <point x="-347" y="837" type="curve" smooth="yes"/>
      <point x="-347" y="804"/>
      <point x="-330" y="762"/>
      <point x="-313" y="737" type="curve"/>
      <point x="-206" y="768" type="line"/>
      <point x="-213" y="784"/>
      <point x="-218" y="797"/>
      <point x="-218" y="812" type="curve" smooth="yes"/>
      <point x="-218" y="831"/>
      <point x="-208" y="858"/>
      <point x="-158" y="858" type="curve" smooth="yes"/>
      <point x="-100" y="858"/>
      <point x="-50" y="844"/>
      <point x="-6" y="815" type="curve" smooth="yes"/>
      <point x="54" y="776"/>
      <point x="99" y="713"/>
      <point x="123" y="648" type="curve"/>
      <point x="252" y="648" type="line"/>
      <point x="223" y="737"/>
      <point x="162" y="845"/>
      <point x="50" y="911" type="curve" smooth="yes"/>
      <point x="-12" y="948"/>
      <point x="-70" y="972"/>
      <point x="-182" y="972" type="curve" smooth="yes"/>
    </contour>
    <component base="uni093E"/>
    <contour>
      <point x="224" y="685" type="move" name="imatra"/>
    </contour>
    <contour>
      <point x="173" y="0" type="move" name="bottom"/>
    </contour>
    <contour>
      <point x="240" y="879" type="move" name="top"/>
    </contour>
  </outline>
</glyph>
<glyph name="uMatra-deva" format="1">
  <advance width="391"/>
  <unicode hex="0941"/>
  <outline>
    <contour>
      <point x="188" y="44"/>
      <point x="144" y="30"/>
      <point x="114" y="1" type="curve"/>
      <point x="181" y="-77" type="line"/>
      <point x="203" y="-60"/>
      <point x="225" y="-53"/>
      <point x="241" y="-53" type="curve" smooth="yes"/>
      <point x="261" y="-53"/>
      <point x="275" y="-61"/>
      <point x="275" y="-82" type="curve" smooth="yes"/>
      <point x="275" y="-107"/>
      <point x="249" y="-123"/>
      <point x="209" y="-123" type="curve" smooth="yes"/>
      <point x="165" y="-123"/>
      <point x="125" y="-104"/>
      <point x="93" y="-74" type="curve"/>
      <point x="34" y="-140" type="line"/>
      <point x="85" y="-190"/>
      <point x="156" y="-219"/>
      <point x="225" y="-219" type="curve" smooth="yes"/>
      <point x="320" y="-219"/>
      <point x="381" y="-166"/>
      <point x="381" y="-84" type="curve" smooth="yes"/>
      <point x="381" y="-6"/>
      <point x="312" y="44"/>
      <point x="232" y="44" type="curve" smooth="yes"/>
    </contour>
    <contour>
      <point x="254" y="0" type="move" name="_bottom"/>
    </contour>
  </outline>
</glyph>
<glyph name="uuMatra-deva" format="1">
  <advance width="574"/>
  <unicode hex="0942"/>
  <outline>
    <component base="uMatra-deva" xOffset="574" yOffset="-223" xScale="-1" yScale="-1"/>
    <contour>
      <point x="268" y="0" type="move" name="_bottom"/>
    </contour>
  </outline>
</glyph>
<glyph name="ovowelsigndeva" format="1">
  <advance width="345"/>
  <unicode hex="094B"/>
  <outline>
    <component base="uni093E"/>
    <component base="evowelsigndeva" xOffset="-64"/>
    <contour>
      <point x="169" y="685" type="move" name="imatra"/>
    </contour>
    <contour>
      <point x="257" y="755" type="move" name="top"/>
    </contour>
  </outline>
</glyph>
<glyph name="omdeva" format="1">
  <advance width="1007"/>
  <unicode hex="0950"/>
  <outline>
    <contour>
      <point x="573" y="229" type="line"/>
      <point x="614" y="160"/>
      <point x="674" y="127"/>
      <point x="760" y="127" type="curve" smooth="yes"/>
      <point x="887" y="127"/>
      <point x="966" y="201"/>
      <point x="966" y="319" type="curve" smooth="yes"/>
      <point x="966" y="430"/>
      <point x="885" y="503"/>
      <point x="755" y="503" type="curve" smooth="yes"/>
      <point x="603" y="503"/>
      <point x="549" y="372"/>
      <point x="472" y="372" type="curve" smooth="yes"/>
      <point x="440" y="372"/>
      <point x="401" y="394"/>
      <point x="335" y="440" type="curve"/>
      <point x="273" y="362" type="line"/>
      <point x="362" y="299"/>
      <point x="416" y="267"/>
      <point x="478" y="267" type="curve" smooth="yes"/>
      <point x="622" y="267"/>
      <point x="668" y="393"/>
      <point x="755" y="393" type="curve" smooth="yes"/>
      <point x="801" y="393"/>
      <point x="831" y="363"/>
      <point x="831" y="319" type="curve" smooth="yes"/>
      <point x="831" y="269"/>
      <point x="803" y="237"/>
      <point x="760" y="237" type="curve" smooth="yes"/>
      <point x="721" y="237"/>
      <point x="693" y="255"/>
      <point x="656" y="297" type="curve"/>
    </contour>
    <contour>
      <point x="253" y="344" type="line"/>
      <point x="310" y="325"/>
      <point x="357" y="280"/>
      <point x="357" y="223" type="curve" smooth="yes"/>
      <point x="357" y="173"/>
      <point x="319" y="142"/>
      <point x="269" y="142" type="curve" smooth="yes"/>
      <point x="207" y="142"/>
      <point x="154" y="173"/>
      <point x="111" y="231" type="curve"/>
      <point x="16" y="168" type="line"/>
      <point x="85" y="64"/>
      <point x="179" y="22"/>
      <point x="277" y="22" type="curve" smooth="yes"/>
      <point x="407" y="22"/>
      <point x="492" y="93"/>
      <point x="492" y="223" type="curve" smooth="yes"/>
      <point x="492" y="309"/>
      <point x="435" y="369"/>
      <point x="341" y="410" type="curve"/>
    </contour>
    <contour>
      <point x="180" y="685"/>
      <point x="125" y="675"/>
      <point x="75" y="649" type="curve"/>
      <point x="110" y="546" type="line"/>
      <point x="153" y="563"/>
      <point x="178" y="575"/>
      <point x="216" y="575" type="curve" smooth="yes"/>
      <point x="273" y="575"/>
      <point x="296" y="549"/>
      <point x="296" y="512" type="curve" smooth="yes"/>
      <point x="296" y="458"/>
      <point x="257" y="430"/>
      <point x="142" y="406" type="curve"/>
      <point x="172" y="298" type="line"/>
      <point x="376" y="330"/>
      <point x="431" y="419"/>
      <point x="431" y="513" type="curve" smooth="yes"/>
      <point x="431" y="593"/>
      <point x="375" y="685"/>
      <point x="232" y="685" type="curve" smooth="yes"/>
    </contour>
    <component base="candrabindudeva" xOffset="422" yOffset="-202"/>
    <contour>
      <point x="-1" y="0" type="move" name="bottom"/>
    </contour>
  </outline>
</glyph>
<glyph name="udattadeva" format="1">
  <advance width="165"/>
  <unicode hex="0951"/>
  <outline>
    <contour>
      <point x="20" y="980" type="line"/>
      <point x="20" y="709" type="line"/>
      <point x="145" y="709" type="line"/>
      <point x="145" y="980" type="line"/>
    </contour>
    <contour>
      <point x="83" y="685" type="move" name="_top"/>
    </contour>
  </outline>
</glyph>
<glyph name="khhadeva" format="1">
  <advance width="975"/>
  <unicode hex="0959"/>
  <outline>
    <component base="khadeva"/>
    <component base="nuktadeva" xOffset="75" yOffset="38"/>
    <contour>
      <point x="804" y="685" type="move" name="top"/>
    </contour>
    <contour>
      <point x="804" y="0" type="move" name="bottom"/>
    </contour>
  </outline>
</glyph>
<glyph name="rhadeva" format="1">
  <advance width="600"/>
  <unicode hex="095D"/>
  <outline>
    <component base="ddhadeva"/>
    <component base="nuktadeva" xOffset="190"/>
    <contour>
      <point x="412" y="685" type="move" name="top"/>
    </contour>
    <contour>
      <point x="300" y="0" type="move" name="bottom"/>
    </contour>
  </outline>
</glyph>
<glyph name="fadeva" format="1">
  <advance width="898"/>
  <unicode hex="095E"/>
  <outline>
    <component base="uni092B"/>
    <component base="nuktadeva" xOffset="106" yOffset="161"/>
    <contour>
      <point x="449" y="685" type="move" name="top"/>
    </contour>
    <contour>
      <point x="449" y="0" type="move" name="bottom"/>
    </contour>
  </outline>
</glyph>
<glyph name="yya-deva" format="1">
  <advance width="695"/>
  <unicode hex="095F"/>
  <outline>
    <component base="ya-deva"/>
    <component base="nukta-deva" xOffset="36" yOffset="111"/>
    <contour>
      <point x="525" y="685" type="move" name="top"/>
    </contour>
    <contour>
      <point x="525" y="0" type="move" name="bottom"/>
    </contour>
  </outline>
</glyph>
<glyph name="rrvocalicdeva" format="1">
  <advance width="913"/>
  <unicode hex="0960"/>
  <outline>
    <contour>
      <point x="674" y="522"/>
      <point x="628" y="460"/>
      <point x="628" y="371" type="curve"/>
      <point x="628" y="308"/>
      <point x="673" y="225"/>
      <point x="723" y="195" type="curve"/>
      <point x="819" y="260" type="line"/>
      <point x="786" y="289"/>
      <point x="768" y="329"/>
      <point x="768" y="371" type="curve"/>
      <point x="677" y="429" type="line"/>
      <point x="593" y="386"/>
      <point x="559" y="377"/>
      <point x="473" y="377" type="curve"/>
      <point x="431" y="377"/>
      <point x="407" y="410"/>
      <point x="375" y="442" type="curve" smooth="yes"/>
      <point x="344" y="470"/>
      <point x="305" y="497"/>
      <point x="234" y="497" type="curve"/>
      <point x="164" y="497"/>
      <point x="82" y="451"/>
      <point x="35" y="430" type="curve"/>
      <point x="79" y="330" type="line"/>
      <point x="164" y="374"/>
      <point x="198" y="387"/>
      <point x="234" y="387" type="curve"/>
      <point x="267" y="387"/>
      <point x="290" y="360"/>
      <point x="323" y="333" type="curve" smooth="yes"/>
      <point x="357" y="300"/>
      <point x="400" y="267"/>
      <point x="473" y="267" type="curve"/>
      <point x="652" y="267"/>
      <point x="828" y="355"/>
      <point x="828" y="449" type="curve"/>
      <point x="828" y="492"/>
      <point x="792" y="522"/>
      <point x="739" y="522" type="curve"/>
    </contour>
    <contour>
      <point x="47" y="140" type="line"/>
      <point x="104" y="32" type="line"/>
      <point x="493" y="251" type="line"/>
      <point x="436" y="356" type="line"/>
    </contour>
    <contour>
      <point x="388" y="609" type="line"/>
      <point x="388" y="0" type="line"/>
      <point x="523" y="0" type="line"/>
      <point x="523" y="609" type="line"/>
    </contour>
    <contour>
      <point x="-20" y="685" type="line"/>
      <point x="-20" y="575" type="line"/>
      <point x="933" y="575" type="line"/>
      <point x="933" y="685" type="line"/>
    </contour>
    <component base="rrvocalicvowelsigndeva" xOffset="553" yOffset="245"/>
    <contour>
      <point x="460" y="685" type="move" name="top"/>
    </contour>
    <contour>
      <point x="460" y="0" type="move" name="bottom"/>
    </contour>
  </outline>
</glyph>
<glyph name="zerodeva" format="1">
  <advance width="570"/>
  <unicode hex="0966"/>
  <outline>
    <contour>
      <point x="431" y="92"/>
      <point x="534" y="193"/>
      <point x="534" y="336" type="curve" smooth="yes"/>
      <point x="534" y="479"/>
      <point x="431" y="580"/>
      <point x="285" y="580" type="curve" smooth="yes"/>
      <point x="139" y="580"/>
      <point x="35" y="479"/>
      <point x="35" y="336" type="curve" smooth="yes"/>
      <point x="35" y="193"/>
      <point x="139" y="92"/>
      <point x="285" y="92" type="curve" smooth="yes"/>
    </contour>
    <contour>
      <point x="218" y="215"/>
      <point x="170" y="265"/>
      <point x="170" y="336" type="curve" smooth="yes"/>
      <point x="170" y="407"/>
      <point x="218" y="457"/>
      <point x="285" y="457" type="curve" smooth="yes"/>
      <point x="352" y="457"/>
      <point x="399" y="407"/>
      <point x="399" y="336" type="curve" smooth="yes"/>
      <point x="399" y="265"/>
      <point x="352" y="215"/>
      <point x="285" y="215" type="curve" smooth="yes"/>
    </contour>
  </outline>
</glyph>
<glyph name="threedeva" format="1">
  <advance width="570"/>
  <unicode hex="0969"/>
  <outline>
    <contour>
      <point x="193" y="685"/>
      <point x="127" y="670"/>
      <point x="67" y="642" type="curve"/>
      <point x="104" y="540" type="line"/>
      <point x="158" y="559"/>
      <point x="216" y="575"/>
      <point x="262" y="575" type="curve" smooth="yes"/>
      <point x="305" y="575"/>
      <point x="339" y="564"/>
      <point x="339" y="530" type="curve"/>
      <point x="339" y="480"/>
      <point x="268" y="446"/>
      <point x="143" y="434" type="curve"/>
      <point x="169" y="328" type="line"/>
      <point x="359" y="336"/>
      <point x="473" y="404"/>
      <point x="473" y="526" type="curve"/>
      <point x="473" y="626"/>
      <point x="387" y="685"/>
      <point x="256" y="685" type="curve" smooth="yes"/>
    </contour>
    <contour>
      <point x="84" y="272"/>
      <point x="48" y="238"/>
      <point x="48" y="189" type="curve" smooth="yes"/>
      <point x="48" y="117"/>
      <point x="104" y="84"/>
      <point x="227" y="84" type="curve" smooth="yes"/>
      <point x="237" y="84"/>
      <point x="252" y="86"/>
      <point x="266" y="89" type="curve"/>
      <point x="274" y="171" type="line"/>
      <point x="215" y="252"/>
      <point x="187" y="272"/>
      <point x="137" y="272" type="curve" smooth="yes"/>
    </contour>
    <contour>
      <point x="191" y="86" type="line"/>
      <point x="337" y="-71" type="line"/>
      <point x="429" y="3" type="line"/>
      <point x="283" y="160" type="line"/>
    </contour>
    <contour>
      <point x="265" y="378" type="line"/>
      <point x="331" y="357"/>
      <point x="364" y="321"/>
      <point x="364" y="274" type="curve"/>
      <point x="364" y="226"/>
      <point x="318" y="196"/>
      <point x="244" y="196" type="curve"/>
      <point x="244" y="86" type="line"/>
      <point x="407" y="86"/>
      <point x="498" y="153"/>
      <point x="498" y="274" type="curve"/>
      <point x="498" y="359"/>
      <point x="443" y="426"/>
      <point x="338" y="468" type="curve"/>
    </contour>
  </outline>
</glyph>
<glyph name="six-deva" format="1">
  <advance width="570"/>
  <unicode hex="096C"/>
  <outline>
    <contour>
      <point x="169" y="684"/>
      <point x="76" y="628"/>
      <point x="76" y="526" type="curve"/>
      <point x="76" y="403"/>
      <point x="180" y="341"/>
      <point x="377" y="338" type="curve" smooth="yes"/>
      <point x="424" y="337" type="line"/>
      <point x="408" y="447" type="line"/>
      <point x="385" y="447" type="line" smooth="yes"/>
      <point x="243" y="449"/>
      <point x="210" y="472"/>
      <point x="210" y="526" type="curve"/>
      <point x="210" y="555"/>
      <point x="236" y="575"/>
      <point x="289" y="575" type="curve" smooth="yes"/>
      <point x="318" y="575"/>
      <point x="357" y="569"/>
      <point x="404" y="553" type="curve"/>
      <point x="446" y="657" type="line"/>
      <point x="393" y="675"/>
      <point x="340" y="684"/>
      <point x="291" y="684" type="curve" smooth="yes"/>
    </contour>
    <contour>
      <point x="142" y="417"/>
      <point x="86" y="349"/>
      <point x="86" y="257" type="curve"/>
      <point x="86" y="138"/>
      <point x="188" y="70"/>
      <point x="325" y="70" type="curve" smooth="yes"/>
      <point x="357" y="70"/>
      <point x="391" y="74"/>
      <point x="425" y="81" type="curve"/>
      <point x="397" y="189" type="line"/>
      <point x="368" y="182"/>
      <point x="343" y="180"/>
      <point x="322" y="180" type="curve" smooth="yes"/>
      <point x="253" y="180"/>
      <point x="220" y="209"/>
      <point x="220" y="257" type="curve"/>
      <point x="220" y="304"/>
      <point x="244" y="335"/>
      <point x="296" y="355" type="curve"/>
      <point x="248" y="447" type="line"/>
    </contour>
    <contour>
      <point x="348" y="263"/>
      <point x="311" y="234"/>
      <point x="311" y="179" type="curve" smooth="yes"/>
      <point x="311" y="144"/>
      <point x="326" y="105"/>
      <point x="342" y="83" type="curve" smooth="yes"/>
      <point x="483" y="-119" type="line"/>
      <point x="578" y="-35" type="line"/>
      <point x="466" y="116" type="line"/>
      <point x="451" y="85" type="line"/>
      <point x="496" y="85"/>
      <point x="534" y="112"/>
      <point x="534" y="160" type="curve" smooth="yes"/>
      <point x="534" y="221"/>
      <point x="468" y="263"/>
      <point x="415" y="263" type="curve" smooth="yes"/>
    </contour>
  </outline>
</glyph>
<glyph name="ninedeva" format="1">
  <advance width="570"/>
  <unicode hex="096F"/>
  <outline>
    <contour>
      <point x="483" y="-16" type="line"/>
      <point x="495" y="7"/>
      <point x="502" y="31"/>
      <point x="504" y="55" type="curve" smooth="yes"/>
      <point x="504" y="112"/>
      <point x="488" y="142"/>
      <point x="419" y="213" type="curve" smooth="yes"/>
      <point x="258" y="380" type="line" smooth="yes"/>
      <point x="213" y="426"/>
      <point x="194" y="462"/>
      <point x="194" y="501" type="curve" smooth="yes"/>
      <point x="194" y="546"/>
      <point x="219" y="575"/>
      <point x="259" y="575" type="curve" smooth="yes"/>
      <point x="299" y="575"/>
      <point x="324" y="545"/>
      <point x="324" y="497" type="curve" smooth="yes"/>
      <point x="324" y="433"/>
      <point x="283" y="405"/>
      <point x="192" y="405" type="curve"/>
      <point x="225" y="295" type="line"/>
      <point x="362" y="295"/>
      <point x="459" y="379"/>
      <point x="459" y="497" type="curve" smooth="yes"/>
      <point x="459" y="612"/>
      <point x="382" y="685"/>
      <point x="259" y="685" type="curve" smooth="yes"/>
      <point x="136" y="685"/>
      <point x="59" y="614"/>
      <point x="59" y="501" type="curve" smooth="yes"/>
      <point x="59" y="437"/>
      <point x="88" y="379"/>
      <point x="154" y="311" type="curve" smooth="yes"/>
      <point x="297" y="164" type="line" smooth="yes"/>
      <point x="347" y="112"/>
      <point x="362" y="88"/>
      <point x="362" y="59" type="curve" smooth="yes"/>
      <point x="362" y="47"/>
      <point x="359" y="35"/>
      <point x="348" y="11" type="curve"/>
    </contour>
  </outline>
</glyph>
<glyph name="uni0971" format="1">
  <advance width="266"/>
  <unicode hex="0971"/>
  <outline>
    <contour>
      <point x="168" y="567"/>
      <point x="196" y="595"/>
      <point x="196" y="630" type="curve" smooth="yes"/>
      <point x="196" y="665"/>
      <point x="168" y="693"/>
      <point x="133" y="693" type="curve" smooth="yes"/>
      <point x="98" y="693"/>
      <point x="70" y="665"/>
      <point x="70" y="630" type="curve" smooth="yes"/>
      <point x="70" y="595"/>
      <point x="97" y="567"/>
      <point x="133" y="567" type="curve" smooth="yes"/>
    </contour>
  </outline>
</glyph>
<glyph name="aCandra-deva" format="1">
  <advance width="859"/>
  <unicode hex="0972"/>
  <outline>
    <component base="a-deva"/>
    <component base="eCandraMatra-deva" xOffset="476"/>
    <contour>
      <point x="687" y="685" type="move" name="top"/>
    </contour>
    <contour>
      <point x="687" y="0" type="move" name="bottom"/>
    </contour>
  </outline>
</glyph>
<glyph name="ooe-deva" format="1">
  <advance width="1182"/>
  <unicode hex="0974"/>
  <outline>
    <component base="a-deva"/>
    <component base="ooeMatra-deva" xOffset="837"/>
    <contour>
      <point x="1011" y="800" type="move" name="top"/>
    </contour>
    <contour>
      <point x="1011" y="0" type="move" name="bottom"/>
    </contour>
  </outline>
</glyph>
<glyph name="uni0974" format="1">
  <advance width="1182"/>
  <unicode hex="0974"/>
  <outline>
    <component base="adeva"/>
    <component base="uni093B" xOffset="837"/>
    <contour>
      <point x="1011" y="800" type="move" name="top"/>
    </contour>
    <contour>
      <point x="1011" y="0" type="move" name="bottom"/>
    </contour>
  </outline>
</glyph>
<glyph name="aw-deva" format="1">
  <advance width="1204"/>
  <unicode hex="0975"/>
  <outline>
    <component base="a-deva"/>
    <component base="awMatra-deva" xOffset="859"/>
    <contour>
      <point x="1033" y="923" type="move" name="top"/>
    </contour>
    <contour>
      <point x="1032" y="0" type="move" name="bottom"/>
    </contour>
  </outline>
</glyph>
<glyph name="uni0975" format="1">
  <advance width="1182"/>
  <unicode hex="0975"/>
  <outline>
    <component base="adeva"/>
    <component base="uni094F" xOffset="837"/>
    <contour>
      <point x="1011" y="923" type="move" name="top"/>
    </contour>
    <contour>
      <point x="1009" y="0" type="move" name="bottom"/>
    </contour>
  </outline>
</glyph>
<glyph name="ue-deva" format="1">
  <advance width="859"/>
  <unicode hex="0976"/>
  <outline>
    <component base="a-deva"/>
    <component base="ueMatra-deva" xOffset="457"/>
    <contour>
      <point x="687" y="0" type="move" name="bottom"/>
    </contour>
    <contour>
      <point x="687" y="685" type="move" name="top"/>
    </contour>
  </outline>
</glyph>
<glyph name="uni0979" format="1">
  <advance width="840"/>
  <unicode hex="0979"/>
  <outline>
    <component base="jadeva"/>
    <component base="anusvaradeva" xOffset="183" yOffset="-960"/>
    <component base="anusvaradeva" xOffset="74" yOffset="-796"/>
    <component base="anusvaradeva" xOffset="292" yOffset="-796"/>
    <contour>
      <point x="668" y="687" type="move" name="top"/>
    </contour>
    <contour>
      <point x="668" y="0" type="move" name="bottom"/>
    </contour>
  </outline>
</glyph>
<glyph name="gga-deva" format="1">
  <advance width="652"/>
  <unicode hex="097B"/>
  <outline>
    <contour>
      <point x="47" y="-110" type="line"/>
      <point x="558" y="-110" type="line"/>
      <point x="558" y="0" type="line"/>
      <point x="47" y="0" type="line"/>
    </contour>
    <contour>
      <point x="251" y="332" type="line"/>
      <point x="251" y="609" type="line"/>
      <point x="116" y="609" type="line"/>
      <point x="116" y="390" type="line"/>
      <point x="62" y="390"/>
      <point x="36" y="365"/>
      <point x="36" y="315" type="curve" smooth="yes"/>
      <point x="36" y="254"/>
      <point x="118" y="166"/>
      <point x="178" y="166" type="curve" smooth="yes"/>
      <point x="223" y="166"/>
      <point x="251" y="195"/>
      <point x="251" y="241" type="curve" smooth="yes"/>
    </contour>
    <contour>
      <point x="-15" y="575" type="line"/>
      <point x="336" y="575" type="line"/>
      <point x="336" y="685" type="line"/>
      <point x="-15" y="685" type="line"/>
    </contour>
    <contour>
      <point x="423" y="608" type="line"/>
      <point x="423" y="0" type="line"/>
      <point x="558" y="0" type="line"/>
      <point x="558" y="608" type="line"/>
    </contour>
    <contour>
      <point x="298" y="685" type="line"/>
      <point x="298" y="575" type="line"/>
      <point x="683" y="575" type="line"/>
      <point x="683" y="685" type="line"/>
    </contour>
    <contour>
      <point x="557" y="685" type="move" name="imatra"/>
    </contour>
    <contour>
      <point x="179" y="40" type="move" name="nukta"/>
    </contour>
    <contour>
      <point x="480" y="687" type="move" name="top"/>
    </contour>
    <contour>
      <point x="480" y="0" type="move" name="bottom"/>
    </contour>
  </outline>
</glyph>
<glyph name="jja-deva" format="1">
  <advance width="830"/>
  <unicode hex="097C"/>
  <outline>
    <contour>
      <point x="68" y="0" type="line"/>
      <point x="68" y="-110" type="line"/>
      <point x="736" y="-110" type="line"/>
      <point x="736" y="0" type="line"/>
    </contour>
    <contour>
      <point x="30" y="438" type="line"/>
      <point x="95" y="202"/>
      <point x="168" y="102"/>
      <point x="332" y="102" type="curve" smooth="yes"/>
      <point x="437" y="102"/>
      <point x="507" y="165"/>
      <point x="507" y="261" type="curve" smooth="yes"/>
      <point x="507" y="319"/>
      <point x="476" y="374"/>
      <point x="400" y="450" type="curve"/>
      <point x="302" y="383" type="line"/>
      <point x="365" y="312"/>
      <point x="373" y="282"/>
      <point x="373" y="256" type="curve" smooth="yes"/>
      <point x="373" y="225"/>
      <point x="348" y="212"/>
      <point x="327" y="212" type="curve" smooth="yes"/>
      <point x="264" y="212"/>
      <point x="210" y="297"/>
      <point x="159" y="470" type="curve"/>
    </contour>
    <contour>
      <point x="349" y="493" type="line"/>
      <point x="302" y="383" type="line"/>
      <point x="612" y="383" type="line"/>
      <point x="612" y="493" type="line"/>
    </contour>
    <contour>
      <point x="-19" y="685" type="line"/>
      <point x="-19" y="575" type="line"/>
      <point x="516" y="575" type="line"/>
      <point x="516" y="685" type="line"/>
    </contour>
    <contour>
      <point x="601" y="608" type="line"/>
      <point x="601" y="0" type="line"/>
      <point x="736" y="0" type="line"/>
      <point x="736" y="608" type="line"/>
    </contour>
    <contour>
      <point x="476" y="685" type="line"/>
      <point x="476" y="575" type="line"/>
      <point x="861" y="575" type="line"/>
      <point x="861" y="685" type="line"/>
    </contour>
    <contour>
      <point x="735" y="685" type="move" name="imatra"/>
    </contour>
    <contour>
      <point x="318" y="0" type="move" name="nukta"/>
    </contour>
    <contour>
      <point x="658" y="687" type="move" name="top"/>
    </contour>
    <contour>
      <point x="414" y="-108" type="move" name="bottom"/>
    </contour>
  </outline>
</glyph>
<glyph name="uni097F" format="1">
  <advance width="642"/>
  <unicode hex="097F"/>
  <outline>
    <contour>
      <point x="60" y="-110" type="line"/>
      <point x="548" y="-110" type="line"/>
      <point x="548" y="0" type="line"/>
      <point x="60" y="0" type="line"/>
    </contour>
    <contour>
      <point x="336" y="173" type="line"/>
      <point x="398" y="234" type="line"/>
      <point x="227" y="419" type="line"/>
      <point x="163" y="358" type="line"/>
    </contour>
    <contour>
      <point x="127" y="493"/>
      <point x="45" y="422"/>
      <point x="45" y="295" type="curve" smooth="yes"/>
      <point x="45" y="182"/>
      <point x="135" y="102"/>
      <point x="262" y="102" type="curve" smooth="yes"/>
      <point x="347" y="102"/>
      <point x="414" y="141"/>
      <point x="473" y="225" type="curve"/>
      <point x="418" y="321" type="line"/>
      <point x="380" y="246"/>
      <point x="335" y="212"/>
      <point x="272" y="212" type="curve" smooth="yes"/>
      <point x="215" y="212"/>
      <point x="180" y="244"/>
      <point x="180" y="295" type="curve" smooth="yes"/>
      <point x="180" y="350"/>
      <point x="219" y="383"/>
      <point x="283" y="383" type="curve" smooth="yes"/>
      <point x="293" y="383"/>
      <point x="300" y="382"/>
      <point x="309" y="381" type="curve"/>
      <point x="296" y="492" type="line"/>
      <point x="292" y="493"/>
      <point x="288" y="493"/>
      <point x="275" y="493" type="curve" smooth="yes"/>
    </contour>
    <contour>
      <point x="-17" y="685" type="line"/>
      <point x="-17" y="575" type="line"/>
      <point x="418" y="575" type="line"/>
      <point x="418" y="685" type="line"/>
    </contour>
    <contour>
      <point x="413" y="608" type="line"/>
      <point x="413" y="0" type="line"/>
      <point x="548" y="0" type="line"/>
      <point x="548" y="608" type="line"/>
    </contour>
    <contour>
      <point x="288" y="685" type="line"/>
      <point x="288" y="575" type="line"/>
      <point x="673" y="575" type="line"/>
      <point x="673" y="685" type="line"/>
    </contour>
    <contour>
      <point x="547" y="685" type="move" name="imatra"/>
    </contour>
    <contour>
      <point x="486" y="-111" type="move" name="bottom"/>
    </contour>
    <contour>
      <point x="486" y="685" type="move" name="top"/>
    </contour>
  </outline>
</glyph>
<glyph name="uni200C" format="1">
  <advance width="0"/>
  <unicode hex="200C"/>
  <outline>
    <contour>
      <point x="0" y="756" type="line"/>
      <point x="0" y="-244" type="line"/>
      <point x="114" y="-244" type="line"/>
      <point x="114" y="756" type="line"/>
    </contour>
  </outline>
</glyph>
<glyph name="quotedblright" format="1">
  <advance width="497"/>
  <unicode hex="201D"/>
  <outline>
    <contour>
      <point x="49" y="588" type="line"/>
      <point x="104" y="588" type="line"/>
      <point x="53" y="445" type="line"/>
      <point x="151" y="445" type="line"/>
      <point x="222" y="612" type="line"/>
      <point x="222" y="729" type="line"/>
      <point x="49" y="729" type="line"/>
    </contour>
    <contour>
      <point x="268" y="588" type="line"/>
      <point x="323" y="588" type="line"/>
      <point x="272" y="445" type="line"/>
      <point x="369" y="445" type="line"/>
      <point x="441" y="612" type="line"/>
      <point x="441" y="729" type="line"/>
      <point x="268" y="729" type="line"/>
    </contour>
  </outline>
</glyph>
<glyph name="dagger" format="1">
  <advance width="501"/>
  <unicode hex="2020"/>
  <outline>
    <contour>
      <point x="-8" y="422" type="line"/>
      <point x="193" y="422" type="line"/>
      <point x="193" y="-193" type="line"/>
      <point x="308" y="-193" type="line"/>
      <point x="308" y="422" type="line"/>
      <point x="509" y="422" type="line"/>
      <point x="509" y="525" type="line"/>
      <point x="308" y="525" type="line"/>
      <point x="308" y="774" type="line"/>
      <point x="193" y="774" type="line"/>
      <point x="193" y="525" type="line"/>
      <point x="-8" y="525" type="line"/>
    </contour>
  </outline>
</glyph>
<glyph name="perthousand" format="1">
  <advance width="1379"/>
  <unicode hex="2030"/>
  <outline>
    <contour>
      <point x="667" y="748" type="line"/>
      <point x="234" y="-1" type="line"/>
      <point x="312" y="-46" type="line"/>
      <point x="744" y="704" type="line"/>
    </contour>
    <contour>
      <point x="23" y="330"/>
      <point x="82" y="253"/>
      <point x="200" y="253" type="curve" smooth="yes"/>
      <point x="314" y="253"/>
      <point x="378" y="334"/>
      <point x="378" y="482" type="curve" smooth="yes"/>
      <point x="378" y="629"/>
      <point x="315" y="709"/>
      <point x="200" y="709" type="curve" smooth="yes"/>
      <point x="81" y="709"/>
      <point x="23" y="633"/>
      <point x="23" y="482" type="curve" smooth="yes"/>
    </contour>
    <contour>
      <point x="271" y="375"/>
      <point x="249" y="331"/>
      <point x="200" y="331" type="curve" smooth="yes"/>
      <point x="151" y="331"/>
      <point x="129" y="375"/>
      <point x="129" y="482" type="curve" smooth="yes"/>
      <point x="129" y="587"/>
      <point x="151" y="632"/>
      <point x="200" y="632" type="curve" smooth="yes"/>
      <point x="249" y="632"/>
      <point x="271" y="587"/>
      <point x="271" y="482" type="curve" smooth="yes"/>
    </contour>
    <contour>
      <point x="601" y="69"/>
      <point x="660" y="-8"/>
      <point x="778" y="-8" type="curve" smooth="yes"/>
      <point x="892" y="-8"/>
      <point x="955" y="73"/>
      <point x="955" y="221" type="curve" smooth="yes"/>
      <point x="955" y="368"/>
      <point x="893" y="448"/>
      <point x="778" y="448" type="curve" smooth="yes"/>
      <point x="659" y="448"/>
      <point x="601" y="372"/>
      <point x="601" y="221" type="curve" smooth="yes"/>
    </contour>
    <contour>
      <point x="1001" y="69"/>
      <point x="1060" y="-8"/>
      <point x="1178" y="-8" type="curve" smooth="yes"/>
      <point x="1293" y="-8"/>
      <point x="1356" y="73"/>
      <point x="1356" y="221" type="curve" smooth="yes"/>
      <point x="1356" y="368"/>
      <point x="1293" y="448"/>
      <point x="1178" y="448" type="curve" smooth="yes"/>
      <point x="1060" y="448"/>
      <point x="1001" y="372"/>
      <point x="1001" y="221" type="curve" smooth="yes"/>
    </contour>
    <contour>
      <point x="849" y="114"/>
      <point x="827" y="70"/>
      <point x="778" y="70" type="curve" smooth="yes"/>
      <point x="729" y="70"/>
      <point x="707" y="114"/>
      <point x="707" y="221" type="curve" smooth="yes"/>
      <point x="707" y="326"/>
      <point x="729" y="371"/>
      <point x="778" y="371" type="curve" smooth="yes"/>
      <point x="827" y="371"/>
      <point x="849" y="326"/>
      <point x="849" y="221" type="curve" smooth="yes"/>
    </contour>
    <contour>
      <point x="1250" y="114"/>
      <point x="1227" y="70"/>
      <point x="1178" y="70" type="curve" smooth="yes"/>
      <point x="1130" y="70"/>
      <point x="1107" y="114"/>
      <point x="1107" y="221" type="curve" smooth="yes"/>
      <point x="1107" y="326"/>
      <point x="1129" y="371"/>
      <point x="1178" y="371" type="curve" smooth="yes"/>
      <point x="1227" y="371"/>
      <point x="1250" y="326"/>
      <point x="1250" y="221" type="curve" smooth="yes"/>
    </contour>
  </outline>
</glyph>
<glyph name="lira" format="1">
  <advance width="565"/>
  <unicode hex="20A4"/>
  <outline>
    <contour>
      <point x="432" y="243" type="line"/>
      <point x="432" y="317" type="line"/>
      <point x="285" y="317" type="line"/>
      <point x="285" y="343"/>
      <point x="282" y="365"/>
      <point x="278" y="384" type="curve"/>
      <point x="432" y="384" type="line"/>
      <point x="432" y="459" type="line"/>
      <point x="258" y="459" type="line"/>
      <point x="252" y="479"/>
      <point x="247" y="499"/>
      <point x="247" y="522" type="curve" smooth="yes"/>
      <point x="247" y="581"/>
      <point x="286" y="617"/>
      <point x="351" y="617" type="curve" smooth="yes"/>
      <point x="398" y="617"/>
      <point x="431" y="598"/>
      <point x="443" y="564" type="curve"/>
      <point x="548" y="608" type="line"/>
      <point x="523" y="681"/>
      <point x="447" y="724"/>
      <point x="346" y="724" type="curve" smooth="yes"/>
      <point x="196" y="724"/>
      <point x="101" y="647"/>
      <point x="101" y="527" type="curve" smooth="yes"/>
      <point x="101" y="501"/>
      <point x="105" y="479"/>
      <point x="110" y="459" type="curve"/>
      <point x="45" y="459" type="line"/>
      <point x="45" y="384" type="line"/>
      <point x="131" y="384" type="line"/>
      <point x="135" y="365"/>
      <point x="138" y="343"/>
      <point x="139" y="317" type="curve"/>
      <point x="45" y="317" type="line"/>
      <point x="45" y="243" type="line"/>
      <point x="133" y="243" type="line"/>
      <point x="122" y="184"/>
      <point x="95" y="131"/>
      <point x="54" y="88" type="curve"/>
      <point x="54" y="0" type="line"/>
      <point x="540" y="0" type="line"/>
      <point x="540" y="109" type="line"/>
      <point x="187" y="102" type="line"/>
      <point x="226" y="135"/>
      <point x="258" y="188"/>
      <point x="274" y="243" type="curve"/>
    </contour>
  </outline>
</glyph>
<glyph name="uni2153" format="1">
  <advance width="793"/>
  <unicode hex="2153"/>
  <outline>
    <contour>
      <point x="538" y="748" type="line"/>
      <point x="106" y="-1" type="line"/>
      <point x="183" y="-46" type="line"/>
      <point x="616" y="704" type="line"/>
    </contour>
    <contour>
      <point x="19" y="591" type="line"/>
      <point x="119" y="615" type="line"/>
      <point x="119" y="261" type="line"/>
      <point x="230" y="261" type="line"/>
      <point x="230" y="700" type="line"/>
      <point x="163" y="710" type="line"/>
      <point x="3" y="650" type="line"/>
    </contour>
    <contour>
      <point x="463" y="13" type="line"/>
      <point x="499" y="0"/>
      <point x="545" y="-7"/>
      <point x="586" y="-7" type="curve" smooth="yes"/>
      <point x="706" y="-7"/>
      <point x="772" y="39"/>
      <point x="772" y="119" type="curve" smooth="yes"/>
      <point x="772" y="176"/>
      <point x="736" y="214"/>
      <point x="671" y="227" type="curve"/>
      <point x="729" y="240"/>
      <point x="761" y="275"/>
      <point x="761" y="328" type="curve" smooth="yes"/>
      <point x="761" y="401"/>
      <point x="695" y="445"/>
      <point x="600" y="445" type="curve" smooth="yes"/>
      <point x="554" y="445"/>
      <point x="507" y="437"/>
      <point x="463" y="422" type="curve"/>
      <point x="479" y="347" type="line"/>
      <point x="514" y="359"/>
      <point x="551" y="366"/>
      <point x="579" y="366" type="curve" smooth="yes"/>
      <point x="622" y="366"/>
      <point x="647" y="350"/>
      <point x="647" y="318" type="curve" smooth="yes"/>
      <point x="647" y="281"/>
      <point x="617" y="260"/>
      <point x="564" y="260" type="curve" smooth="yes"/>
      <point x="530" y="260" type="line"/>
      <point x="530" y="185" type="line"/>
      <point x="568" y="185" type="line" smooth="yes"/>
      <point x="628" y="185"/>
      <point x="659" y="166"/>
      <point x="659" y="126" type="curve" smooth="yes"/>
      <point x="659" y="91"/>
      <point x="628" y="71"/>
      <point x="573" y="71" type="curve" smooth="yes"/>
      <point x="548" y="71"/>
      <point x="510" y="77"/>
      <point x="476" y="87" type="curve"/>
    </contour>
  </outline>
</glyph>
<glyph name="arrowleft" format="1">
  <advance width="557"/>
  <unicode hex="2190"/>
  <outline>
    <contour>
      <point x="346" y="593" type="line"/>
      <point x="290" y="650" type="line"/>
      <point x="17" y="377" type="line"/>
      <point x="17" y="343" type="line"/>
      <point x="290" y="70" type="line"/>
      <point x="346" y="127" type="line"/>
      <point x="153" y="320" type="line"/>
      <point x="539" y="320" type="line"/>
      <point x="539" y="400" type="line"/>
      <point x="153" y="400" type="line"/>
    </contour>
  </outline>
</glyph>
<glyph name="arrowup" format="1">
  <advance width="602"/>
  <unicode hex="2191"/>
  <outline>
    <contour>
      <point x="591" y="348" type="line"/>
      <point x="318" y="621" type="line"/>
      <point x="284" y="621" type="line"/>
      <point x="11" y="348" type="line"/>
      <point x="68" y="292" type="line"/>
      <point x="261" y="485" type="line"/>
      <point x="261" y="99" type="line"/>
      <point x="341" y="99" type="line"/>
      <point x="341" y="485" type="line"/>
      <point x="534" y="292" type="line"/>
    </contour>
  </outline>
</glyph>
<glyph name="product" format="1">
  <advance width="812"/>
  <unicode hex="220F"/>
  <outline>
    <contour>
      <point x="711" y="-149" type="line"/>
      <point x="711" y="709" type="line"/>
      <point x="101" y="709" type="line"/>
      <point x="101" y="-149" type="line"/>
      <point x="252" y="-149" type="line"/>
      <point x="252" y="598" type="line"/>
      <point x="560" y="598" type="line"/>
      <point x="560" y="-149" type="line"/>
    </contour>
  </outline>
</glyph>
<glyph name="lessequal" format="1">
  <advance width="639"/>
  <unicode hex="2264"/>
  <outline>
    <contour>
      <point x="49" y="472" type="line"/>
      <point x="49" y="375" type="line"/>
      <point x="569" y="179" type="line"/>
      <point x="569" y="291" type="line"/>
      <point x="209" y="423" type="line"/>
      <point x="569" y="557" type="line"/>
      <point x="569" y="669" type="line"/>
    </contour>
    <contour>
      <point x="571" y="143" type="line"/>
      <point x="48" y="143" type="line"/>
      <point x="48" y="43" type="line"/>
      <point x="571" y="43" type="line"/>
    </contour>
  </outline>
</glyph>
<glyph name="greaterequal" format="1">
  <advance width="639"/>
  <unicode hex="2265"/>
  <outline>
    <contour>
      <point x="430" y="423" type="line"/>
      <point x="69" y="291" type="line"/>
      <point x="69" y="179" type="line"/>
      <point x="590" y="375" type="line"/>
      <point x="590" y="472" type="line"/>
      <point x="69" y="669" type="line"/>
      <point x="69" y="557" type="line"/>
    </contour>
    <contour>
      <point x="591" y="143" type="line"/>
      <point x="68" y="143" type="line"/>
      <point x="68" y="43" type="line"/>
      <point x="591" y="43" type="line"/>
    </contour>
  </outline>
</glyph>
<glyph name="zerocombiningdigitdeva" format="1">
  <advance width="269"/>
  <unicode hex="A8E0"/>
  <outline>
    <contour>
      <point x="59" y="941"/>
      <point x="9" y="895"/>
      <point x="9" y="820" type="curve" smooth="yes"/>
      <point x="9" y="744"/>
      <point x="59" y="698"/>
      <point x="135" y="698" type="curve" smooth="yes"/>
      <point x="211" y="698"/>
      <point x="260" y="744"/>
      <point x="260" y="819" type="curve" smooth="yes"/>
      <point x="260" y="895"/>
      <point x="211" y="941"/>
      <point x="135" y="941" type="curve" smooth="yes"/>
    </contour>
    <contour>
      <point x="161" y="861"/>
      <point x="174" y="847"/>
      <point x="174" y="819" type="curve" smooth="yes"/>
      <point x="174" y="793"/>
      <point x="161" y="778"/>
      <point x="135" y="778" type="curve" smooth="yes"/>
      <point x="109" y="778"/>
      <point x="95" y="793"/>
      <point x="95" y="820" type="curve" smooth="yes"/>
      <point x="95" y="847"/>
      <point x="109" y="861"/>
      <point x="135" y="861" type="curve" smooth="yes"/>
    </contour>
    <contour>
      <point x="134" y="687" type="move" name="_top"/>
    </contour>
  </outline>
</glyph>
<glyph name="three-deva.comb" format="1">
  <advance width="245"/>
  <unicode hex="A8E3"/>
  <outline>
    <contour>
      <point x="223" y="954"/>
      <point x="174" y="986"/>
      <point x="109" y="986" type="curve" smooth="yes"/>
      <point x="77" y="986"/>
      <point x="46" y="978"/>
      <point x="16" y="963" type="curve"/>
      <point x="41" y="902" type="line"/>
      <point x="66" y="910"/>
      <point x="93" y="920"/>
      <point x="117" y="920" type="curve" smooth="yes"/>
      <point x="123" y="920"/>
      <point x="140" y="919"/>
      <point x="140" y="907" type="curve" smooth="yes"/>
      <point x="140" y="888"/>
      <point x="95" y="876"/>
      <point x="50" y="871" type="curve"/>
      <point x="63" y="808" type="line"/>
      <point x="94" y="809"/>
      <point x="120" y="813"/>
      <point x="142" y="820" type="curve"/>
      <point x="151" y="813"/>
      <point x="152" y="800"/>
      <point x="152" y="795" type="curve" smooth="yes"/>
      <point x="152" y="772"/>
      <point x="133" y="764"/>
      <point x="107" y="764" type="curve"/>
      <point x="84" y="794"/>
      <point x="76" y="798"/>
      <point x="64" y="798" type="curve" smooth="yes"/>
      <point x="31" y="798"/>
      <point x="9" y="778"/>
      <point x="9" y="748" type="curve" smooth="yes"/>
      <point x="9" y="713"/>
      <point x="32" y="699"/>
      <point x="69" y="695" type="curve"/>
      <point x="132" y="631" type="line"/>
      <point x="188" y="675" type="line"/>
      <point x="161" y="703" type="line"/>
      <point x="209" y="715"/>
      <point x="236" y="747"/>
      <point x="236" y="791" type="curve" smooth="yes"/>
      <point x="236" y="821"/>
      <point x="228" y="841"/>
      <point x="209" y="858" type="curve"/>
      <point x="218" y="872"/>
      <point x="223" y="887"/>
      <point x="223" y="902" type="curve" smooth="yes"/>
    </contour>
    <contour>
      <point x="122" y="687" type="move" name="_top"/>
    </contour>
  </outline>
</glyph>
<glyph name="sixcombiningdigitdeva" format="1">
  <advance width="259"/>
  <unicode hex="A8E6"/>
  <outline>
    <contour>
      <point x="66" y="986"/>
      <point x="9" y="957"/>
      <point x="9" y="902" type="curve" smooth="yes"/>
      <point x="9" y="878"/>
      <point x="20" y="857"/>
      <point x="37" y="844" type="curve"/>
      <point x="24" y="828"/>
      <point x="14" y="804"/>
      <point x="14" y="777" type="curve" smooth="yes"/>
      <point x="14" y="724"/>
      <point x="74" y="690"/>
      <point x="123" y="690" type="curve"/>
      <point x="128" y="690"/>
      <point x="130" y="691"/>
      <point x="131" y="690" type="curve"/>
      <point x="191" y="597" type="line"/>
      <point x="250" y="650" type="line"/>
      <point x="216" y="700" type="line"/>
      <point x="230" y="704"/>
      <point x="242" y="717"/>
      <point x="242" y="739" type="curve" smooth="yes"/>
      <point x="242" y="774"/>
      <point x="210" y="797"/>
      <point x="172" y="797" type="curve" smooth="yes"/>
      <point x="146" y="797"/>
      <point x="112" y="786"/>
      <point x="112" y="758" type="curve"/>
      <point x="104" y="761"/>
      <point x="99" y="770"/>
      <point x="99" y="781" type="curve" smooth="yes"/>
      <point x="99" y="795"/>
      <point x="104" y="809"/>
      <point x="113" y="817" type="curve"/>
      <point x="127" y="815"/>
      <point x="143" y="814"/>
      <point x="160" y="813" type="curve" smooth="yes"/>
      <point x="184" y="813" type="line"/>
      <point x="174" y="880" type="line"/>
      <point x="171" y="880" type="line" smooth="yes"/>
      <point x="101" y="881"/>
      <point x="95" y="894"/>
      <point x="95" y="903" type="curve" smooth="yes"/>
      <point x="95" y="912"/>
      <point x="100" y="920"/>
      <point x="120" y="920" type="curve" smooth="yes"/>
      <point x="130" y="920"/>
      <point x="147" y="918"/>
      <point x="168" y="909" type="curve"/>
      <point x="201" y="972" type="line"/>
      <point x="179" y="982"/>
      <point x="153" y="986"/>
      <point x="126" y="986" type="curve" smooth="yes"/>
    </contour>
    <contour>
      <point x="129" y="687" type="move" name="_top"/>
    </contour>
  </outline>
</glyph>
<glyph name="sevencombiningdigitdeva" format="1">
  <advance width="295"/>
  <unicode hex="A8E7"/>
  <outline>
    <contour>
      <point x="12" y="948"/>
      <point x="7" y="921"/>
      <point x="7" y="894" type="curve" smooth="yes"/>
      <point x="7" y="784"/>
      <point x="73" y="708"/>
      <point x="169" y="708" type="curve" smooth="yes"/>
      <point x="242" y="708"/>
      <point x="289" y="751"/>
      <point x="289" y="828" type="curve" smooth="yes"/>
      <point x="289" y="901"/>
      <point x="245" y="950"/>
      <point x="176" y="950" type="curve" smooth="yes"/>
      <point x="125" y="950"/>
      <point x="95" y="924"/>
      <point x="95" y="880" type="curve" smooth="yes"/>
      <point x="95" y="831"/>
      <point x="125" y="803"/>
      <point x="190" y="789" type="curve"/>
      <point x="198" y="850" type="line"/>
      <point x="179" y="853"/>
      <point x="168" y="863"/>
      <point x="168" y="878" type="curve" smooth="yes"/>
      <point x="168" y="885"/>
      <point x="174" y="891"/>
      <point x="183" y="891" type="curve" smooth="yes"/>
      <point x="201" y="891"/>
      <point x="215" y="863"/>
      <point x="215" y="831" type="curve" smooth="yes"/>
      <point x="215" y="787"/>
      <point x="195" y="768"/>
      <point x="164" y="768" type="curve" smooth="yes"/>
      <point x="116" y="768"/>
      <point x="82" y="819"/>
      <point x="82" y="895" type="curve" smooth="yes"/>
      <point x="82" y="916"/>
      <point x="85" y="941"/>
      <point x="90" y="957" type="curve"/>
      <point x="17" y="972" type="line"/>
    </contour>
    <contour>
      <point x="147" y="687" type="move" name="_top"/>
    </contour>
  </outline>
</glyph>
<glyph name="ninecombiningdigitdeva" format="1">
  <advance width="247"/>
  <unicode hex="A8E9"/>
  <outline>
    <contour>
      <point x="43" y="988"/>
      <point x="9" y="953"/>
      <point x="9" y="894" type="curve" smooth="yes"/>
      <point x="9" y="864"/>
      <point x="22" y="837"/>
      <point x="50" y="809" type="curve" smooth="yes"/>
      <point x="115" y="741" type="line" smooth="yes"/>
      <point x="140" y="715"/>
      <point x="144" y="706"/>
      <point x="144" y="695" type="curve" smooth="yes"/>
      <point x="144" y="692"/>
      <point x="145" y="688"/>
      <point x="138" y="673" type="curve"/>
      <point x="228" y="661" type="line"/>
      <point x="234" y="673"/>
      <point x="237" y="684"/>
      <point x="238" y="694" type="curve"/>
      <point x="238" y="717"/>
      <point x="232" y="731"/>
      <point x="199" y="765" type="curve" smooth="yes"/>
      <point x="160" y="806" type="line"/>
      <point x="191" y="822"/>
      <point x="210" y="855"/>
      <point x="210" y="893" type="curve" smooth="yes"/>
      <point x="210" y="949"/>
      <point x="176" y="988"/>
      <point x="111" y="988" type="curve" smooth="yes"/>
    </contour>
    <contour>
      <point x="119" y="921"/>
      <point x="123" y="908"/>
      <point x="123" y="893" type="curve" smooth="yes"/>
      <point x="123" y="875"/>
      <point x="121" y="867"/>
      <point x="104" y="864" type="curve"/>
      <point x="98" y="874"/>
      <point x="95" y="883"/>
      <point x="95" y="894" type="curve" smooth="yes"/>
      <point x="95" y="911"/>
      <point x="99" y="921"/>
      <point x="111" y="921" type="curve" smooth="yes"/>
    </contour>
    <contour>
      <point x="123" y="687" type="move" name="_top"/>
    </contour>
  </outline>
</glyph>
<glyph name="kacombiningletterdeva" format="1">
  <advance width="467"/>
  <unicode hex="A8EC"/>
  <outline>
    <contour>
      <point x="9" y="991" type="line"/>
      <point x="9" y="923" type="line"/>
      <point x="190" y="923" type="line"/>
      <point x="190" y="812" type="line"/>
      <point x="183" y="793"/>
      <point x="167" y="776"/>
      <point x="146" y="776" type="curve" smooth="yes"/>
      <point x="128" y="776"/>
      <point x="121" y="786"/>
      <point x="121" y="805" type="curve" smooth="yes"/>
      <point x="121" y="823"/>
      <point x="130" y="831"/>
      <point x="151" y="831" type="curve" smooth="yes"/>
      <point x="151" y="831"/>
      <point x="150" y="831"/>
      <point x="155" y="830" type="curve"/>
      <point x="149" y="898" type="line"/>
      <point x="146" y="898"/>
      <point x="147" y="898"/>
      <point x="144" y="898" type="curve" smooth="yes"/>
      <point x="71" y="898"/>
      <point x="34" y="867"/>
      <point x="34" y="805" type="curve" smooth="yes"/>
      <point x="34" y="741"/>
      <point x="69" y="709"/>
      <point x="141" y="709" type="curve" smooth="yes"/>
      <point x="160" y="709"/>
      <point x="176" y="714"/>
      <point x="190" y="723" type="curve"/>
      <point x="190" y="669" type="line"/>
      <point x="275" y="669" type="line"/>
      <point x="275" y="794" type="line"/>
      <point x="285" y="818"/>
      <point x="302" y="831"/>
      <point x="321" y="831" type="curve" smooth="yes"/>
      <point x="338" y="831"/>
      <point x="347" y="822"/>
      <point x="347" y="803" type="curve" smooth="yes"/>
      <point x="347" y="784"/>
      <point x="337" y="776"/>
      <point x="315" y="776" type="curve" smooth="yes"/>
      <point x="313" y="776"/>
      <point x="306" y="777"/>
      <point x="298" y="778" type="curve"/>
      <point x="302" y="710" type="line"/>
      <point x="308" y="709"/>
      <point x="312" y="709"/>
      <point x="323" y="709" type="curve" smooth="yes"/>
      <point x="395" y="709"/>
      <point x="433" y="740"/>
      <point x="433" y="803" type="curve" smooth="yes"/>
      <point x="433" y="865"/>
      <point x="400" y="898"/>
      <point x="326" y="898" type="curve" smooth="yes"/>
      <point x="307" y="898"/>
      <point x="290" y="894"/>
      <point x="275" y="884" type="curve"/>
      <point x="275" y="923" type="line"/>
      <point x="458" y="923" type="line"/>
      <point x="458" y="991" type="line"/>
    </contour>
    <contour>
      <point x="233" y="687" type="move" name="_top"/>
    </contour>
  </outline>
</glyph>
<glyph name="nacombiningletterdeva" format="1">
  <advance width="358"/>
  <unicode hex="A8ED"/>
  <outline>
    <contour>
      <point x="9" y="991" type="line"/>
      <point x="9" y="923" type="line"/>
      <point x="209" y="923" type="line"/>
      <point x="209" y="848" type="line"/>
      <point x="79" y="848" type="line" smooth="yes"/>
      <point x="49" y="848"/>
      <point x="30" y="843"/>
      <point x="30" y="808" type="curve" smooth="yes"/>
      <point x="30" y="784"/>
      <point x="57" y="722"/>
      <point x="95" y="722" type="curve" smooth="yes"/>
      <point x="122" y="722"/>
      <point x="129" y="741"/>
      <point x="133" y="780" type="curve"/>
      <point x="209" y="780" type="line"/>
      <point x="209" y="669" type="line"/>
      <point x="295" y="669" type="line"/>
      <point x="295" y="923" type="line"/>
      <point x="349" y="923" type="line"/>
      <point x="349" y="991" type="line"/>
    </contour>
    <contour>
      <point x="179" y="687" type="move" name="_top"/>
    </contour>
  </outline>
</glyph>
<glyph name="racombiningletterdeva" format="1">
  <advance width="248"/>
  <unicode hex="A8EF"/>
  <outline>
    <contour>
      <point x="9" y="991" type="line"/>
      <point x="9" y="923" type="line"/>
      <point x="97" y="923" type="line"/>
      <point x="113" y="899"/>
      <point x="124" y="876"/>
      <point x="124" y="865" type="curve" smooth="yes"/>
      <point x="124" y="849"/>
      <point x="114" y="835"/>
      <point x="99" y="835" type="curve" smooth="yes"/>
      <point x="87" y="835"/>
      <point x="75" y="840"/>
      <point x="64" y="848" type="curve"/>
      <point x="24" y="802" type="line"/>
      <point x="140" y="642" type="line"/>
      <point x="209" y="692" type="line"/>
      <point x="149" y="775" type="line"/>
      <point x="190" y="789"/>
      <point x="212" y="819"/>
      <point x="212" y="864" type="curve" smooth="yes"/>
      <point x="212" y="880"/>
      <point x="205" y="899"/>
      <point x="193" y="923" type="curve"/>
      <point x="239" y="923" type="line"/>
      <point x="239" y="991" type="line"/>
    </contour>
    <contour>
      <point x="124" y="687" type="move" name="_top"/>
    </contour>
  </outline>
</glyph>
<glyph name="vicombiningletterdeva" format="1">
  <advance width="509"/>
  <unicode hex="A8F0"/>
  <outline>
    <contour>
      <point x="103" y="1135"/>
      <point x="55" y="1097"/>
      <point x="55" y="1040" type="curve" smooth="yes"/>
      <point x="55" y="1022"/>
      <point x="58" y="1007"/>
      <point x="65" y="991" type="curve"/>
      <point x="9" y="991" type="line"/>
      <point x="9" y="923" type="line"/>
      <point x="64" y="923" type="line"/>
      <point x="64" y="669" type="line"/>
      <point x="149" y="669" type="line"/>
      <point x="149" y="923" type="line"/>
      <point x="361" y="923" type="line"/>
      <point x="361" y="836" type="line"/>
      <point x="341" y="790"/>
      <point x="318" y="776"/>
      <point x="293" y="776" type="curve" smooth="yes"/>
      <point x="275" y="776"/>
      <point x="265" y="786"/>
      <point x="265" y="803" type="curve" smooth="yes"/>
      <point x="265" y="822"/>
      <point x="279" y="831"/>
      <point x="305" y="831" type="curve" smooth="yes"/>
      <point x="311" y="831"/>
      <point x="307" y="830"/>
      <point x="311" y="830" type="curve"/>
      <point x="302" y="898" type="line"/>
      <point x="302" y="898"/>
      <point x="306" y="898"/>
      <point x="298" y="898" type="curve" smooth="yes"/>
      <point x="217" y="898"/>
      <point x="178" y="867"/>
      <point x="178" y="803" type="curve" smooth="yes"/>
      <point x="178" y="749"/>
      <point x="226" y="709"/>
      <point x="289" y="709" type="curve" smooth="yes"/>
      <point x="316" y="709"/>
      <point x="338" y="717"/>
      <point x="361" y="735" type="curve"/>
      <point x="361" y="669" type="line"/>
      <point x="446" y="669" type="line"/>
      <point x="446" y="923" type="line"/>
      <point x="500" y="923" type="line"/>
      <point x="500" y="991" type="line"/>
      <point x="148" y="991" type="line"/>
      <point x="142" y="1004"/>
      <point x="141" y="1016"/>
      <point x="141" y="1030" type="curve" smooth="yes"/>
      <point x="141" y="1052"/>
      <point x="155" y="1062"/>
      <point x="184" y="1062" type="curve" smooth="yes"/>
      <point x="227" y="1062"/>
      <point x="244" y="1060"/>
      <point x="303" y="1011" type="curve"/>
      <point x="365" y="1051" type="line"/>
      <point x="285" y="1116"/>
      <point x="251" y="1135"/>
      <point x="180" y="1135" type="curve" smooth="yes"/>
    </contour>
    <contour>
      <point x="254" y="687" type="move" name="_top"/>
    </contour>
  </outline>
</glyph>
<glyph name="avagraha_candraBindu-deva" format="1">
  <advance width="470"/>
  <unicode hex="A8F7"/>
  <outline>
    <contour>
      <point x="414" y="101"/>
      <point x="358" y="130"/>
      <point x="272" y="180" type="curve"/>
      <point x="210" y="218"/>
      <point x="197" y="220"/>
      <point x="197" y="241" type="curve"/>
      <point x="197" y="259"/>
      <point x="209" y="264"/>
      <point x="242" y="264" type="curve"/>
      <point x="394" y="264" type="line"/>
      <point x="394" y="375" type="line"/>
      <point x="242" y="375" type="line"/>
      <point x="142" y="375"/>
      <point x="81" y="332"/>
      <point x="81" y="245" type="curve"/>
      <point x="81" y="168"/>
      <point x="132" y="131"/>
      <point x="203" y="91" type="curve"/>
      <point x="272" y="52"/>
      <point x="298" y="43"/>
      <point x="298" y="8" type="curve"/>
      <point x="298" y="-24"/>
      <point x="276" y="-42"/>
      <point x="236" y="-42" type="curve"/>
      <point x="182" y="-42"/>
      <point x="129" y="-3"/>
      <point x="101" y="51" type="curve"/>
      <point x="13" y="-6" type="line"/>
      <point x="54" y="-88"/>
      <point x="139" y="-149"/>
      <point x="236" y="-149" type="curve"/>
      <point x="337" y="-149"/>
      <point x="414" y="-99"/>
      <point x="414" y="8" type="curve"/>
    </contour>
    <component base="candraBindu-deva" xOffset="13" yOffset="-305"/>
  </outline>
</glyph>
<glyph name="caretdeva" format="1">
  <advance width="473"/>
  <unicode hex="A8FA"/>
  <outline>
    <contour>
      <point x="458" y="842" type="line"/>
      <point x="367" y="880" type="line"/>
      <point x="237" y="706" type="line"/>
      <point x="107" y="880" type="line"/>
      <point x="15" y="842" type="line"/>
      <point x="180" y="639" type="line"/>
      <point x="293" y="640" type="line"/>
    </contour>
    <contour>
      <point x="237" y="640" type="move" name="_top"/>
    </contour>
  </outline>
</glyph>
<glyph name="aiMatra_anusvara-deva" format="1">
  <advance width="474"/>
  <outline>
    <component base="aiMatra-deva" xOffset="-12"/>
    <component base="anusvara-deva" xOffset="388" yOffset="8"/>
    <contour>
      <point x="590" y="850" type="move" name="top"/>
    </contour>
    <contour>
      <point x="367" y="685" type="move" name="_top"/>
    </contour>
  </outline>
</glyph>
<glyph name="aiMatra_reph-deva" format="1">
  <advance width="270"/>
  <note>
    dMatraAiReph
  </note>
  <outline>
    <contour>
      <point x="168" y="946"/>
      <point x="109" y="888"/>
      <point x="109" y="792" type="curve" smooth="yes"/>
      <point x="109" y="754"/>
      <point x="116" y="712"/>
      <point x="142" y="670" type="curve"/>
      <point x="246" y="670" type="line"/>
      <point x="232" y="713"/>
      <point x="220" y="753"/>
      <point x="220" y="783" type="curve" smooth="yes"/>
      <point x="220" y="825"/>
      <point x="244" y="845"/>
      <point x="284" y="845" type="curve" smooth="yes"/>
      <point x="303" y="845"/>
      <point x="328" y="840"/>
      <point x="354" y="831" type="curve"/>
      <point x="378" y="922" type="line"/>
      <point x="340" y="938"/>
      <point x="302" y="946"/>
      <point x="266" y="946" type="curve" smooth="yes"/>
    </contour>
    <component base="aiMatra-deva" xOffset="-221"/>
    <contour>
      <point x="266" y="946" type="move" name="top"/>
    </contour>
    <contour>
      <point x="159" y="685" type="move" name="_top"/>
    </contour>
  </outline>
</glyph>
<glyph name="anusvara-deva.alt" format="1">
  <advance width="252"/>
  <outline>
    <component base="anusvara-deva" yOffset="236"/>
    <contour>
      <point x="125" y="675" type="move" name="_top"/>
    </contour>
  </outline>
</glyph>
<glyph name="b-deva" format="1">
  <advance width="305"/>
  <outline>
    <contour>
      <point x="333" y="173" type="line"/>
      <point x="395" y="234" type="line"/>
      <point x="224" y="419" type="line"/>
      <point x="160" y="358" type="line"/>
    </contour>
    <component base="v-deva"/>
    <contour>
      <point x="223" y="685" type="move" name="top"/>
    </contour>
    <contour>
      <point x="223" y="0" type="move" name="bottom"/>
    </contour>
  </outline>
</glyph>
<glyph name="b_la-deva" format="1">
  <advance width="1067"/>
  <outline>
    <contour>
      <point x="309" y="173" type="line"/>
      <point x="361" y="234" type="line"/>
      <point x="190" y="419" type="line"/>
      <point x="136" y="358" type="line"/>
    </contour>
    <contour>
      <point x="-48" y="685" type="line"/>
      <point x="-48" y="575" type="line"/>
      <point x="295" y="575" type="line"/>
      <point x="295" y="685" type="line"/>
    </contour>
    <contour>
      <point x="288" y="490"/>
      <point x="267" y="493"/>
      <point x="241" y="493" type="curve" smooth="yes"/>
      <point x="122" y="493"/>
      <point x="25" y="433"/>
      <point x="25" y="298" type="curve" smooth="yes"/>
      <point x="25" y="175"/>
      <point x="102" y="102"/>
      <point x="232" y="102" type="curve" smooth="yes"/>
      <point x="319" y="102"/>
      <point x="378" y="136"/>
      <point x="432" y="215" type="curve"/>
      <point x="371" y="317" type="line"/>
      <point x="340" y="250"/>
      <point x="302" y="212"/>
      <point x="242" y="212" type="curve" smooth="yes"/>
      <point x="190" y="212"/>
      <point x="160" y="244"/>
      <point x="160" y="298" type="curve" smooth="yes"/>
      <point x="160" y="354"/>
      <point x="198" y="383"/>
      <point x="251" y="383" type="curve" smooth="yes"/>
      <point x="271" y="383"/>
      <point x="293" y="380"/>
      <point x="316" y="374" type="curve"/>
      <point x="303" y="485" type="line"/>
    </contour>
    <contour>
      <point x="245" y="575" type="line"/>
      <point x="815" y="575" type="line"/>
      <point x="815" y="685" type="line"/>
      <point x="245" y="685" type="line"/>
    </contour>
    <contour>
      <point x="881" y="481" type="line"/>
      <point x="853" y="489"/>
      <point x="831" y="493"/>
      <point x="811" y="493" type="curve" smooth="yes"/>
      <point x="688" y="493"/>
      <point x="634" y="449"/>
      <point x="546" y="275" type="curve"/>
      <point x="651" y="219" type="line"/>
      <point x="723" y="355"/>
      <point x="750" y="383"/>
      <point x="811" y="383" type="curve" smooth="yes"/>
      <point x="843" y="383"/>
      <point x="869" y="379"/>
      <point x="892" y="367" type="curve"/>
    </contour>
    <contour>
      <point x="582" y="57" type="line"/>
      <point x="461" y="176"/>
      <point x="428" y="243"/>
      <point x="428" y="311" type="curve" smooth="yes"/>
      <point x="428" y="351"/>
      <point x="453" y="383"/>
      <point x="485" y="383" type="curve" smooth="yes"/>
      <point x="535" y="383"/>
      <point x="560" y="358"/>
      <point x="590" y="281" type="curve"/>
      <point x="681" y="344" type="line"/>
      <point x="635" y="448"/>
      <point x="584" y="493"/>
      <point x="482" y="493" type="curve" smooth="yes"/>
      <point x="374" y="493"/>
      <point x="294" y="421"/>
      <point x="294" y="319" type="curve" smooth="yes"/>
      <point x="294" y="217"/>
      <point x="322" y="137"/>
      <point x="493" y="-32" type="curve"/>
    </contour>
    <contour>
      <point x="827" y="608" type="line"/>
      <point x="827" y="0" type="line"/>
      <point x="962" y="0" type="line"/>
      <point x="962" y="608" type="line"/>
    </contour>
    <contour>
      <point x="702" y="685" type="line"/>
      <point x="702" y="575" type="line"/>
      <point x="1087" y="575" type="line"/>
      <point x="1087" y="685" type="line"/>
    </contour>
    <contour>
      <point x="895" y="685" type="move" name="top"/>
    </contour>
    <contour>
      <point x="895" y="0" type="move" name="bottom"/>
    </contour>
    <contour>
      <point x="961" y="685" type="move" name="imatra"/>
    </contour>
  </outline>
</glyph>
<glyph name="b_ra-deva" format="1">
  <advance width="650"/>
  <outline>
    <contour>
      <point x="69" y="2" type="line"/>
      <point x="150" y="-85" type="line"/>
      <point x="433" y="154" type="line"/>
      <point x="433" y="300" type="line"/>
    </contour>
    <contour>
      <point x="309" y="173" type="line"/>
      <point x="361" y="234" type="line"/>
      <point x="190" y="419" type="line"/>
      <point x="136" y="358" type="line"/>
    </contour>
    <contour>
      <point x="-48" y="685" type="line"/>
      <point x="-48" y="575" type="line"/>
      <point x="295" y="575" type="line"/>
      <point x="295" y="685" type="line"/>
    </contour>
    <contour>
      <point x="288" y="490"/>
      <point x="267" y="493"/>
      <point x="241" y="493" type="curve" smooth="yes"/>
      <point x="122" y="493"/>
      <point x="25" y="433"/>
      <point x="25" y="298" type="curve" smooth="yes"/>
      <point x="25" y="175"/>
      <point x="102" y="102"/>
      <point x="232" y="102" type="curve" smooth="yes"/>
      <point x="319" y="102"/>
      <point x="378" y="136"/>
      <point x="432" y="215" type="curve"/>
      <point x="371" y="317" type="line"/>
      <point x="340" y="250"/>
      <point x="302" y="212"/>
      <point x="242" y="212" type="curve" smooth="yes"/>
      <point x="190" y="212"/>
      <point x="160" y="244"/>
      <point x="160" y="298" type="curve" smooth="yes"/>
      <point x="160" y="354"/>
      <point x="198" y="383"/>
      <point x="251" y="383" type="curve" smooth="yes"/>
      <point x="271" y="383"/>
      <point x="293" y="380"/>
      <point x="316" y="374" type="curve"/>
      <point x="303" y="485" type="line"/>
    </contour>
    <contour>
      <point x="410" y="608" type="line"/>
      <point x="410" y="0" type="line"/>
      <point x="545" y="0" type="line"/>
      <point x="545" y="608" type="line"/>
    </contour>
    <contour>
      <point x="285" y="685" type="line"/>
      <point x="285" y="575" type="line"/>
      <point x="670" y="575" type="line"/>
      <point x="670" y="685" type="line"/>
    </contour>
    <contour>
      <point x="482" y="685" type="move" name="top"/>
    </contour>
    <contour>
      <point x="480" y="0" type="move" name="bottom"/>
    </contour>
    <contour>
      <point x="544" y="685" type="move" name="imatra"/>
    </contour>
  </outline>
</glyph>
<glyph name="bh-deva" format="1">
  <advance width="453"/>
  <outline>
    <contour>
      <point x="86" y="690"/>
      <point x="24" y="637"/>
      <point x="24" y="548" type="curve" smooth="yes"/>
      <point x="24" y="475"/>
      <point x="68" y="423"/>
      <point x="142" y="400" type="curve"/>
      <point x="190" y="493" type="line"/>
      <point x="169" y="504"/>
      <point x="159" y="522"/>
      <point x="159" y="540" type="curve" smooth="yes"/>
      <point x="159" y="561"/>
      <point x="170" y="576"/>
      <point x="193" y="576" type="curve" smooth="yes"/>
      <point x="218" y="576"/>
      <point x="233" y="557"/>
      <point x="233" y="526" type="curve" smooth="yes"/>
      <point x="233" y="337" type="line"/>
      <point x="368" y="337" type="line"/>
      <point x="369" y="534" type="line" smooth="yes"/>
      <point x="369" y="624"/>
      <point x="296" y="690"/>
      <point x="194" y="690" type="curve" smooth="yes"/>
    </contour>
    <contour>
      <point x="189" y="385"/>
      <point x="162" y="358"/>
      <point x="162" y="311" type="curve" smooth="yes"/>
      <point x="162" y="233"/>
      <point x="235" y="166"/>
      <point x="304" y="166" type="curve" smooth="yes"/>
      <point x="347" y="166"/>
      <point x="369" y="199"/>
      <point x="369" y="297" type="curve"/>
      <point x="262" y="297" type="line"/>
      <point x="262" y="225" type="line"/>
      <point x="338" y="266" type="line"/>
      <point x="583" y="266" type="line"/>
      <point x="569" y="376" type="line"/>
      <point x="283" y="376" type="line"/>
      <point x="242" y="385" type="line"/>
    </contour>
    <contour>
      <point x="295" y="685" type="move" name="top"/>
    </contour>
    <contour>
      <point x="295" y="0" type="move" name="bottom"/>
    </contour>
  </outline>
</glyph>
<glyph name="bh_ra-deva" format="1">
  <advance width="682"/>
  <outline>
    <contour>
      <point x="124" y="32" type="line"/>
      <point x="205" y="-55" type="line"/>
      <point x="488" y="184" type="line"/>
      <point x="488" y="330" type="line"/>
    </contour>
    <contour>
      <point x="-20" y="685" type="line"/>
      <point x="-20" y="575" type="line"/>
      <point x="61" y="575" type="line" smooth="yes"/>
      <point x="91" y="575"/>
      <point x="107" y="556"/>
      <point x="107" y="522" type="curve" smooth="yes"/>
      <point x="107" y="337" type="line"/>
      <point x="242" y="337" type="line"/>
      <point x="242" y="579" type="line" smooth="yes"/>
      <point x="242" y="644"/>
      <point x="195" y="685"/>
      <point x="121" y="685" type="curve" smooth="yes"/>
    </contour>
    <contour>
      <point x="62" y="383"/>
      <point x="36" y="365"/>
      <point x="36" y="311" type="curve" smooth="yes"/>
      <point x="36" y="233"/>
      <point x="109" y="166"/>
      <point x="178" y="166" type="curve" smooth="yes"/>
      <point x="221" y="166"/>
      <point x="243" y="199"/>
      <point x="243" y="297" type="curve"/>
      <point x="136" y="297" type="line"/>
      <point x="136" y="225" type="line"/>
      <point x="212" y="266" type="line"/>
      <point x="467" y="266" type="line"/>
      <point x="453" y="376" type="line"/>
      <point x="157" y="376" type="line"/>
      <point x="142" y="383" type="line" smooth="yes"/>
    </contour>
    <contour>
      <point x="442" y="608" type="line"/>
      <point x="442" y="0" type="line"/>
      <point x="577" y="0" type="line"/>
      <point x="577" y="608" type="line"/>
    </contour>
    <contour>
      <point x="317" y="685" type="line"/>
      <point x="317" y="575" type="line"/>
      <point x="702" y="575" type="line"/>
      <point x="702" y="685" type="line"/>
    </contour>
    <contour>
      <point x="576" y="685" type="move" name="imatra"/>
    </contour>
    <contour>
      <point x="502" y="0" type="move" name="bottom"/>
    </contour>
    <contour>
      <point x="502" y="685" type="move" name="top"/>
    </contour>
  </outline>
</glyph>
<glyph name="c_ra-deva" format="1">
  <advance width="714"/>
  <outline>
    <contour>
      <point x="159" y="2" type="line"/>
      <point x="240" y="-85" type="line"/>
      <point x="523" y="154" type="line"/>
      <point x="523" y="300" type="line"/>
    </contour>
    <contour>
      <point x="218" y="493"/>
      <point x="138" y="409"/>
      <point x="138" y="295" type="curve" smooth="yes"/>
      <point x="138" y="182"/>
      <point x="228" y="102"/>
      <point x="355" y="102" type="curve" smooth="yes"/>
      <point x="441" y="102"/>
      <point x="509" y="140"/>
      <point x="569" y="223" type="curve"/>
      <point x="511" y="321" type="line"/>
      <point x="473" y="246"/>
      <point x="428" y="212"/>
      <point x="365" y="212" type="curve" smooth="yes"/>
      <point x="308" y="212"/>
      <point x="273" y="244"/>
      <point x="273" y="295" type="curve" smooth="yes"/>
      <point x="273" y="350"/>
      <point x="303" y="383"/>
      <point x="355" y="383" type="curve"/>
      <point x="326" y="493" type="line"/>
    </contour>
    <contour>
      <point x="31" y="493" type="line"/>
      <point x="31" y="383" type="line"/>
      <point x="355" y="383" type="line"/>
      <point x="335" y="493" type="line"/>
    </contour>
    <contour>
      <point x="-20" y="685" type="line"/>
      <point x="-20" y="575" type="line"/>
      <point x="416" y="575" type="line"/>
      <point x="416" y="685" type="line"/>
    </contour>
    <contour>
      <point x="474" y="608" type="line"/>
      <point x="474" y="0" type="line"/>
      <point x="609" y="0" type="line"/>
      <point x="609" y="608" type="line"/>
    </contour>
    <contour>
      <point x="349" y="685" type="line"/>
      <point x="349" y="575" type="line"/>
      <point x="734" y="575" type="line"/>
      <point x="734" y="685" type="line"/>
    </contour>
    <contour>
      <point x="608" y="685" type="move" name="imatra"/>
    </contour>
    <contour>
      <point x="542" y="0" type="move" name="bottom"/>
    </contour>
    <contour>
      <point x="542" y="685" type="move" name="top"/>
    </contour>
  </outline>
</glyph>
<glyph name="candraBindu-deva.alt" format="1">
  <advance width="453"/>
  <outline>
    <component base="candraBindu-deva" xOffset="220"/>
    <contour>
      <point x="227" y="685" type="move" name="_top"/>
    </contour>
  </outline>
</glyph>
<glyph name="caron.alt" format="1">
  <advance width="254"/>
  <outline>
    <contour>
      <point x="181" y="764" type="line"/>
      <point x="73" y="780" type="line"/>
      <point x="71" y="574" type="line"/>
      <point x="135" y="567" type="line"/>
    </contour>
  </outline>
</glyph>
<glyph name="ch_va-deva" format="1">
  <advance width="716"/>
  <outline>
    <contour>
      <point x="424" y="549"/>
      <point x="352" y="504"/>
      <point x="352" y="431" type="curve" smooth="yes"/>
      <point x="352" y="379"/>
      <point x="379" y="333"/>
      <point x="429" y="301" type="curve"/>
      <point x="506" y="358" type="line"/>
      <point x="485" y="371"/>
      <point x="473" y="388"/>
      <point x="473" y="405" type="curve" smooth="yes"/>
      <point x="473" y="424"/>
      <point x="488" y="439"/>
      <point x="514" y="439" type="curve" smooth="yes"/>
      <point x="538" y="439"/>
      <point x="556" y="418"/>
      <point x="556" y="394" type="curve" smooth="yes"/>
      <point x="556" y="289"/>
      <point x="447" y="259"/>
      <point x="317" y="259" type="curve" smooth="yes"/>
      <point x="231" y="259"/>
      <point x="182" y="275"/>
      <point x="182" y="316" type="curve" smooth="yes"/>
      <point x="182" y="345"/>
      <point x="206" y="362"/>
      <point x="263" y="362" type="curve" smooth="yes"/>
      <point x="277" y="362"/>
      <point x="301" y="360"/>
      <point x="310" y="359" type="curve"/>
      <point x="291" y="470" type="line"/>
      <point x="281" y="470"/>
      <point x="277" y="470"/>
      <point x="266" y="470" type="curve" smooth="yes"/>
      <point x="129" y="470"/>
      <point x="45" y="404"/>
      <point x="45" y="317" type="curve" smooth="yes"/>
      <point x="45" y="216"/>
      <point x="147" y="149"/>
      <point x="346" y="149" type="curve" smooth="yes"/>
      <point x="553" y="149"/>
      <point x="681" y="247"/>
      <point x="681" y="398" type="curve" smooth="yes"/>
      <point x="681" y="486"/>
      <point x="609" y="549"/>
      <point x="515" y="549" type="curve" smooth="yes"/>
    </contour>
    <contour>
      <point x="210" y="101"/>
      <point x="134" y="50"/>
      <point x="134" y="-45" type="curve" smooth="yes"/>
      <point x="134" y="-137"/>
      <point x="203" y="-193"/>
      <point x="295" y="-193" type="curve" smooth="yes"/>
      <point x="380" y="-193"/>
      <point x="433" y="-153"/>
      <point x="477" y="-95" type="curve"/>
      <point x="423" y="-5" type="line"/>
      <point x="386" y="-68"/>
      <point x="336" y="-90"/>
      <point x="302" y="-90" type="curve" smooth="yes"/>
      <point x="273" y="-90"/>
      <point x="248" y="-72"/>
      <point x="248" y="-41" type="curve" smooth="yes"/>
      <point x="248" y="-3"/>
      <point x="277" y="7"/>
      <point x="306" y="7" type="curve" smooth="yes"/>
      <point x="320" y="7"/>
      <point x="333" y="5"/>
      <point x="342" y="3" type="curve"/>
      <point x="327" y="100" type="line"/>
      <point x="316" y="101"/>
      <point x="310" y="101"/>
      <point x="305" y="101" type="curve" smooth="yes"/>
    </contour>
    <contour>
      <point x="415" y="220" type="line"/>
      <point x="415" y="-232" type="line"/>
      <point x="525" y="-232" type="line"/>
      <point x="525" y="220" type="line"/>
    </contour>
    <contour>
      <point x="61" y="592"/>
      <point x="45" y="556"/>
      <point x="45" y="520" type="curve" smooth="yes"/>
      <point x="45" y="472"/>
      <point x="72" y="424"/>
      <point x="129" y="386" type="curve"/>
      <point x="220" y="438" type="line"/>
      <point x="188" y="458"/>
      <point x="173" y="487"/>
      <point x="173" y="516" type="curve" smooth="yes"/>
      <point x="173" y="547"/>
      <point x="191" y="579"/>
      <point x="224" y="599" type="curve"/>
      <point x="91" y="620" type="line"/>
    </contour>
    <contour>
      <point x="-30" y="685" type="line"/>
      <point x="-30" y="575" type="line"/>
      <point x="746" y="575" type="line"/>
      <point x="746" y="685" type="line"/>
    </contour>
    <contour>
      <point x="516" y="685" type="move" name="top"/>
    </contour>
    <contour>
      <point x="354" y="-232" type="move" name="bottom"/>
    </contour>
  </outline>
</glyph>
<glyph name="d_ba-deva" format="1">
  <advance width="624"/>
  <outline>
    <contour>
      <point x="316" y="-20" type="line"/>
      <point x="363" y="22" type="line"/>
      <point x="213" y="176" type="line"/>
      <point x="171" y="127" type="line"/>
    </contour>
    <component base="d_va-deva"/>
    <contour>
      <point x="300" y="685" type="move" name="top"/>
    </contour>
    <contour>
      <point x="538" y="0" type="move" name="bottom"/>
    </contour>
  </outline>
</glyph>
<glyph name="d_bh_ya-deva" format="1">
  <advance width="1219"/>
  <outline>
    <contour>
      <point x="232" y="-49" type="line"/>
      <point x="219" y="-57" type="line" smooth="yes"/>
      <point x="195" y="-91"/>
      <point x="183" y="-115"/>
      <point x="183" y="-135" type="curve" smooth="yes"/>
      <point x="183" y="-182"/>
      <point x="244" y="-209"/>
      <point x="296" y="-209" type="curve" smooth="yes"/>
      <point x="361" y="-209"/>
      <point x="428" y="-167"/>
      <point x="428" y="-121" type="curve" smooth="yes"/>
      <point x="428" y="-94"/>
      <point x="404" y="-63"/>
      <point x="347" y="-24" type="curve"/>
      <point x="354" y="-66" type="line"/>
      <point x="529" y="183" type="line"/>
      <point x="432" y="235" type="line"/>
    </contour>
    <contour>
      <point x="93" y="107"/>
      <point x="59" y="87"/>
      <point x="32" y="48" type="curve" smooth="yes"/>
      <point x="-18" y="-25" type="line"/>
      <point x="73" y="-88" type="line"/>
      <point x="97" y="-53" type="line" smooth="yes"/>
      <point x="107" y="-39"/>
      <point x="119" y="-32"/>
      <point x="132" y="-32" type="curve" smooth="yes"/>
      <point x="143" y="-32"/>
      <point x="155" y="-37"/>
      <point x="168" y="-46" type="curve" smooth="yes"/>
      <point x="245" y="-100" type="line"/>
      <point x="314" y="-1" type="line"/>
      <point x="189" y="86" type="line" smooth="yes"/>
      <point x="169" y="100"/>
      <point x="149" y="107"/>
      <point x="128" y="107" type="curve" smooth="yes"/>
    </contour>
    <contour>
      <point x="-20" y="685" type="line"/>
      <point x="-20" y="575" type="line"/>
      <point x="654" y="575" type="line"/>
      <point x="654" y="685" type="line"/>
    </contour>
    <contour>
      <point x="564" y="-42" type="line"/>
      <point x="654" y="34" type="line"/>
      <point x="528" y="194" type="line"/>
      <point x="417" y="154" type="line"/>
    </contour>
    <contour>
      <point x="437" y="524" type="line"/>
      <point x="345" y="524" type="line" smooth="yes"/>
      <point x="205" y="524"/>
      <point x="114" y="472"/>
      <point x="114" y="332" type="curve" smooth="yes"/>
      <point x="114" y="192"/>
      <point x="249" y="119"/>
      <point x="389" y="119" type="curve" smooth="yes"/>
      <point x="508" y="119"/>
      <point x="602" y="152"/>
      <point x="602" y="220" type="curve" smooth="yes"/>
      <point x="602" y="274"/>
      <point x="537" y="330"/>
      <point x="462" y="330" type="curve" smooth="yes"/>
      <point x="407" y="330"/>
      <point x="386" y="293"/>
      <point x="386" y="258" type="curve" smooth="yes"/>
      <point x="386" y="219"/>
      <point x="410" y="166"/>
      <point x="417" y="154" type="curve"/>
      <point x="536" y="266" type="line"/>
      <point x="487" y="242"/>
      <point x="429" y="227"/>
      <point x="377" y="227" type="curve" smooth="yes"/>
      <point x="306" y="227"/>
      <point x="249" y="256"/>
      <point x="249" y="332" type="curve" smooth="yes"/>
      <point x="249" y="392"/>
      <point x="282" y="415"/>
      <point x="342" y="415" type="curve" smooth="yes"/>
      <point x="552" y="415" type="line"/>
      <point x="552" y="625" type="line"/>
      <point x="437" y="625" type="line"/>
    </contour>
    <contour>
      <point x="592" y="575" type="line"/>
      <point x="979" y="575" type="line"/>
      <point x="979" y="184" type="line"/>
      <point x="957" y="175"/>
      <point x="935" y="170"/>
      <point x="914" y="170" type="curve" smooth="yes"/>
      <point x="851" y="170"/>
      <point x="804" y="193"/>
      <point x="781" y="235" type="curve"/>
      <point x="860" y="274"/>
      <point x="901" y="335"/>
      <point x="901" y="416" type="curve" smooth="yes"/>
      <point x="901" y="481"/>
      <point x="854" y="524"/>
      <point x="785" y="524" type="curve" smooth="yes"/>
      <point x="486" y="524" type="line"/>
      <point x="486" y="415" type="line"/>
      <point x="742" y="415" type="line"/>
      <point x="759" y="416"/>
      <point x="770" y="406"/>
      <point x="770" y="389" type="curve" smooth="yes"/>
      <point x="770" y="343"/>
      <point x="722" y="305"/>
      <point x="632" y="281" type="curve"/>
      <point x="672" y="129"/>
      <point x="759" y="60"/>
      <point x="913" y="60" type="curve" smooth="yes"/>
      <point x="934" y="60"/>
      <point x="956" y="63"/>
      <point x="979" y="68" type="curve"/>
      <point x="979" y="0" type="line"/>
      <point x="1114" y="0" type="line"/>
      <point x="1114" y="575" type="line"/>
      <point x="1239" y="575" type="line"/>
      <point x="1239" y="685" type="line"/>
      <point x="592" y="685" type="line"/>
    </contour>
    <contour>
      <point x="1047" y="685" type="move" name="top"/>
    </contour>
    <contour>
      <point x="1047" y="0" type="move" name="bottom"/>
    </contour>
  </outline>
</glyph>
<glyph name="d_da-deva" format="1">
  <advance width="591"/>
  <outline>
    <contour>
      <point x="215" y="517" type="line"/>
      <point x="125" y="517"/>
      <point x="58" y="464"/>
      <point x="58" y="374" type="curve"/>
      <point x="58" y="269"/>
      <point x="126" y="224"/>
      <point x="221" y="224" type="curve"/>
      <point x="313" y="334" type="line"/>
      <point x="236" y="334" type="line"/>
      <point x="212" y="334"/>
      <point x="193" y="350"/>
      <point x="193" y="372" type="curve"/>
      <point x="193" y="394"/>
      <point x="206" y="408"/>
      <point x="228" y="408" type="curve"/>
      <point x="457" y="408" type="line"/>
      <point x="355" y="517" type="line"/>
    </contour>
    <contour>
      <point x="-5" y="685" type="line"/>
      <point x="-5" y="575" type="line"/>
      <point x="596" y="575" type="line"/>
      <point x="596" y="685" type="line"/>
    </contour>
    <contour>
      <point x="322" y="619" type="line"/>
      <point x="322" y="444" type="line"/>
      <point x="457" y="408" type="line"/>
      <point x="457" y="619" type="line"/>
    </contour>
    <contour>
      <point x="310" y="334" type="line" smooth="yes"/>
      <point x="190" y="334"/>
      <point x="79" y="274"/>
      <point x="79" y="154" type="curve" smooth="yes"/>
      <point x="79" y="14"/>
      <point x="214" y="-46"/>
      <point x="354" y="-46" type="curve" smooth="yes"/>
      <point x="473" y="-46"/>
      <point x="567" y="-13"/>
      <point x="567" y="55" type="curve" smooth="yes"/>
      <point x="567" y="109"/>
      <point x="502" y="165"/>
      <point x="427" y="165" type="curve" smooth="yes"/>
      <point x="372" y="165"/>
      <point x="351" y="128"/>
      <point x="351" y="93" type="curve" smooth="yes"/>
      <point x="351" y="54"/>
      <point x="375" y="1"/>
      <point x="382" y="-11" type="curve"/>
      <point x="501" y="101" type="line"/>
      <point x="452" y="77"/>
      <point x="394" y="62"/>
      <point x="342" y="62" type="curve" smooth="yes"/>
      <point x="267" y="62"/>
      <point x="214" y="89"/>
      <point x="214" y="154" type="curve" smooth="yes"/>
      <point x="214" y="204"/>
      <point x="257" y="224"/>
      <point x="307" y="224" type="curve" smooth="yes"/>
      <point x="447" y="224" type="line"/>
      <point x="427" y="334" type="line"/>
    </contour>
    <contour>
      <point x="382" y="-11" type="line"/>
      <point x="536" y="-218" type="line"/>
      <point x="629" y="-147" type="line"/>
      <point x="493" y="29" type="line"/>
    </contour>
    <contour>
      <point x="388" y="685" type="move" name="top"/>
    </contour>
    <contour>
      <point x="255" y="0" type="move" name="bottom"/>
    </contour>
  </outline>
</glyph>
<glyph name="d_ddh_r_ya-deva" format="1">
  <advance width="1282"/>
  <outline>
    <contour>
      <point x="446" y="78"/>
      <point x="402" y="14"/>
      <point x="337" y="14" type="curve" smooth="yes"/>
      <point x="308" y="14"/>
      <point x="290" y="29"/>
      <point x="290" y="51" type="curve" smooth="yes"/>
      <point x="290" y="64"/>
      <point x="301" y="79"/>
      <point x="320" y="87" type="curve"/>
      <point x="245" y="164" type="line"/>
      <point x="189" y="135"/>
      <point x="159" y="92"/>
      <point x="159" y="47" type="curve" smooth="yes"/>
      <point x="159" y="-43"/>
      <point x="241" y="-85"/>
      <point x="328" y="-85" type="curve" smooth="yes"/>
      <point x="427" y="-85"/>
      <point x="491" y="-38"/>
      <point x="543" y="74" type="curve"/>
      <point x="473" y="175" type="line"/>
    </contour>
    <contour>
      <point x="44" y="248"/>
      <point x="14" y="202"/>
      <point x="14" y="157" type="curve" smooth="yes"/>
      <point x="14" y="67"/>
      <point x="96" y="25"/>
      <point x="183" y="25" type="curve" smooth="yes"/>
      <point x="207" y="25"/>
      <point x="231" y="28"/>
      <point x="254" y="34" type="curve"/>
      <point x="237" y="128" type="line"/>
      <point x="223" y="122"/>
      <point x="208" y="119"/>
      <point x="192" y="119" type="curve" smooth="yes"/>
      <point x="161" y="119"/>
      <point x="144" y="137"/>
      <point x="144" y="157" type="curve" smooth="yes"/>
      <point x="144" y="172"/>
      <point x="154" y="188"/>
      <point x="175" y="197" type="curve"/>
      <point x="102" y="277" type="line"/>
    </contour>
    <contour>
      <point x="-5" y="685" type="line"/>
      <point x="-5" y="575" type="line"/>
      <point x="231" y="575" type="line"/>
      <point x="231" y="685" type="line"/>
    </contour>
    <contour>
      <point x="95" y="685" type="line"/>
      <point x="95" y="575" type="line"/>
      <point x="779" y="575" type="line"/>
      <point x="779" y="685" type="line"/>
    </contour>
    <contour>
      <point x="625" y="-42" type="line"/>
      <point x="715" y="34" type="line"/>
      <point x="589" y="194" type="line"/>
      <point x="478" y="154" type="line"/>
    </contour>
    <contour>
      <point x="498" y="524" type="line"/>
      <point x="406" y="524" type="line" smooth="yes"/>
      <point x="266" y="524"/>
      <point x="175" y="472"/>
      <point x="175" y="332" type="curve" smooth="yes"/>
      <point x="175" y="192"/>
      <point x="310" y="119"/>
      <point x="450" y="119" type="curve" smooth="yes"/>
      <point x="569" y="119"/>
      <point x="663" y="152"/>
      <point x="663" y="220" type="curve" smooth="yes"/>
      <point x="663" y="274"/>
      <point x="598" y="330"/>
      <point x="523" y="330" type="curve" smooth="yes"/>
      <point x="468" y="330"/>
      <point x="447" y="293"/>
      <point x="447" y="258" type="curve" smooth="yes"/>
      <point x="447" y="219"/>
      <point x="471" y="166"/>
      <point x="478" y="154" type="curve"/>
      <point x="597" y="266" type="line"/>
      <point x="548" y="242"/>
      <point x="490" y="227"/>
      <point x="438" y="227" type="curve" smooth="yes"/>
      <point x="367" y="227"/>
      <point x="310" y="256"/>
      <point x="310" y="332" type="curve" smooth="yes"/>
      <point x="310" y="392"/>
      <point x="343" y="415"/>
      <point x="403" y="415" type="curve" smooth="yes"/>
      <point x="613" y="415" type="line"/>
      <point x="613" y="625" type="line"/>
      <point x="498" y="625" type="line"/>
    </contour>
    <contour>
      <point x="655" y="575" type="line"/>
      <point x="1042" y="575" type="line"/>
      <point x="1042" y="184" type="line"/>
      <point x="1020" y="175"/>
      <point x="998" y="170"/>
      <point x="977" y="170" type="curve" smooth="yes"/>
      <point x="914" y="170"/>
      <point x="867" y="193"/>
      <point x="844" y="235" type="curve"/>
      <point x="923" y="274"/>
      <point x="964" y="335"/>
      <point x="964" y="416" type="curve" smooth="yes"/>
      <point x="964" y="481"/>
      <point x="917" y="524"/>
      <point x="848" y="524" type="curve" smooth="yes"/>
      <point x="549" y="524" type="line"/>
      <point x="549" y="415" type="line"/>
      <point x="805" y="415" type="line"/>
      <point x="822" y="416"/>
      <point x="833" y="406"/>
      <point x="833" y="389" type="curve" smooth="yes"/>
      <point x="833" y="343"/>
      <point x="785" y="305"/>
      <point x="695" y="281" type="curve"/>
      <point x="735" y="129"/>
      <point x="822" y="60"/>
      <point x="976" y="60" type="curve" smooth="yes"/>
      <point x="997" y="60"/>
      <point x="1019" y="63"/>
      <point x="1042" y="68" type="curve"/>
      <point x="1042" y="0" type="line"/>
      <point x="1177" y="0" type="line"/>
      <point x="1177" y="575" type="line"/>
      <point x="1302" y="575" type="line"/>
      <point x="1302" y="685" type="line"/>
      <point x="655" y="685" type="line"/>
    </contour>
    <contour>
      <point x="1110" y="685" type="move" name="top"/>
    </contour>
    <contour>
      <point x="1110" y="0" type="move" name="bottom"/>
    </contour>
  </outline>
</glyph>
<glyph name="d_dh_ya-deva" format="1">
  <advance width="1275"/>
  <outline>
    <contour>
      <point x="431" y="78"/>
      <point x="387" y="14"/>
      <point x="322" y="14" type="curve" smooth="yes"/>
      <point x="293" y="14"/>
      <point x="275" y="29"/>
      <point x="275" y="51" type="curve" smooth="yes"/>
      <point x="275" y="64"/>
      <point x="286" y="79"/>
      <point x="305" y="87" type="curve"/>
      <point x="230" y="164" type="line"/>
      <point x="174" y="135"/>
      <point x="144" y="92"/>
      <point x="144" y="47" type="curve" smooth="yes"/>
      <point x="144" y="-43"/>
      <point x="226" y="-85"/>
      <point x="313" y="-85" type="curve" smooth="yes"/>
      <point x="412" y="-85"/>
      <point x="476" y="-38"/>
      <point x="528" y="74" type="curve"/>
      <point x="458" y="175" type="line"/>
    </contour>
    <contour>
      <point x="29" y="248"/>
      <point x="-1" y="202"/>
      <point x="-1" y="157" type="curve" smooth="yes"/>
      <point x="-1" y="67"/>
      <point x="81" y="25"/>
      <point x="168" y="25" type="curve" smooth="yes"/>
      <point x="192" y="25"/>
      <point x="216" y="28"/>
      <point x="239" y="34" type="curve"/>
      <point x="222" y="128" type="line"/>
      <point x="208" y="122"/>
      <point x="193" y="119"/>
      <point x="177" y="119" type="curve" smooth="yes"/>
      <point x="146" y="119"/>
      <point x="129" y="137"/>
      <point x="129" y="157" type="curve" smooth="yes"/>
      <point x="129" y="172"/>
      <point x="139" y="188"/>
      <point x="160" y="197" type="curve"/>
      <point x="87" y="277" type="line"/>
    </contour>
    <contour>
      <point x="-20" y="685" type="line"/>
      <point x="-20" y="575" type="line"/>
      <point x="216" y="575" type="line"/>
      <point x="216" y="685" type="line"/>
    </contour>
    <contour>
      <point x="80" y="685" type="line"/>
      <point x="80" y="575" type="line"/>
      <point x="764" y="575" type="line"/>
      <point x="764" y="685" type="line"/>
    </contour>
    <contour>
      <point x="610" y="-42" type="line"/>
      <point x="700" y="34" type="line"/>
      <point x="574" y="194" type="line"/>
      <point x="463" y="154" type="line"/>
    </contour>
    <contour>
      <point x="483" y="524" type="line"/>
      <point x="391" y="524" type="line" smooth="yes"/>
      <point x="251" y="524"/>
      <point x="160" y="472"/>
      <point x="160" y="332" type="curve" smooth="yes"/>
      <point x="160" y="192"/>
      <point x="295" y="119"/>
      <point x="435" y="119" type="curve" smooth="yes"/>
      <point x="554" y="119"/>
      <point x="648" y="152"/>
      <point x="648" y="220" type="curve" smooth="yes"/>
      <point x="648" y="274"/>
      <point x="583" y="330"/>
      <point x="508" y="330" type="curve" smooth="yes"/>
      <point x="453" y="330"/>
      <point x="432" y="293"/>
      <point x="432" y="258" type="curve" smooth="yes"/>
      <point x="432" y="219"/>
      <point x="456" y="166"/>
      <point x="463" y="154" type="curve"/>
      <point x="582" y="266" type="line"/>
      <point x="533" y="242"/>
      <point x="475" y="227"/>
      <point x="423" y="227" type="curve" smooth="yes"/>
      <point x="352" y="227"/>
      <point x="295" y="256"/>
      <point x="295" y="332" type="curve" smooth="yes"/>
      <point x="295" y="392"/>
      <point x="328" y="415"/>
      <point x="388" y="415" type="curve" smooth="yes"/>
      <point x="598" y="415" type="line"/>
      <point x="598" y="625" type="line"/>
      <point x="483" y="625" type="line"/>
    </contour>
    <contour>
      <point x="648" y="575" type="line"/>
      <point x="1035" y="575" type="line"/>
      <point x="1035" y="184" type="line"/>
      <point x="1013" y="175"/>
      <point x="991" y="170"/>
      <point x="970" y="170" type="curve" smooth="yes"/>
      <point x="907" y="170"/>
      <point x="860" y="193"/>
      <point x="837" y="235" type="curve"/>
      <point x="916" y="274"/>
      <point x="957" y="335"/>
      <point x="957" y="416" type="curve" smooth="yes"/>
      <point x="957" y="481"/>
      <point x="910" y="524"/>
      <point x="841" y="524" type="curve" smooth="yes"/>
      <point x="542" y="524" type="line"/>
      <point x="542" y="415" type="line"/>
      <point x="798" y="415" type="line"/>
      <point x="815" y="416"/>
      <point x="826" y="406"/>
      <point x="826" y="389" type="curve" smooth="yes"/>
      <point x="826" y="343"/>
      <point x="778" y="305"/>
      <point x="688" y="281" type="curve"/>
      <point x="728" y="129"/>
      <point x="815" y="60"/>
      <point x="969" y="60" type="curve" smooth="yes"/>
      <point x="990" y="60"/>
      <point x="1012" y="63"/>
      <point x="1035" y="68" type="curve"/>
      <point x="1035" y="0" type="line"/>
      <point x="1170" y="0" type="line"/>
      <point x="1170" y="575" type="line"/>
      <point x="1295" y="575" type="line"/>
      <point x="1295" y="685" type="line"/>
      <point x="648" y="685" type="line"/>
    </contour>
    <contour>
      <point x="1103" y="685" type="move" name="top"/>
    </contour>
    <contour>
      <point x="1103" y="0" type="move" name="bottom"/>
    </contour>
  </outline>
</glyph>
<glyph name="d_dha-deva" format="1">
  <advance width="743"/>
  <outline>
    <contour>
      <point x="446" y="78"/>
      <point x="402" y="14"/>
      <point x="337" y="14" type="curve" smooth="yes"/>
      <point x="308" y="14"/>
      <point x="290" y="29"/>
      <point x="290" y="51" type="curve" smooth="yes"/>
      <point x="290" y="64"/>
      <point x="301" y="79"/>
      <point x="320" y="87" type="curve"/>
      <point x="245" y="164" type="line"/>
      <point x="189" y="135"/>
      <point x="159" y="92"/>
      <point x="159" y="47" type="curve" smooth="yes"/>
      <point x="159" y="-43"/>
      <point x="241" y="-85"/>
      <point x="328" y="-85" type="curve" smooth="yes"/>
      <point x="427" y="-85"/>
      <point x="491" y="-38"/>
      <point x="543" y="74" type="curve"/>
      <point x="473" y="175" type="line"/>
    </contour>
    <contour>
      <point x="44" y="248"/>
      <point x="14" y="202"/>
      <point x="14" y="157" type="curve" smooth="yes"/>
      <point x="14" y="67"/>
      <point x="96" y="25"/>
      <point x="183" y="25" type="curve" smooth="yes"/>
      <point x="207" y="25"/>
      <point x="231" y="28"/>
      <point x="254" y="34" type="curve"/>
      <point x="237" y="128" type="line"/>
      <point x="223" y="122"/>
      <point x="208" y="119"/>
      <point x="192" y="119" type="curve" smooth="yes"/>
      <point x="161" y="119"/>
      <point x="144" y="137"/>
      <point x="144" y="157" type="curve" smooth="yes"/>
      <point x="144" y="172"/>
      <point x="154" y="188"/>
      <point x="175" y="197" type="curve"/>
      <point x="102" y="277" type="line"/>
    </contour>
    <contour>
      <point x="-5" y="685" type="line"/>
      <point x="-5" y="575" type="line"/>
      <point x="231" y="575" type="line"/>
      <point x="231" y="685" type="line"/>
    </contour>
    <contour>
      <point x="95" y="685" type="line"/>
      <point x="95" y="575" type="line"/>
      <point x="779" y="575" type="line"/>
      <point x="779" y="685" type="line"/>
    </contour>
    <contour>
      <point x="625" y="-42" type="line"/>
      <point x="715" y="34" type="line"/>
      <point x="589" y="194" type="line"/>
      <point x="478" y="154" type="line"/>
    </contour>
    <contour>
      <point x="498" y="524" type="line"/>
      <point x="406" y="524" type="line" smooth="yes"/>
      <point x="266" y="524"/>
      <point x="175" y="472"/>
      <point x="175" y="332" type="curve" smooth="yes"/>
      <point x="175" y="192"/>
      <point x="310" y="119"/>
      <point x="450" y="119" type="curve" smooth="yes"/>
      <point x="569" y="119"/>
      <point x="663" y="152"/>
      <point x="663" y="220" type="curve" smooth="yes"/>
      <point x="663" y="274"/>
      <point x="598" y="330"/>
      <point x="523" y="330" type="curve" smooth="yes"/>
      <point x="468" y="330"/>
      <point x="447" y="293"/>
      <point x="447" y="258" type="curve" smooth="yes"/>
      <point x="447" y="219"/>
      <point x="471" y="166"/>
      <point x="478" y="154" type="curve"/>
      <point x="597" y="266" type="line"/>
      <point x="548" y="242"/>
      <point x="490" y="227"/>
      <point x="438" y="227" type="curve" smooth="yes"/>
      <point x="367" y="227"/>
      <point x="310" y="256"/>
      <point x="310" y="332" type="curve" smooth="yes"/>
      <point x="310" y="392"/>
      <point x="343" y="415"/>
      <point x="403" y="415" type="curve" smooth="yes"/>
      <point x="613" y="415" type="line"/>
      <point x="613" y="625" type="line"/>
      <point x="498" y="625" type="line"/>
    </contour>
    <contour>
      <point x="563" y="685" type="move" name="top"/>
    </contour>
    <contour>
      <point x="661" y="0" type="move" name="bottom"/>
    </contour>
  </outline>
</glyph>
<glyph name="d_dha_uMatra-deva" format="1">
  <advance width="743"/>
  <outline>
    <component base="d_dha-deva"/>
    <component base="uMatra-deva" xOffset="421"/>
    <contour>
      <point x="558" y="685" type="move" name="top"/>
    </contour>
  </outline>
</glyph>
<glyph name="d_ga-deva" format="1">
  <advance width="616"/>
  <outline>
    <contour>
      <point x="164" y="84" type="line"/>
      <point x="110" y="84"/>
      <point x="84" y="69"/>
      <point x="84" y="19" type="curve" smooth="yes"/>
      <point x="84" y="-42"/>
      <point x="166" y="-110"/>
      <point x="216" y="-110" type="curve" smooth="yes"/>
      <point x="261" y="-110"/>
      <point x="269" y="-81"/>
      <point x="269" y="-35" type="curve" smooth="yes"/>
      <point x="269" y="229" type="line"/>
      <point x="164" y="249" type="line"/>
    </contour>
    <contour>
      <point x="-30" y="685" type="line"/>
      <point x="-30" y="575" type="line"/>
      <point x="646" y="575" type="line"/>
      <point x="646" y="685" type="line"/>
    </contour>
    <component base="da_small"/>
    <contour>
      <point x="437" y="685" type="move" name="top"/>
    </contour>
    <contour>
      <point x="533" y="7" type="move" name="bottom"/>
    </contour>
  </outline>
</glyph>
<glyph name="d_ga_uMatra-deva" format="1">
  <advance width="616"/>
  <outline>
    <contour>
      <point x="164" y="84" type="line"/>
      <point x="110" y="84"/>
      <point x="84" y="69"/>
      <point x="84" y="19" type="curve" smooth="yes"/>
      <point x="84" y="-42"/>
      <point x="166" y="-110"/>
      <point x="216" y="-110" type="curve" smooth="yes"/>
      <point x="261" y="-110"/>
      <point x="269" y="-81"/>
      <point x="269" y="-35" type="curve" smooth="yes"/>
      <point x="269" y="229" type="line"/>
      <point x="164" y="249" type="line"/>
    </contour>
    <contour>
      <point x="-30" y="685" type="line"/>
      <point x="-30" y="575" type="line"/>
      <point x="646" y="575" type="line"/>
      <point x="646" y="685" type="line"/>
    </contour>
    <contour>
      <point x="500" y="-42" type="line"/>
      <point x="590" y="34" type="line"/>
      <point x="464" y="194" type="line"/>
      <point x="353" y="154" type="line"/>
    </contour>
    <contour>
      <point x="373" y="524" type="line"/>
      <point x="281" y="524" type="line" smooth="yes"/>
      <point x="141" y="524"/>
      <point x="50" y="472"/>
      <point x="50" y="332" type="curve" smooth="yes"/>
      <point x="50" y="192"/>
      <point x="185" y="119"/>
      <point x="325" y="119" type="curve" smooth="yes"/>
      <point x="444" y="119"/>
      <point x="538" y="152"/>
      <point x="538" y="220" type="curve" smooth="yes"/>
      <point x="538" y="274"/>
      <point x="473" y="330"/>
      <point x="398" y="330" type="curve" smooth="yes"/>
      <point x="343" y="330"/>
      <point x="322" y="293"/>
      <point x="322" y="258" type="curve" smooth="yes"/>
      <point x="322" y="219"/>
      <point x="346" y="166"/>
      <point x="353" y="154" type="curve"/>
      <point x="472" y="266" type="line"/>
      <point x="423" y="242"/>
      <point x="365" y="227"/>
      <point x="313" y="227" type="curve" smooth="yes"/>
      <point x="242" y="227"/>
      <point x="185" y="256"/>
      <point x="185" y="332" type="curve" smooth="yes"/>
      <point x="185" y="392"/>
      <point x="218" y="415"/>
      <point x="278" y="415" type="curve" smooth="yes"/>
      <point x="488" y="415" type="line"/>
      <point x="488" y="625" type="line"/>
      <point x="373" y="625" type="line"/>
    </contour>
    <contour>
      <point x="467" y="51"/>
      <point x="423" y="37"/>
      <point x="393" y="8" type="curve"/>
      <point x="460" y="-70" type="line"/>
      <point x="482" y="-53"/>
      <point x="504" y="-46"/>
      <point x="520" y="-46" type="curve" smooth="yes"/>
      <point x="540" y="-46"/>
      <point x="554" y="-54"/>
      <point x="554" y="-75" type="curve" smooth="yes"/>
      <point x="554" y="-100"/>
      <point x="528" y="-116"/>
      <point x="488" y="-116" type="curve" smooth="yes"/>
      <point x="444" y="-116"/>
      <point x="404" y="-97"/>
      <point x="372" y="-67" type="curve"/>
      <point x="313" y="-133" type="line"/>
      <point x="364" y="-183"/>
      <point x="435" y="-212"/>
      <point x="504" y="-212" type="curve" smooth="yes"/>
      <point x="599" y="-212"/>
      <point x="660" y="-159"/>
      <point x="660" y="-77" type="curve" smooth="yes"/>
      <point x="660" y="1"/>
      <point x="591" y="51"/>
      <point x="511" y="51" type="curve" smooth="yes"/>
    </contour>
    <contour>
      <point x="435" y="685" type="move" name="top"/>
    </contour>
    <contour>
      <point x="315" y="38" type="move" name="bottom"/>
    </contour>
  </outline>
</glyph>
<glyph name="d_gha-deva" format="1">
  <advance width="787"/>
  <outline>
    <contour>
      <point x="98" y="334"/>
      <point x="47" y="259"/>
      <point x="47" y="184" type="curve" smooth="yes"/>
      <point x="47" y="74"/>
      <point x="140" y="12"/>
      <point x="250" y="12" type="curve"/>
      <point x="249" y="124" type="line"/>
      <point x="209" y="124"/>
      <point x="173" y="143"/>
      <point x="173" y="183" type="curve" smooth="yes"/>
      <point x="173" y="208"/>
      <point x="193" y="240"/>
      <point x="271" y="259" type="curve"/>
      <point x="218" y="369" type="line"/>
    </contour>
    <contour>
      <point x="-11" y="685" type="line"/>
      <point x="-11" y="575" type="line"/>
      <point x="232" y="575" type="line"/>
      <point x="232" y="685" type="line"/>
    </contour>
    <contour>
      <point x="123" y="685" type="line"/>
      <point x="123" y="575" type="line"/>
      <point x="807" y="575" type="line"/>
      <point x="807" y="685" type="line"/>
    </contour>
    <contour>
      <point x="499" y="78"/>
      <point x="455" y="14"/>
      <point x="390" y="14" type="curve" smooth="yes"/>
      <point x="361" y="14"/>
      <point x="343" y="29"/>
      <point x="343" y="51" type="curve" smooth="yes"/>
      <point x="343" y="80"/>
      <point x="371" y="114"/>
      <point x="420" y="132" type="curve"/>
      <point x="346" y="200" type="line"/>
      <point x="259" y="162"/>
      <point x="212" y="106"/>
      <point x="212" y="47" type="curve" smooth="yes"/>
      <point x="212" y="-43"/>
      <point x="294" y="-85"/>
      <point x="381" y="-85" type="curve" smooth="yes"/>
      <point x="480" y="-85"/>
      <point x="544" y="-38"/>
      <point x="596" y="74" type="curve"/>
      <point x="526" y="175" type="line"/>
    </contour>
    <contour>
      <point x="653" y="-42" type="line"/>
      <point x="743" y="34" type="line"/>
      <point x="617" y="194" type="line"/>
      <point x="506" y="154" type="line"/>
    </contour>
    <contour>
      <point x="526" y="524" type="line"/>
      <point x="434" y="524" type="line" smooth="yes"/>
      <point x="294" y="524"/>
      <point x="203" y="472"/>
      <point x="203" y="332" type="curve" smooth="yes"/>
      <point x="203" y="192"/>
      <point x="338" y="119"/>
      <point x="478" y="119" type="curve" smooth="yes"/>
      <point x="597" y="119"/>
      <point x="691" y="152"/>
      <point x="691" y="220" type="curve" smooth="yes"/>
      <point x="691" y="274"/>
      <point x="626" y="330"/>
      <point x="551" y="330" type="curve" smooth="yes"/>
      <point x="496" y="330"/>
      <point x="475" y="293"/>
      <point x="475" y="258" type="curve" smooth="yes"/>
      <point x="475" y="219"/>
      <point x="499" y="166"/>
      <point x="506" y="154" type="curve"/>
      <point x="625" y="266" type="line"/>
      <point x="576" y="242"/>
      <point x="518" y="227"/>
      <point x="466" y="227" type="curve" smooth="yes"/>
      <point x="395" y="227"/>
      <point x="338" y="256"/>
      <point x="338" y="332" type="curve" smooth="yes"/>
      <point x="338" y="392"/>
      <point x="371" y="415"/>
      <point x="431" y="415" type="curve" smooth="yes"/>
      <point x="641" y="415" type="line"/>
      <point x="641" y="625" type="line"/>
      <point x="526" y="625" type="line"/>
    </contour>
    <contour>
      <point x="568" y="685" type="move" name="top"/>
    </contour>
    <contour>
      <point x="701" y="6" type="move" name="bottom"/>
    </contour>
  </outline>
</glyph>
<glyph name="d_gha_uMatra-deva" format="1">
  <advance width="787"/>
  <outline>
    <contour>
      <point x="98" y="334"/>
      <point x="47" y="259"/>
      <point x="47" y="184" type="curve" smooth="yes"/>
      <point x="47" y="74"/>
      <point x="140" y="12"/>
      <point x="250" y="12" type="curve"/>
      <point x="249" y="124" type="line"/>
      <point x="209" y="124"/>
      <point x="173" y="143"/>
      <point x="173" y="183" type="curve" smooth="yes"/>
      <point x="173" y="208"/>
      <point x="193" y="240"/>
      <point x="271" y="259" type="curve"/>
      <point x="218" y="369" type="line"/>
    </contour>
    <contour>
      <point x="-11" y="685" type="line"/>
      <point x="-11" y="575" type="line"/>
      <point x="232" y="575" type="line"/>
      <point x="232" y="685" type="line"/>
    </contour>
    <contour>
      <point x="123" y="685" type="line"/>
      <point x="123" y="575" type="line"/>
      <point x="807" y="575" type="line"/>
      <point x="807" y="685" type="line"/>
    </contour>
    <contour>
      <point x="499" y="78"/>
      <point x="455" y="14"/>
      <point x="390" y="14" type="curve" smooth="yes"/>
      <point x="361" y="14"/>
      <point x="343" y="29"/>
      <point x="343" y="51" type="curve" smooth="yes"/>
      <point x="343" y="80"/>
      <point x="371" y="114"/>
      <point x="420" y="132" type="curve"/>
      <point x="346" y="200" type="line"/>
      <point x="259" y="162"/>
      <point x="212" y="106"/>
      <point x="212" y="47" type="curve" smooth="yes"/>
      <point x="212" y="-43"/>
      <point x="294" y="-85"/>
      <point x="381" y="-85" type="curve" smooth="yes"/>
      <point x="480" y="-85"/>
      <point x="544" y="-38"/>
      <point x="596" y="74" type="curve"/>
      <point x="526" y="175" type="line"/>
    </contour>
    <contour>
      <point x="653" y="-42" type="line"/>
      <point x="743" y="34" type="line"/>
      <point x="617" y="194" type="line"/>
      <point x="506" y="154" type="line"/>
    </contour>
    <contour>
      <point x="526" y="524" type="line"/>
      <point x="434" y="524" type="line" smooth="yes"/>
      <point x="294" y="524"/>
      <point x="203" y="472"/>
      <point x="203" y="332" type="curve" smooth="yes"/>
      <point x="203" y="192"/>
      <point x="338" y="119"/>
      <point x="478" y="119" type="curve" smooth="yes"/>
      <point x="597" y="119"/>
      <point x="691" y="152"/>
      <point x="691" y="220" type="curve" smooth="yes"/>
      <point x="691" y="274"/>
      <point x="626" y="330"/>
      <point x="551" y="330" type="curve" smooth="yes"/>
      <point x="496" y="330"/>
      <point x="475" y="293"/>
      <point x="475" y="258" type="curve" smooth="yes"/>
      <point x="475" y="219"/>
      <point x="499" y="166"/>
      <point x="506" y="154" type="curve"/>
      <point x="625" y="266" type="line"/>
      <point x="576" y="242"/>
      <point x="518" y="227"/>
      <point x="466" y="227" type="curve" smooth="yes"/>
      <point x="395" y="227"/>
      <point x="338" y="256"/>
      <point x="338" y="332" type="curve" smooth="yes"/>
      <point x="338" y="392"/>
      <point x="371" y="415"/>
      <point x="431" y="415" type="curve" smooth="yes"/>
      <point x="641" y="415" type="line"/>
      <point x="641" y="625" type="line"/>
      <point x="526" y="625" type="line"/>
    </contour>
    <contour>
      <point x="635" y="50"/>
      <point x="591" y="36"/>
      <point x="561" y="7" type="curve"/>
      <point x="628" y="-71" type="line"/>
      <point x="650" y="-54"/>
      <point x="672" y="-47"/>
      <point x="688" y="-47" type="curve" smooth="yes"/>
      <point x="708" y="-47"/>
      <point x="722" y="-55"/>
      <point x="722" y="-76" type="curve" smooth="yes"/>
      <point x="722" y="-101"/>
      <point x="696" y="-117"/>
      <point x="656" y="-117" type="curve" smooth="yes"/>
      <point x="612" y="-117"/>
      <point x="572" y="-98"/>
      <point x="540" y="-68" type="curve"/>
      <point x="481" y="-134" type="line"/>
      <point x="532" y="-184"/>
      <point x="603" y="-213"/>
      <point x="672" y="-213" type="curve" smooth="yes"/>
      <point x="767" y="-213"/>
      <point x="828" y="-160"/>
      <point x="828" y="-78" type="curve" smooth="yes"/>
      <point x="828" y="0"/>
      <point x="759" y="50"/>
      <point x="679" y="50" type="curve" smooth="yes"/>
    </contour>
    <contour>
      <point x="558" y="685" type="move" name="top"/>
    </contour>
    <contour>
      <point x="701" y="6" type="move" name="bottom"/>
    </contour>
  </outline>
</glyph>
<glyph name="d_na-deva" format="1">
  <advance width="611"/>
  <outline>
    <contour>
      <point x="282" y="191" type="line"/>
      <point x="117" y="40" type="line" smooth="yes"/>
      <point x="93" y="18"/>
      <point x="78" y="-1"/>
      <point x="78" y="-22" type="curve" smooth="yes"/>
      <point x="78" y="-67"/>
      <point x="151" y="-111"/>
      <point x="224" y="-111" type="curve" smooth="yes"/>
      <point x="269" y="-111"/>
      <point x="312" y="-88"/>
      <point x="312" y="-53" type="curve" smooth="yes"/>
      <point x="312" y="-26"/>
      <point x="285" y="7"/>
      <point x="236" y="62" type="curve"/>
      <point x="160" y="-15" type="line"/>
      <point x="219" y="-72" type="line"/>
      <point x="243" y="14" type="line"/>
      <point x="409" y="155" type="line"/>
    </contour>
    <contour>
      <point x="-30" y="685" type="line"/>
      <point x="-30" y="575" type="line"/>
      <point x="641" y="575" type="line"/>
      <point x="641" y="685" type="line"/>
    </contour>
    <contour>
      <point x="500" y="-42" type="line"/>
      <point x="590" y="34" type="line"/>
      <point x="464" y="194" type="line"/>
      <point x="353" y="154" type="line"/>
    </contour>
    <contour>
      <point x="373" y="524" type="line"/>
      <point x="281" y="524" type="line" smooth="yes"/>
      <point x="141" y="524"/>
      <point x="50" y="472"/>
      <point x="50" y="332" type="curve" smooth="yes"/>
      <point x="50" y="192"/>
      <point x="185" y="119"/>
      <point x="325" y="119" type="curve" smooth="yes"/>
      <point x="444" y="119"/>
      <point x="538" y="152"/>
      <point x="538" y="220" type="curve" smooth="yes"/>
      <point x="538" y="274"/>
      <point x="473" y="330"/>
      <point x="398" y="330" type="curve" smooth="yes"/>
      <point x="343" y="330"/>
      <point x="322" y="293"/>
      <point x="322" y="258" type="curve" smooth="yes"/>
      <point x="322" y="219"/>
      <point x="346" y="166"/>
      <point x="353" y="154" type="curve"/>
      <point x="472" y="266" type="line"/>
      <point x="423" y="242"/>
      <point x="365" y="227"/>
      <point x="313" y="227" type="curve" smooth="yes"/>
      <point x="242" y="227"/>
      <point x="185" y="256"/>
      <point x="185" y="332" type="curve" smooth="yes"/>
      <point x="185" y="392"/>
      <point x="218" y="415"/>
      <point x="278" y="415" type="curve" smooth="yes"/>
      <point x="488" y="415" type="line"/>
      <point x="488" y="625" type="line"/>
      <point x="373" y="625" type="line"/>
    </contour>
    <contour>
      <point x="426" y="685" type="move" name="top"/>
    </contour>
    <contour>
      <point x="545" y="-2" type="move" name="bottom"/>
    </contour>
  </outline>
</glyph>
<glyph name="d_na_uMatra-deva" format="1">
  <advance width="611"/>
  <outline>
    <contour>
      <point x="282" y="191" type="line"/>
      <point x="117" y="40" type="line" smooth="yes"/>
      <point x="93" y="18"/>
      <point x="78" y="-1"/>
      <point x="78" y="-22" type="curve" smooth="yes"/>
      <point x="78" y="-67"/>
      <point x="151" y="-111"/>
      <point x="224" y="-111" type="curve" smooth="yes"/>
      <point x="269" y="-111"/>
      <point x="312" y="-88"/>
      <point x="312" y="-53" type="curve" smooth="yes"/>
      <point x="312" y="-26"/>
      <point x="285" y="7"/>
      <point x="236" y="62" type="curve"/>
      <point x="160" y="-15" type="line"/>
      <point x="219" y="-72" type="line"/>
      <point x="243" y="14" type="line"/>
      <point x="409" y="155" type="line"/>
    </contour>
    <contour>
      <point x="-30" y="685" type="line"/>
      <point x="-30" y="575" type="line"/>
      <point x="641" y="575" type="line"/>
      <point x="641" y="685" type="line"/>
    </contour>
    <contour>
      <point x="500" y="-42" type="line"/>
      <point x="590" y="34" type="line"/>
      <point x="464" y="194" type="line"/>
      <point x="353" y="154" type="line"/>
    </contour>
    <contour>
      <point x="373" y="524" type="line"/>
      <point x="281" y="524" type="line" smooth="yes"/>
      <point x="141" y="524"/>
      <point x="50" y="472"/>
      <point x="50" y="332" type="curve" smooth="yes"/>
      <point x="50" y="192"/>
      <point x="185" y="119"/>
      <point x="325" y="119" type="curve" smooth="yes"/>
      <point x="444" y="119"/>
      <point x="538" y="152"/>
      <point x="538" y="220" type="curve" smooth="yes"/>
      <point x="538" y="274"/>
      <point x="473" y="330"/>
      <point x="398" y="330" type="curve" smooth="yes"/>
      <point x="343" y="330"/>
      <point x="322" y="293"/>
      <point x="322" y="258" type="curve" smooth="yes"/>
      <point x="322" y="219"/>
      <point x="346" y="166"/>
      <point x="353" y="154" type="curve"/>
      <point x="472" y="266" type="line"/>
      <point x="423" y="242"/>
      <point x="365" y="227"/>
      <point x="313" y="227" type="curve" smooth="yes"/>
      <point x="242" y="227"/>
      <point x="185" y="256"/>
      <point x="185" y="332" type="curve" smooth="yes"/>
      <point x="185" y="392"/>
      <point x="218" y="415"/>
      <point x="278" y="415" type="curve" smooth="yes"/>
      <point x="488" y="415" type="line"/>
      <point x="488" y="625" type="line"/>
      <point x="373" y="625" type="line"/>
    </contour>
    <contour>
      <point x="479" y="42"/>
      <point x="435" y="28"/>
      <point x="405" y="-1" type="curve"/>
      <point x="472" y="-79" type="line"/>
      <point x="494" y="-62"/>
      <point x="516" y="-55"/>
      <point x="532" y="-55" type="curve" smooth="yes"/>
      <point x="552" y="-55"/>
      <point x="566" y="-63"/>
      <point x="566" y="-84" type="curve" smooth="yes"/>
      <point x="566" y="-109"/>
      <point x="540" y="-125"/>
      <point x="500" y="-125" type="curve" smooth="yes"/>
      <point x="456" y="-125"/>
      <point x="416" y="-106"/>
      <point x="384" y="-76" type="curve"/>
      <point x="325" y="-142" type="line"/>
      <point x="376" y="-192"/>
      <point x="447" y="-221"/>
      <point x="516" y="-221" type="curve" smooth="yes"/>
      <point x="611" y="-221"/>
      <point x="672" y="-168"/>
      <point x="672" y="-86" type="curve" smooth="yes"/>
      <point x="672" y="-8"/>
      <point x="603" y="42"/>
      <point x="523" y="42" type="curve" smooth="yes"/>
    </contour>
    <contour>
      <point x="446" y="685" type="move" name="top"/>
    </contour>
    <contour>
      <point x="328" y="38" type="move" name="bottom"/>
    </contour>
  </outline>
</glyph>
